{"glyphs":{"0":{"ha":3090,"x_min":0,"x_max":0,"o":"m 1607 939 b 1665 982 1638 939 1658 950 b 1668 1032 1668 997 1668 1015 b 1663 1128 1668 1063 1674 1100 b 1604 1160 1654 1151 1628 1160 b 1553 1119 1581 1158 1557 1147 b 1549 1025 1546 1093 1549 1057 b 1551 985 1549 1013 1549 999 b 1607 939 1556 953 1575 939 z m 211 206 l 254 206 l 257 324 l 281 206 l 315 206 l 335 326 l 340 206 l 381 206 l 381 496 l 331 496 l 297 314 l 261 496 l 215 496 z m 419 206 l 465 206 l 465 347 l 515 206 l 551 206 l 551 496 l 506 496 l 506 357 l 456 496 l 419 496 z m 585 206 l 633 206 l 633 258 l 585 258 z m 651 307 b 664 236 651 282 656 258 b 733 201 675 210 706 197 b 785 260 765 210 783 235 b 750 357 789 297 778 331 l 728 383 b 700 417 718 393 706 400 b 721 454 696 428 697 456 b 739 399 739 451 735 417 l 783 400 b 746 493 783 435 779 478 b 656 443 704 513 657 485 b 667 375 650 418 656 393 b 693 344 671 364 685 357 b 739 272 710 326 739 303 b 726 249 739 260 735 251 b 708 258 718 244 713 251 b 697 310 697 274 697 293 z m 807 351 b 808 269 807 324 806 297 b 839 211 811 249 818 221 b 910 214 858 197 892 197 l 913 206 l 950 206 l 950 357 l 875 357 l 875 314 l 904 314 b 875 249 904 297 908 235 b 858 310 851 254 858 294 l 858 415 b 885 454 858 438 863 457 b 900 393 897 449 900 444 l 947 393 b 915 490 947 425 950 469 b 851 496 897 501 872 501 b 808 435 825 485 813 460 b 807 351 806 408 807 379 z m 960 168 l 1000 168 l 1083 533 l 1038 533 z m 972 -6 b 1006 -83 972 -33 964 -83 b 1031 -40 1029 -83 1031 -60 l 1018 -40 b 1017 -64 1018 -49 1019 -56 b 993 -67 1013 -72 997 -74 b 989 -26 988 -56 989 -35 b 993 14 989 -15 988 4 b 1017 11 997 21 1013 21 b 1018 -8 1019 4 1018 -4 l 1031 -8 b 1008 28 1031 8 1031 26 b 972 -6 983 32 972 15 z m 1046 -25 b 1076 -83 1046 -47 1039 -83 b 1108 -26 1108 -83 1108 -50 b 1078 28 1108 -4 1110 26 b 1046 -25 1046 32 1046 4 z m 1047 939 l 1076 939 l 1076 1040 b 1136 1053 1096 1040 1121 1038 b 1146 1133 1160 1071 1160 1108 b 1093 1158 1136 1156 1115 1158 l 1047 1158 z m 1050 772 b 1054 721 1050 751 1050 735 b 1129 692 1065 692 1104 679 b 1167 810 1175 706 1167 772 l 1167 910 l 1136 910 l 1136 828 l 1136 760 b 1096 710 1136 733 1128 701 b 1078 763 1076 721 1078 744 l 1078 910 l 1050 910 z m 1058 -15 l 1058 -1 b 1082 15 1058 11 1067 22 b 1090 -31 1093 11 1090 -18 b 1067 -68 1090 -46 1093 -82 b 1058 -15 1054 -64 1058 -28 z m 1076 1063 l 1076 1135 b 1108 1133 1086 1135 1097 1138 b 1126 1096 1126 1129 1126 1111 b 1108 1065 1126 1082 1124 1069 b 1076 1063 1097 1063 1086 1063 z m 1086 57 l 1104 57 l 1104 110 l 1124 110 l 1124 118 l 1104 118 l 1104 157 l 1129 157 l 1129 168 l 1086 168 z m 1093 203 l 1139 203 l 1139 322 l 1163 203 l 1196 203 l 1219 325 l 1221 203 l 1265 203 l 1264 494 l 1213 494 l 1179 311 l 1144 494 l 1100 494 z m 1121 -82 l 1135 -82 l 1135 -1 l 1153 -82 l 1165 -82 l 1182 -1 l 1182 -82 l 1193 -82 l 1193 28 l 1176 28 l 1160 -60 l 1139 28 l 1121 28 z m 1139 115 b 1171 56 1139 90 1136 56 b 1200 111 1200 56 1200 88 b 1171 169 1200 133 1203 165 b 1139 115 1139 169 1139 142 z m 1154 118 l 1154 136 b 1176 156 1154 150 1165 164 b 1185 108 1189 150 1185 118 b 1165 67 1185 90 1185 63 b 1154 118 1147 74 1154 110 z m 1176 939 l 1261 939 l 1261 961 l 1206 961 l 1206 1040 l 1251 1040 l 1251 1063 l 1206 1063 l 1206 1135 l 1260 1135 l 1260 1158 l 1176 1158 z m 1189 751 b 1249 689 1193 717 1213 689 b 1299 754 1285 689 1307 721 b 1256 814 1296 783 1274 796 b 1222 868 1238 828 1213 844 b 1249 883 1224 879 1233 889 b 1272 846 1267 881 1271 861 l 1296 853 b 1278 901 1296 872 1292 890 b 1225 910 1261 910 1240 913 b 1200 826 1189 899 1182 853 b 1242 785 1208 810 1231 796 b 1267 761 1256 779 1260 768 b 1263 718 1274 749 1278 728 b 1231 721 1256 707 1239 710 b 1219 760 1222 729 1222 744 z m 1213 -82 l 1225 -82 l 1228 -1 l 1242 -82 l 1256 -82 l 1272 -1 l 1274 -82 l 1285 -82 l 1282 28 l 1267 28 l 1249 -60 l 1231 28 l 1213 28 z m 1217 57 l 1231 57 l 1231 110 l 1242 110 l 1258 57 l 1274 57 l 1258 111 b 1258 165 1278 118 1274 156 b 1217 168 1246 169 1231 168 z m 1228 524 l 1242 524 l 1242 578 b 1274 583 1256 578 1263 575 b 1278 625 1282 592 1282 613 b 1228 639 1268 643 1242 639 z m 1231 118 l 1231 157 b 1258 139 1246 157 1258 156 b 1231 118 1258 121 1244 118 z m 1242 586 l 1242 629 b 1267 611 1258 629 1267 629 b 1258 588 1267 601 1267 593 b 1242 586 1256 586 1247 586 z m 1285 939 l 1318 939 l 1318 1042 l 1340 1042 l 1371 939 l 1397 939 l 1371 1049 b 1371 1149 1406 1063 1403 1131 b 1285 1158 1347 1161 1314 1158 z m 1290 308 b 1292 264 1290 294 1290 281 b 1333 206 1293 240 1307 215 b 1399 213 1354 200 1379 200 b 1428 308 1431 231 1428 275 l 1428 392 b 1399 488 1428 422 1431 468 b 1333 494 1379 499 1354 499 b 1292 432 1307 485 1293 458 b 1290 389 1290 418 1290 403 z m 1296 524 l 1336 524 l 1336 536 l 1307 536 l 1307 639 l 1296 639 z m 1303 -82 l 1347 -82 l 1347 -72 l 1319 -72 l 1319 -28 l 1342 -28 l 1342 -15 l 1319 -15 l 1319 18 l 1347 18 l 1347 28 l 1303 28 z m 1310 157 l 1329 157 l 1329 57 l 1347 57 l 1347 157 l 1368 157 l 1368 168 l 1310 168 z m 1318 1063 l 1318 1135 b 1349 1132 1325 1135 1336 1138 b 1365 1103 1363 1128 1365 1114 b 1349 1065 1367 1086 1363 1072 b 1318 1063 1336 1063 1325 1063 z m 1325 692 l 1410 692 l 1410 710 l 1354 710 l 1354 790 l 1399 790 l 1399 814 l 1354 814 l 1354 883 l 1410 883 l 1410 910 l 1325 910 z m 1339 314 l 1339 383 b 1343 443 1339 400 1336 422 b 1365 453 1344 446 1356 453 b 1379 433 1374 449 1379 444 b 1381 392 1383 421 1381 406 l 1381 308 b 1379 264 1381 293 1383 278 b 1365 247 1379 253 1374 251 b 1343 257 1356 244 1344 251 b 1339 314 1336 275 1339 299 z m 1349 524 l 1390 524 l 1390 536 l 1363 536 l 1363 578 l 1385 578 l 1385 588 l 1363 588 l 1363 629 l 1390 629 l 1390 639 l 1349 639 z m 1357 -82 l 1375 -82 l 1375 -28 l 1388 -28 l 1400 -82 l 1414 -82 l 1399 -26 b 1400 25 1418 -18 1415 15 b 1357 28 1388 32 1374 28 z m 1375 -15 l 1375 18 b 1399 -1 1388 18 1399 15 b 1375 -15 1399 -15 1388 -15 z m 1375 57 l 1388 57 l 1388 110 l 1419 110 l 1419 57 l 1436 57 l 1436 168 l 1419 168 l 1419 118 l 1388 118 l 1388 168 l 1375 168 z m 1397 524 l 1411 524 l 1414 554 l 1439 554 l 1444 524 l 1461 524 l 1439 639 l 1421 639 z m 1415 563 l 1429 618 l 1439 563 z m 1415 1000 b 1476 939 1418 965 1439 939 b 1528 1004 1514 939 1535 969 b 1483 1063 1522 1028 1500 1046 b 1447 1118 1467 1076 1443 1093 b 1476 1138 1450 1131 1464 1138 b 1500 1096 1494 1132 1497 1111 l 1525 1104 b 1506 1149 1524 1119 1519 1142 b 1454 1156 1492 1160 1467 1161 b 1428 1074 1415 1147 1410 1104 b 1468 1033 1439 1058 1458 1046 b 1494 1008 1482 1024 1488 1015 b 1494 968 1501 997 1506 975 b 1458 969 1483 958 1467 960 b 1446 1008 1450 978 1447 992 z m 1429 -6 b 1458 -83 1429 -33 1418 -83 b 1486 -40 1483 -83 1486 -60 l 1469 -40 b 1468 -64 1469 -49 1474 -56 b 1447 -67 1467 -72 1454 -74 b 1443 -26 1439 -56 1443 -35 b 1447 14 1443 -15 1439 4 b 1468 11 1454 21 1467 21 b 1469 -8 1474 4 1469 -4 l 1486 -8 b 1464 28 1486 8 1483 26 b 1429 -6 1439 32 1429 15 z m 1451 57 l 1494 57 l 1494 65 l 1467 65 l 1467 110 l 1489 110 l 1489 118 l 1467 118 l 1467 157 l 1494 157 l 1494 168 l 1451 168 z m 1453 203 l 1497 203 l 1497 346 l 1547 203 l 1585 203 l 1585 494 l 1538 494 l 1538 354 l 1488 494 l 1453 494 z m 1467 554 b 1497 524 1468 539 1481 524 b 1524 561 1518 524 1528 542 b 1497 588 1522 574 1507 581 b 1483 618 1489 596 1481 607 b 1510 607 1486 632 1500 638 l 1524 608 b 1507 638 1524 618 1518 632 b 1476 633 1497 640 1483 639 b 1483 585 1461 618 1468 596 b 1510 550 1492 575 1510 563 b 1492 536 1510 539 1501 535 b 1483 561 1483 539 1483 553 z m 1492 779 b 1494 733 1492 763 1492 749 b 1553 689 1497 704 1522 689 b 1607 732 1583 689 1603 703 b 1610 785 1614 749 1610 765 b 1604 879 1610 813 1615 850 b 1547 910 1597 901 1575 910 b 1494 872 1524 910 1501 899 b 1492 779 1488 844 1492 810 z m 1501 -82 l 1518 -82 l 1518 28 l 1501 28 z m 1524 760 l 1524 796 b 1524 867 1524 819 1519 846 b 1546 883 1528 879 1532 883 b 1572 879 1553 889 1563 883 b 1581 844 1583 869 1581 857 l 1581 765 b 1581 742 1581 760 1583 749 b 1563 714 1581 732 1575 721 b 1535 714 1556 710 1546 710 b 1524 760 1522 721 1524 742 z m 1528 -82 l 1546 -82 l 1551 -53 l 1575 -53 l 1581 -82 l 1594 -82 l 1568 28 l 1553 28 z m 1535 524 l 1583 524 l 1583 536 l 1553 536 l 1553 578 l 1575 578 l 1575 588 l 1553 588 l 1553 629 l 1581 629 l 1581 639 l 1535 639 z m 1542 57 l 1553 57 l 1553 110 l 1575 110 l 1575 118 l 1553 118 l 1553 157 l 1583 157 l 1583 168 l 1542 168 z m 1553 -44 l 1563 8 l 1572 -44 z m 1581 1006 l 1581 1046 b 1583 1114 1581 1067 1575 1096 b 1603 1135 1586 1128 1592 1133 b 1628 1128 1614 1138 1619 1138 b 1638 1090 1638 1118 1638 1104 l 1638 992 b 1621 963 1638 982 1635 969 b 1597 963 1615 960 1603 960 b 1581 1006 1581 971 1581 992 z m 1594 83 b 1631 57 1597 63 1610 50 b 1650 117 1653 65 1650 99 l 1650 168 l 1638 168 l 1638 118 b 1619 65 1638 106 1643 65 b 1606 118 1601 65 1606 106 l 1606 168 l 1594 168 l 1594 110 b 1594 83 1594 101 1592 90 z m 1604 -82 l 1647 -82 l 1647 -72 l 1618 -72 l 1618 28 l 1604 28 z m 1610 203 l 1722 203 l 1722 253 l 1657 253 l 1657 329 l 1710 329 l 1710 382 l 1657 382 l 1657 444 l 1722 444 l 1722 494 l 1610 494 z m 1618 639 l 1643 524 l 1658 524 l 1682 639 l 1668 639 l 1650 554 l 1635 639 z m 1643 692 l 1665 692 l 1665 839 l 1731 692 l 1751 692 l 1751 910 l 1724 910 l 1724 763 l 1663 910 l 1643 910 z m 1668 57 l 1710 57 l 1710 65 l 1685 65 l 1685 168 l 1668 168 z m 1686 28 l 1710 -82 l 1722 -82 l 1747 28 l 1733 28 l 1715 -53 l 1700 28 z m 1694 524 l 1710 524 l 1710 639 l 1694 639 z m 1700 939 l 1724 939 l 1724 1086 l 1786 939 l 1806 939 l 1806 1158 l 1778 1158 l 1778 1013 l 1717 1158 l 1700 1158 z m 1722 57 l 1764 57 l 1764 65 l 1738 65 l 1738 168 l 1722 168 z m 1725 554 b 1756 524 1728 539 1733 524 b 1778 561 1774 524 1785 542 b 1757 588 1778 574 1764 583 b 1742 618 1749 596 1735 606 b 1764 607 1747 632 1763 638 l 1778 608 b 1764 638 1778 618 1774 632 b 1733 633 1757 640 1743 639 b 1739 585 1715 618 1728 596 b 1764 550 1751 575 1767 563 b 1751 536 1764 539 1760 535 b 1739 561 1743 539 1739 553 z m 1735 494 l 1779 328 l 1779 203 l 1826 203 l 1826 321 l 1876 494 l 1825 494 l 1804 378 l 1785 494 z m 1760 -82 l 1804 -82 l 1804 -72 l 1775 -72 l 1775 -28 l 1799 -28 l 1799 -15 l 1775 -15 l 1775 18 l 1804 18 l 1804 28 l 1760 28 z m 1785 692 l 1867 692 l 1867 710 l 1814 710 l 1814 910 l 1785 910 z m 1793 524 l 1810 524 l 1810 639 l 1793 639 z m 1804 57 l 1817 57 l 1824 83 l 1846 83 l 1850 57 l 1867 57 l 1842 168 l 1824 168 z m 1815 -82 l 1831 -82 l 1831 -28 l 1842 -28 l 1856 -82 l 1872 -82 l 1854 -26 b 1858 25 1875 -19 1875 15 b 1815 28 1846 32 1829 28 z m 1819 629 l 1842 629 l 1842 524 l 1853 524 l 1853 629 l 1872 629 l 1872 639 l 1819 639 z m 1824 96 l 1833 146 l 1843 96 z m 1826 939 l 1854 939 l 1867 992 l 1911 992 l 1922 939 l 1950 939 l 1904 1158 l 1875 1158 z m 1831 -15 l 1831 18 b 1854 -1 1846 18 1854 15 b 1831 -15 1854 -15 1846 -15 z m 1871 1015 l 1890 1114 l 1908 1015 z m 1878 57 l 1893 57 l 1893 132 l 1922 57 l 1933 57 l 1933 168 l 1918 168 l 1918 94 l 1886 168 l 1878 168 z m 1878 910 l 1908 810 b 1922 768 1914 796 1918 785 b 1922 735 1924 760 1922 744 l 1922 692 l 1953 692 l 1953 743 b 1956 772 1953 751 1950 763 l 1971 817 b 2000 910 1979 849 1990 879 l 1971 910 l 1938 803 l 1904 910 z m 1883 -50 b 1914 -83 1885 -68 1894 -83 b 1938 -49 1935 -83 1943 -67 b 1915 -15 1938 -33 1924 -26 b 1900 11 1908 -8 1894 -1 b 1917 18 1904 18 1910 21 b 1926 -4 1924 15 1924 4 l 1938 3 b 1924 26 1938 14 1935 22 b 1893 22 1915 32 1904 31 b 1899 -25 1878 14 1885 -11 b 1926 -57 1908 -31 1926 -44 b 1908 -68 1926 -67 1918 -74 b 1899 -47 1900 -67 1899 -53 z m 1889 203 l 1935 203 l 1935 322 l 1957 203 l 1992 203 l 2014 325 l 2017 203 l 2060 203 l 2058 494 l 2007 494 l 1974 311 l 1940 494 l 1894 494 z m 1950 57 b 1994 64 1963 57 1983 54 b 2006 111 2010 72 2006 96 b 2000 160 2006 128 2010 150 b 1950 168 1985 169 1963 168 z m 1953 -82 l 1967 -82 l 1967 28 l 1953 28 z m 1967 65 l 1967 157 b 1992 139 1979 157 1990 157 l 1992 83 b 1967 65 1986 65 1976 65 z m 1972 939 l 2058 939 l 2058 961 l 2003 961 l 2003 1158 l 1972 1158 z m 1983 -25 b 2015 -83 1983 -47 1981 -83 b 2046 -26 2047 -83 2046 -50 b 2018 28 2046 -4 2050 26 b 1983 -25 1983 32 1983 4 z m 2003 -15 l 2003 -1 b 2025 15 2003 11 2007 22 b 2031 -31 2035 11 2031 -18 b 2007 -68 2031 -46 2032 -82 b 2003 -15 1994 -64 2003 -28 z m 2015 692 l 2046 692 l 2046 721 l 2015 721 z m 2015 910 l 2025 736 l 2035 736 l 2046 910 z m 2061 -82 l 2071 -82 l 2071 -6 l 2106 -82 l 2118 -82 l 2118 28 l 2106 28 l 2106 -46 l 2071 28 l 2061 28 z m 2067 203 l 2117 203 l 2126 272 l 2157 272 l 2167 203 l 2215 203 l 2165 494 l 2119 494 z m 2133 314 l 2140 372 l 2149 314 z m 2221 261 b 2281 200 2221 226 2251 203 b 2314 206 2292 199 2304 200 b 2351 299 2347 221 2351 263 l 2306 301 b 2286 244 2306 282 2308 249 b 2269 263 2279 243 2269 249 l 2269 433 b 2286 453 2269 449 2279 454 b 2306 397 2308 449 2306 415 l 2351 400 b 2314 492 2351 433 2347 476 b 2281 497 2304 497 2292 499 b 2221 436 2251 494 2221 472 z m 2376 203 l 2428 203 l 2428 326 l 2471 326 l 2471 203 l 2518 203 l 2518 494 l 2471 494 l 2471 378 l 2428 378 l 2428 494 l 2376 494 z m 2543 203 l 2593 203 l 2593 494 l 2543 494 z m 2618 203 l 2663 203 l 2663 346 l 2713 203 l 2750 203 l 2750 494 l 2703 494 l 2703 354 l 2653 494 l 2618 494 z m 2774 203 l 2888 203 l 2888 253 l 2822 253 l 2822 329 l 2875 329 l 2875 382 l 2822 382 l 2822 444 l 2888 444 l 2888 494 l 2774 494 z "},"1":{"ha":3090,"x_min":0,"x_max":0,"o":"m 1607 939 b 1665 982 1638 939 1658 950 b 1668 1032 1668 997 1668 1015 b 1663 1128 1668 1063 1674 1100 b 1604 1160 1654 1151 1628 1160 b 1553 1119 1581 1158 1557 1147 b 1549 1025 1546 1093 1549 1057 b 1551 985 1549 1013 1549 999 b 1607 939 1556 953 1575 939 z m 211 206 l 254 206 l 257 324 l 281 206 l 315 206 l 335 326 l 340 206 l 381 206 l 381 496 l 331 496 l 297 314 l 261 496 l 215 496 z m 419 206 l 465 206 l 465 347 l 515 206 l 551 206 l 551 496 l 506 496 l 506 357 l 456 496 l 419 496 z m 585 206 l 633 206 l 633 258 l 585 258 z m 651 307 b 664 236 651 282 656 258 b 733 201 675 210 706 197 b 785 260 765 210 783 235 b 750 357 789 297 778 331 l 728 383 b 700 417 718 393 706 400 b 721 454 696 428 697 456 b 739 399 739 451 735 417 l 783 400 b 746 493 783 435 779 478 b 656 443 704 513 657 485 b 667 375 650 418 656 393 b 693 344 671 364 685 357 b 739 272 710 326 739 303 b 726 249 739 260 735 251 b 708 258 718 244 713 251 b 697 310 697 274 697 293 z m 807 351 b 808 269 807 324 806 297 b 839 211 811 249 818 221 b 910 214 858 197 892 197 l 913 206 l 950 206 l 950 357 l 875 357 l 875 314 l 904 314 b 875 249 904 297 908 235 b 858 310 851 254 858 294 l 858 415 b 885 454 858 438 863 457 b 900 393 897 449 900 444 l 947 393 b 915 490 947 425 950 469 b 851 496 897 501 872 501 b 808 435 825 485 813 460 b 807 351 806 408 807 379 z m 960 168 l 1000 168 l 1083 533 l 1038 533 z m 972 -6 b 1006 -83 972 -33 964 -83 b 1031 -40 1029 -83 1031 -60 l 1018 -40 b 1017 -64 1018 -49 1019 -56 b 993 -67 1013 -72 997 -74 b 989 -26 988 -56 989 -35 b 993 14 989 -15 988 4 b 1017 11 997 21 1013 21 b 1018 -8 1019 4 1018 -4 l 1031 -8 b 1008 28 1031 8 1031 26 b 972 -6 983 32 972 15 z m 1046 -25 b 1076 -83 1046 -47 1039 -83 b 1108 -26 1108 -83 1108 -50 b 1078 28 1108 -4 1110 26 b 1046 -25 1046 32 1046 4 z m 1047 939 l 1076 939 l 1076 1040 b 1136 1053 1096 1040 1121 1038 b 1146 1133 1160 1071 1160 1108 b 1093 1158 1136 1156 1115 1158 l 1047 1158 z m 1050 772 b 1054 721 1050 751 1050 735 b 1129 692 1065 692 1104 679 b 1167 810 1175 706 1167 772 l 1167 910 l 1136 910 l 1136 828 l 1136 760 b 1096 710 1136 733 1128 701 b 1078 763 1076 721 1078 744 l 1078 910 l 1050 910 z m 1058 -15 l 1058 -1 b 1082 15 1058 11 1067 22 b 1090 -31 1093 11 1090 -18 b 1067 -68 1090 -46 1093 -82 b 1058 -15 1054 -64 1058 -28 z m 1076 1063 l 1076 1135 b 1108 1133 1086 1135 1097 1138 b 1126 1096 1126 1129 1126 1111 b 1108 1065 1126 1082 1124 1069 b 1076 1063 1097 1063 1086 1063 z m 1086 57 l 1104 57 l 1104 110 l 1124 110 l 1124 118 l 1104 118 l 1104 157 l 1129 157 l 1129 168 l 1086 168 z m 1093 203 l 1139 203 l 1139 322 l 1163 203 l 1196 203 l 1219 325 l 1221 203 l 1265 203 l 1264 494 l 1213 494 l 1179 311 l 1144 494 l 1100 494 z m 1121 -82 l 1135 -82 l 1135 -1 l 1153 -82 l 1165 -82 l 1182 -1 l 1182 -82 l 1193 -82 l 1193 28 l 1176 28 l 1160 -60 l 1139 28 l 1121 28 z m 1139 115 b 1171 56 1139 90 1136 56 b 1200 111 1200 56 1200 88 b 1171 169 1200 133 1203 165 b 1139 115 1139 169 1139 142 z m 1154 118 l 1154 136 b 1176 156 1154 150 1165 164 b 1185 108 1189 150 1185 118 b 1165 67 1185 90 1185 63 b 1154 118 1147 74 1154 110 z m 1176 939 l 1261 939 l 1261 961 l 1206 961 l 1206 1040 l 1251 1040 l 1251 1063 l 1206 1063 l 1206 1135 l 1260 1135 l 1260 1158 l 1176 1158 z m 1189 751 b 1249 689 1193 717 1213 689 b 1299 754 1285 689 1307 721 b 1256 814 1296 783 1274 796 b 1222 868 1238 828 1213 844 b 1249 883 1224 879 1233 889 b 1272 846 1267 881 1271 861 l 1296 853 b 1278 901 1296 872 1292 890 b 1225 910 1261 910 1240 913 b 1200 826 1189 899 1182 853 b 1242 785 1208 810 1231 796 b 1267 761 1256 779 1260 768 b 1263 718 1274 749 1278 728 b 1231 721 1256 707 1239 710 b 1219 760 1222 729 1222 744 z m 1213 -82 l 1225 -82 l 1228 -1 l 1242 -82 l 1256 -82 l 1272 -1 l 1274 -82 l 1285 -82 l 1282 28 l 1267 28 l 1249 -60 l 1231 28 l 1213 28 z m 1217 57 l 1231 57 l 1231 110 l 1242 110 l 1258 57 l 1274 57 l 1258 111 b 1258 165 1278 118 1274 156 b 1217 168 1246 169 1231 168 z m 1228 524 l 1242 524 l 1242 578 b 1274 583 1256 578 1263 575 b 1278 625 1282 592 1282 613 b 1228 639 1268 643 1242 639 z m 1231 118 l 1231 157 b 1258 139 1246 157 1258 156 b 1231 118 1258 121 1244 118 z m 1242 586 l 1242 629 b 1267 611 1258 629 1267 629 b 1258 588 1267 601 1267 593 b 1242 586 1256 586 1247 586 z m 1285 939 l 1318 939 l 1318 1042 l 1340 1042 l 1371 939 l 1397 939 l 1371 1049 b 1371 1149 1406 1063 1403 1131 b 1285 1158 1347 1161 1314 1158 z m 1290 308 b 1292 264 1290 294 1290 281 b 1333 206 1293 240 1307 215 b 1399 213 1354 200 1379 200 b 1428 308 1431 231 1428 275 l 1428 392 b 1399 488 1428 422 1431 468 b 1333 494 1379 499 1354 499 b 1292 432 1307 485 1293 458 b 1290 389 1290 418 1290 403 z m 1296 524 l 1336 524 l 1336 536 l 1307 536 l 1307 639 l 1296 639 z m 1303 -82 l 1347 -82 l 1347 -72 l 1319 -72 l 1319 -28 l 1342 -28 l 1342 -15 l 1319 -15 l 1319 18 l 1347 18 l 1347 28 l 1303 28 z m 1310 157 l 1329 157 l 1329 57 l 1347 57 l 1347 157 l 1368 157 l 1368 168 l 1310 168 z m 1318 1063 l 1318 1135 b 1349 1132 1325 1135 1336 1138 b 1365 1103 1363 1128 1365 1114 b 1349 1065 1367 1086 1363 1072 b 1318 1063 1336 1063 1325 1063 z m 1325 692 l 1410 692 l 1410 710 l 1354 710 l 1354 790 l 1399 790 l 1399 814 l 1354 814 l 1354 883 l 1410 883 l 1410 910 l 1325 910 z m 1339 314 l 1339 383 b 1343 443 1339 400 1336 422 b 1365 453 1344 446 1356 453 b 1379 433 1374 449 1379 444 b 1381 392 1383 421 1381 406 l 1381 308 b 1379 264 1381 293 1383 278 b 1365 247 1379 253 1374 251 b 1343 257 1356 244 1344 251 b 1339 314 1336 275 1339 299 z m 1349 524 l 1390 524 l 1390 536 l 1363 536 l 1363 578 l 1385 578 l 1385 588 l 1363 588 l 1363 629 l 1390 629 l 1390 639 l 1349 639 z m 1357 -82 l 1375 -82 l 1375 -28 l 1388 -28 l 1400 -82 l 1414 -82 l 1399 -26 b 1400 25 1418 -18 1415 15 b 1357 28 1388 32 1374 28 z m 1375 -15 l 1375 18 b 1399 -1 1388 18 1399 15 b 1375 -15 1399 -15 1388 -15 z m 1375 57 l 1388 57 l 1388 110 l 1419 110 l 1419 57 l 1436 57 l 1436 168 l 1419 168 l 1419 118 l 1388 118 l 1388 168 l 1375 168 z m 1397 524 l 1411 524 l 1414 554 l 1439 554 l 1444 524 l 1461 524 l 1439 639 l 1421 639 z m 1415 563 l 1429 618 l 1439 563 z m 1415 1000 b 1476 939 1418 965 1439 939 b 1528 1004 1514 939 1535 969 b 1483 1063 1522 1028 1500 1046 b 1447 1118 1467 1076 1443 1093 b 1476 1138 1450 1131 1464 1138 b 1500 1096 1494 1132 1497 1111 l 1525 1104 b 1506 1149 1524 1119 1519 1142 b 1454 1156 1492 1160 1467 1161 b 1428 1074 1415 1147 1410 1104 b 1468 1033 1439 1058 1458 1046 b 1494 1008 1482 1024 1488 1015 b 1494 968 1501 997 1506 975 b 1458 969 1483 958 1467 960 b 1446 1008 1450 978 1447 992 z m 1429 -6 b 1458 -83 1429 -33 1418 -83 b 1486 -40 1483 -83 1486 -60 l 1469 -40 b 1468 -64 1469 -49 1474 -56 b 1447 -67 1467 -72 1454 -74 b 1443 -26 1439 -56 1443 -35 b 1447 14 1443 -15 1439 4 b 1468 11 1454 21 1467 21 b 1469 -8 1474 4 1469 -4 l 1486 -8 b 1464 28 1486 8 1483 26 b 1429 -6 1439 32 1429 15 z m 1451 57 l 1494 57 l 1494 65 l 1467 65 l 1467 110 l 1489 110 l 1489 118 l 1467 118 l 1467 157 l 1494 157 l 1494 168 l 1451 168 z m 1453 203 l 1497 203 l 1497 346 l 1547 203 l 1585 203 l 1585 494 l 1538 494 l 1538 354 l 1488 494 l 1453 494 z m 1467 554 b 1497 524 1468 539 1481 524 b 1524 561 1518 524 1528 542 b 1497 588 1522 574 1507 581 b 1483 618 1489 596 1481 607 b 1510 607 1486 632 1500 638 l 1524 608 b 1507 638 1524 618 1518 632 b 1476 633 1497 640 1483 639 b 1483 585 1461 618 1468 596 b 1510 550 1492 575 1510 563 b 1492 536 1510 539 1501 535 b 1483 561 1483 539 1483 553 z m 1492 779 b 1494 733 1492 763 1492 749 b 1553 689 1497 704 1522 689 b 1607 732 1583 689 1603 703 b 1610 785 1614 749 1610 765 b 1604 879 1610 813 1615 850 b 1547 910 1597 901 1575 910 b 1494 872 1524 910 1501 899 b 1492 779 1488 844 1492 810 z m 1501 -82 l 1518 -82 l 1518 28 l 1501 28 z m 1524 760 l 1524 796 b 1524 867 1524 819 1519 846 b 1546 883 1528 879 1532 883 b 1572 879 1553 889 1563 883 b 1581 844 1583 869 1581 857 l 1581 765 b 1581 742 1581 760 1583 749 b 1563 714 1581 732 1575 721 b 1535 714 1556 710 1546 710 b 1524 760 1522 721 1524 742 z m 1528 -82 l 1546 -82 l 1551 -53 l 1575 -53 l 1581 -82 l 1594 -82 l 1568 28 l 1553 28 z m 1535 524 l 1583 524 l 1583 536 l 1553 536 l 1553 578 l 1575 578 l 1575 588 l 1553 588 l 1553 629 l 1581 629 l 1581 639 l 1535 639 z m 1542 57 l 1553 57 l 1553 110 l 1575 110 l 1575 118 l 1553 118 l 1553 157 l 1583 157 l 1583 168 l 1542 168 z m 1553 -44 l 1563 8 l 1572 -44 z m 1581 1006 l 1581 1046 b 1583 1114 1581 1067 1575 1096 b 1603 1135 1586 1128 1592 1133 b 1628 1128 1614 1138 1619 1138 b 1638 1090 1638 1118 1638 1104 l 1638 992 b 1621 963 1638 982 1635 969 b 1597 963 1615 960 1603 960 b 1581 1006 1581 971 1581 992 z m 1594 83 b 1631 57 1597 63 1610 50 b 1650 117 1653 65 1650 99 l 1650 168 l 1638 168 l 1638 118 b 1619 65 1638 106 1643 65 b 1606 118 1601 65 1606 106 l 1606 168 l 1594 168 l 1594 110 b 1594 83 1594 101 1592 90 z m 1604 -82 l 1647 -82 l 1647 -72 l 1618 -72 l 1618 28 l 1604 28 z m 1610 203 l 1722 203 l 1722 253 l 1657 253 l 1657 329 l 1710 329 l 1710 382 l 1657 382 l 1657 444 l 1722 444 l 1722 494 l 1610 494 z m 1618 639 l 1643 524 l 1658 524 l 1682 639 l 1668 639 l 1650 554 l 1635 639 z m 1643 692 l 1665 692 l 1665 839 l 1731 692 l 1751 692 l 1751 910 l 1724 910 l 1724 763 l 1663 910 l 1643 910 z m 1668 57 l 1710 57 l 1710 65 l 1685 65 l 1685 168 l 1668 168 z m 1686 28 l 1710 -82 l 1722 -82 l 1747 28 l 1733 28 l 1715 -53 l 1700 28 z m 1694 524 l 1710 524 l 1710 639 l 1694 639 z m 1700 939 l 1724 939 l 1724 1086 l 1786 939 l 1806 939 l 1806 1158 l 1778 1158 l 1778 1013 l 1717 1158 l 1700 1158 z m 1722 57 l 1764 57 l 1764 65 l 1738 65 l 1738 168 l 1722 168 z m 1725 554 b 1756 524 1728 539 1733 524 b 1778 561 1774 524 1785 542 b 1757 588 1778 574 1764 583 b 1742 618 1749 596 1735 606 b 1764 607 1747 632 1763 638 l 1778 608 b 1764 638 1778 618 1774 632 b 1733 633 1757 640 1743 639 b 1739 585 1715 618 1728 596 b 1764 550 1751 575 1767 563 b 1751 536 1764 539 1760 535 b 1739 561 1743 539 1739 553 z m 1735 494 l 1779 328 l 1779 203 l 1826 203 l 1826 321 l 1876 494 l 1825 494 l 1804 378 l 1785 494 z m 1760 -82 l 1804 -82 l 1804 -72 l 1775 -72 l 1775 -28 l 1799 -28 l 1799 -15 l 1775 -15 l 1775 18 l 1804 18 l 1804 28 l 1760 28 z m 1785 692 l 1867 692 l 1867 710 l 1814 710 l 1814 910 l 1785 910 z m 1793 524 l 1810 524 l 1810 639 l 1793 639 z m 1804 57 l 1817 57 l 1824 83 l 1846 83 l 1850 57 l 1867 57 l 1842 168 l 1824 168 z m 1815 -82 l 1831 -82 l 1831 -28 l 1842 -28 l 1856 -82 l 1872 -82 l 1854 -26 b 1858 25 1875 -19 1875 15 b 1815 28 1846 32 1829 28 z m 1819 629 l 1842 629 l 1842 524 l 1853 524 l 1853 629 l 1872 629 l 1872 639 l 1819 639 z m 1824 96 l 1833 146 l 1843 96 z m 1826 939 l 1854 939 l 1867 992 l 1911 992 l 1922 939 l 1950 939 l 1904 1158 l 1875 1158 z m 1831 -15 l 1831 18 b 1854 -1 1846 18 1854 15 b 1831 -15 1854 -15 1846 -15 z m 1871 1015 l 1890 1114 l 1908 1015 z m 1878 57 l 1893 57 l 1893 132 l 1922 57 l 1933 57 l 1933 168 l 1918 168 l 1918 94 l 1886 168 l 1878 168 z m 1878 910 l 1908 810 b 1922 768 1914 796 1918 785 b 1922 735 1924 760 1922 744 l 1922 692 l 1953 692 l 1953 743 b 1956 772 1953 751 1950 763 l 1971 817 b 2000 910 1979 849 1990 879 l 1971 910 l 1938 803 l 1904 910 z m 1883 -50 b 1914 -83 1885 -68 1894 -83 b 1938 -49 1935 -83 1943 -67 b 1915 -15 1938 -33 1924 -26 b 1900 11 1908 -8 1894 -1 b 1917 18 1904 18 1910 21 b 1926 -4 1924 15 1924 4 l 1938 3 b 1924 26 1938 14 1935 22 b 1893 22 1915 32 1904 31 b 1899 -25 1878 14 1885 -11 b 1926 -57 1908 -31 1926 -44 b 1908 -68 1926 -67 1918 -74 b 1899 -47 1900 -67 1899 -53 z m 1889 203 l 1935 203 l 1935 322 l 1957 203 l 1992 203 l 2014 325 l 2017 203 l 2060 203 l 2058 494 l 2007 494 l 1974 311 l 1940 494 l 1894 494 z m 1950 57 b 1994 64 1963 57 1983 54 b 2006 111 2010 72 2006 96 b 2000 160 2006 128 2010 150 b 1950 168 1985 169 1963 168 z m 1953 -82 l 1967 -82 l 1967 28 l 1953 28 z m 1967 65 l 1967 157 b 1992 139 1979 157 1990 157 l 1992 83 b 1967 65 1986 65 1976 65 z m 1972 939 l 2058 939 l 2058 961 l 2003 961 l 2003 1158 l 1972 1158 z m 1983 -25 b 2015 -83 1983 -47 1981 -83 b 2046 -26 2047 -83 2046 -50 b 2018 28 2046 -4 2050 26 b 1983 -25 1983 32 1983 4 z m 2003 -15 l 2003 -1 b 2025 15 2003 11 2007 22 b 2031 -31 2035 11 2031 -18 b 2007 -68 2031 -46 2032 -82 b 2003 -15 1994 -64 2003 -28 z m 2015 692 l 2046 692 l 2046 721 l 2015 721 z m 2015 910 l 2025 736 l 2035 736 l 2046 910 z m 2061 -82 l 2071 -82 l 2071 -6 l 2106 -82 l 2118 -82 l 2118 28 l 2106 28 l 2106 -46 l 2071 28 l 2061 28 z m 2067 203 l 2117 203 l 2126 272 l 2157 272 l 2167 203 l 2215 203 l 2165 494 l 2119 494 z m 2133 314 l 2140 372 l 2149 314 z m 2221 261 b 2281 200 2221 226 2251 203 b 2314 206 2292 199 2304 200 b 2351 299 2347 221 2351 263 l 2306 301 b 2286 244 2306 282 2308 249 b 2269 263 2279 243 2269 249 l 2269 433 b 2286 453 2269 449 2279 454 b 2306 397 2308 449 2306 415 l 2351 400 b 2314 492 2351 433 2347 476 b 2281 497 2304 497 2292 499 b 2221 436 2251 494 2221 472 z m 2376 203 l 2428 203 l 2428 326 l 2471 326 l 2471 203 l 2518 203 l 2518 494 l 2471 494 l 2471 378 l 2428 378 l 2428 494 l 2376 494 z m 2543 203 l 2593 203 l 2593 494 l 2543 494 z m 2618 203 l 2663 203 l 2663 346 l 2713 203 l 2750 203 l 2750 494 l 2703 494 l 2703 354 l 2653 494 l 2618 494 z m 2774 203 l 2888 203 l 2888 253 l 2822 253 l 2822 329 l 2875 329 l 2875 382 l 2822 382 l 2822 444 l 2888 444 l 2888 494 l 2774 494 z "},"2":{"ha":3090,"x_min":0,"x_max":0,"o":"m 1607 939 b 1665 982 1638 939 1658 950 b 1668 1032 1668 997 1668 1015 b 1663 1128 1668 1063 1674 1100 b 1604 1160 1654 1151 1628 1160 b 1553 1119 1581 1158 1557 1147 b 1549 1025 1546 1093 1549 1057 b 1551 985 1549 1013 1549 999 b 1607 939 1556 953 1575 939 z m 211 206 l 254 206 l 257 324 l 281 206 l 315 206 l 335 326 l 340 206 l 381 206 l 381 496 l 331 496 l 297 314 l 261 496 l 215 496 z m 419 206 l 465 206 l 465 347 l 515 206 l 551 206 l 551 496 l 506 496 l 506 357 l 456 496 l 419 496 z m 585 206 l 633 206 l 633 258 l 585 258 z m 651 307 b 664 236 651 282 656 258 b 733 201 675 210 706 197 b 785 260 765 210 783 235 b 750 357 789 297 778 331 l 728 383 b 700 417 718 393 706 400 b 721 454 696 428 697 456 b 739 399 739 451 735 417 l 783 400 b 746 493 783 435 779 478 b 656 443 704 513 657 485 b 667 375 650 418 656 393 b 693 344 671 364 685 357 b 739 272 710 326 739 303 b 726 249 739 260 735 251 b 708 258 718 244 713 251 b 697 310 697 274 697 293 z m 807 351 b 808 269 807 324 806 297 b 839 211 811 249 818 221 b 910 214 858 197 892 197 l 913 206 l 950 206 l 950 357 l 875 357 l 875 314 l 904 314 b 875 249 904 297 908 235 b 858 310 851 254 858 294 l 858 415 b 885 454 858 438 863 457 b 900 393 897 449 900 444 l 947 393 b 915 490 947 425 950 469 b 851 496 897 501 872 501 b 808 435 825 485 813 460 b 807 351 806 408 807 379 z m 960 168 l 1000 168 l 1083 533 l 1038 533 z m 972 -6 b 1006 -83 972 -33 964 -83 b 1031 -40 1029 -83 1031 -60 l 1018 -40 b 1017 -64 1018 -49 1019 -56 b 993 -67 1013 -72 997 -74 b 989 -26 988 -56 989 -35 b 993 14 989 -15 988 4 b 1017 11 997 21 1013 21 b 1018 -8 1019 4 1018 -4 l 1031 -8 b 1008 28 1031 8 1031 26 b 972 -6 983 32 972 15 z m 1046 -25 b 1076 -83 1046 -47 1039 -83 b 1108 -26 1108 -83 1108 -50 b 1078 28 1108 -4 1110 26 b 1046 -25 1046 32 1046 4 z m 1047 939 l 1076 939 l 1076 1040 b 1136 1053 1096 1040 1121 1038 b 1146 1133 1160 1071 1160 1108 b 1093 1158 1136 1156 1115 1158 l 1047 1158 z m 1050 772 b 1054 721 1050 751 1050 735 b 1129 692 1065 692 1104 679 b 1167 810 1175 706 1167 772 l 1167 910 l 1136 910 l 1136 828 l 1136 760 b 1096 710 1136 733 1128 701 b 1078 763 1076 721 1078 744 l 1078 910 l 1050 910 z m 1058 -15 l 1058 -1 b 1082 15 1058 11 1067 22 b 1090 -31 1093 11 1090 -18 b 1067 -68 1090 -46 1093 -82 b 1058 -15 1054 -64 1058 -28 z m 1076 1063 l 1076 1135 b 1108 1133 1086 1135 1097 1138 b 1126 1096 1126 1129 1126 1111 b 1108 1065 1126 1082 1124 1069 b 1076 1063 1097 1063 1086 1063 z m 1086 57 l 1104 57 l 1104 110 l 1124 110 l 1124 118 l 1104 118 l 1104 157 l 1129 157 l 1129 168 l 1086 168 z m 1093 203 l 1139 203 l 1139 322 l 1163 203 l 1196 203 l 1219 325 l 1221 203 l 1265 203 l 1264 494 l 1213 494 l 1179 311 l 1144 494 l 1100 494 z m 1121 -82 l 1135 -82 l 1135 -1 l 1153 -82 l 1165 -82 l 1182 -1 l 1182 -82 l 1193 -82 l 1193 28 l 1176 28 l 1160 -60 l 1139 28 l 1121 28 z m 1139 115 b 1171 56 1139 90 1136 56 b 1200 111 1200 56 1200 88 b 1171 169 1200 133 1203 165 b 1139 115 1139 169 1139 142 z m 1154 118 l 1154 136 b 1176 156 1154 150 1165 164 b 1185 108 1189 150 1185 118 b 1165 67 1185 90 1185 63 b 1154 118 1147 74 1154 110 z m 1176 939 l 1261 939 l 1261 961 l 1206 961 l 1206 1040 l 1251 1040 l 1251 1063 l 1206 1063 l 1206 1135 l 1260 1135 l 1260 1158 l 1176 1158 z m 1189 751 b 1249 689 1193 717 1213 689 b 1299 754 1285 689 1307 721 b 1256 814 1296 783 1274 796 b 1222 868 1238 828 1213 844 b 1249 883 1224 879 1233 889 b 1272 846 1267 881 1271 861 l 1296 853 b 1278 901 1296 872 1292 890 b 1225 910 1261 910 1240 913 b 1200 826 1189 899 1182 853 b 1242 785 1208 810 1231 796 b 1267 761 1256 779 1260 768 b 1263 718 1274 749 1278 728 b 1231 721 1256 707 1239 710 b 1219 760 1222 729 1222 744 z m 1213 -82 l 1225 -82 l 1228 -1 l 1242 -82 l 1256 -82 l 1272 -1 l 1274 -82 l 1285 -82 l 1282 28 l 1267 28 l 1249 -60 l 1231 28 l 1213 28 z m 1217 57 l 1231 57 l 1231 110 l 1242 110 l 1258 57 l 1274 57 l 1258 111 b 1258 165 1278 118 1274 156 b 1217 168 1246 169 1231 168 z m 1228 524 l 1242 524 l 1242 578 b 1274 583 1256 578 1263 575 b 1278 625 1282 592 1282 613 b 1228 639 1268 643 1242 639 z m 1231 118 l 1231 157 b 1258 139 1246 157 1258 156 b 1231 118 1258 121 1244 118 z m 1242 586 l 1242 629 b 1267 611 1258 629 1267 629 b 1258 588 1267 601 1267 593 b 1242 586 1256 586 1247 586 z m 1285 939 l 1318 939 l 1318 1042 l 1340 1042 l 1371 939 l 1397 939 l 1371 1049 b 1371 1149 1406 1063 1403 1131 b 1285 1158 1347 1161 1314 1158 z m 1290 308 b 1292 264 1290 294 1290 281 b 1333 206 1293 240 1307 215 b 1399 213 1354 200 1379 200 b 1428 308 1431 231 1428 275 l 1428 392 b 1399 488 1428 422 1431 468 b 1333 494 1379 499 1354 499 b 1292 432 1307 485 1293 458 b 1290 389 1290 418 1290 403 z m 1296 524 l 1336 524 l 1336 536 l 1307 536 l 1307 639 l 1296 639 z m 1303 -82 l 1347 -82 l 1347 -72 l 1319 -72 l 1319 -28 l 1342 -28 l 1342 -15 l 1319 -15 l 1319 18 l 1347 18 l 1347 28 l 1303 28 z m 1310 157 l 1329 157 l 1329 57 l 1347 57 l 1347 157 l 1368 157 l 1368 168 l 1310 168 z m 1318 1063 l 1318 1135 b 1349 1132 1325 1135 1336 1138 b 1365 1103 1363 1128 1365 1114 b 1349 1065 1367 1086 1363 1072 b 1318 1063 1336 1063 1325 1063 z m 1325 692 l 1410 692 l 1410 710 l 1354 710 l 1354 790 l 1399 790 l 1399 814 l 1354 814 l 1354 883 l 1410 883 l 1410 910 l 1325 910 z m 1339 314 l 1339 383 b 1343 443 1339 400 1336 422 b 1365 453 1344 446 1356 453 b 1379 433 1374 449 1379 444 b 1381 392 1383 421 1381 406 l 1381 308 b 1379 264 1381 293 1383 278 b 1365 247 1379 253 1374 251 b 1343 257 1356 244 1344 251 b 1339 314 1336 275 1339 299 z m 1349 524 l 1390 524 l 1390 536 l 1363 536 l 1363 578 l 1385 578 l 1385 588 l 1363 588 l 1363 629 l 1390 629 l 1390 639 l 1349 639 z m 1357 -82 l 1375 -82 l 1375 -28 l 1388 -28 l 1400 -82 l 1414 -82 l 1399 -26 b 1400 25 1418 -18 1415 15 b 1357 28 1388 32 1374 28 z m 1375 -15 l 1375 18 b 1399 -1 1388 18 1399 15 b 1375 -15 1399 -15 1388 -15 z m 1375 57 l 1388 57 l 1388 110 l 1419 110 l 1419 57 l 1436 57 l 1436 168 l 1419 168 l 1419 118 l 1388 118 l 1388 168 l 1375 168 z m 1397 524 l 1411 524 l 1414 554 l 1439 554 l 1444 524 l 1461 524 l 1439 639 l 1421 639 z m 1415 563 l 1429 618 l 1439 563 z m 1415 1000 b 1476 939 1418 965 1439 939 b 1528 1004 1514 939 1535 969 b 1483 1063 1522 1028 1500 1046 b 1447 1118 1467 1076 1443 1093 b 1476 1138 1450 1131 1464 1138 b 1500 1096 1494 1132 1497 1111 l 1525 1104 b 1506 1149 1524 1119 1519 1142 b 1454 1156 1492 1160 1467 1161 b 1428 1074 1415 1147 1410 1104 b 1468 1033 1439 1058 1458 1046 b 1494 1008 1482 1024 1488 1015 b 1494 968 1501 997 1506 975 b 1458 969 1483 958 1467 960 b 1446 1008 1450 978 1447 992 z m 1429 -6 b 1458 -83 1429 -33 1418 -83 b 1486 -40 1483 -83 1486 -60 l 1469 -40 b 1468 -64 1469 -49 1474 -56 b 1447 -67 1467 -72 1454 -74 b 1443 -26 1439 -56 1443 -35 b 1447 14 1443 -15 1439 4 b 1468 11 1454 21 1467 21 b 1469 -8 1474 4 1469 -4 l 1486 -8 b 1464 28 1486 8 1483 26 b 1429 -6 1439 32 1429 15 z m 1451 57 l 1494 57 l 1494 65 l 1467 65 l 1467 110 l 1489 110 l 1489 118 l 1467 118 l 1467 157 l 1494 157 l 1494 168 l 1451 168 z m 1453 203 l 1497 203 l 1497 346 l 1547 203 l 1585 203 l 1585 494 l 1538 494 l 1538 354 l 1488 494 l 1453 494 z m 1467 554 b 1497 524 1468 539 1481 524 b 1524 561 1518 524 1528 542 b 1497 588 1522 574 1507 581 b 1483 618 1489 596 1481 607 b 1510 607 1486 632 1500 638 l 1524 608 b 1507 638 1524 618 1518 632 b 1476 633 1497 640 1483 639 b 1483 585 1461 618 1468 596 b 1510 550 1492 575 1510 563 b 1492 536 1510 539 1501 535 b 1483 561 1483 539 1483 553 z m 1492 779 b 1494 733 1492 763 1492 749 b 1553 689 1497 704 1522 689 b 1607 732 1583 689 1603 703 b 1610 785 1614 749 1610 765 b 1604 879 1610 813 1615 850 b 1547 910 1597 901 1575 910 b 1494 872 1524 910 1501 899 b 1492 779 1488 844 1492 810 z m 1501 -82 l 1518 -82 l 1518 28 l 1501 28 z m 1524 760 l 1524 796 b 1524 867 1524 819 1519 846 b 1546 883 1528 879 1532 883 b 1572 879 1553 889 1563 883 b 1581 844 1583 869 1581 857 l 1581 765 b 1581 742 1581 760 1583 749 b 1563 714 1581 732 1575 721 b 1535 714 1556 710 1546 710 b 1524 760 1522 721 1524 742 z m 1528 -82 l 1546 -82 l 1551 -53 l 1575 -53 l 1581 -82 l 1594 -82 l 1568 28 l 1553 28 z m 1535 524 l 1583 524 l 1583 536 l 1553 536 l 1553 578 l 1575 578 l 1575 588 l 1553 588 l 1553 629 l 1581 629 l 1581 639 l 1535 639 z m 1542 57 l 1553 57 l 1553 110 l 1575 110 l 1575 118 l 1553 118 l 1553 157 l 1583 157 l 1583 168 l 1542 168 z m 1553 -44 l 1563 8 l 1572 -44 z m 1581 1006 l 1581 1046 b 1583 1114 1581 1067 1575 1096 b 1603 1135 1586 1128 1592 1133 b 1628 1128 1614 1138 1619 1138 b 1638 1090 1638 1118 1638 1104 l 1638 992 b 1621 963 1638 982 1635 969 b 1597 963 1615 960 1603 960 b 1581 1006 1581 971 1581 992 z m 1594 83 b 1631 57 1597 63 1610 50 b 1650 117 1653 65 1650 99 l 1650 168 l 1638 168 l 1638 118 b 1619 65 1638 106 1643 65 b 1606 118 1601 65 1606 106 l 1606 168 l 1594 168 l 1594 110 b 1594 83 1594 101 1592 90 z m 1604 -82 l 1647 -82 l 1647 -72 l 1618 -72 l 1618 28 l 1604 28 z m 1610 203 l 1722 203 l 1722 253 l 1657 253 l 1657 329 l 1710 329 l 1710 382 l 1657 382 l 1657 444 l 1722 444 l 1722 494 l 1610 494 z m 1618 639 l 1643 524 l 1658 524 l 1682 639 l 1668 639 l 1650 554 l 1635 639 z m 1643 692 l 1665 692 l 1665 839 l 1731 692 l 1751 692 l 1751 910 l 1724 910 l 1724 763 l 1663 910 l 1643 910 z m 1668 57 l 1710 57 l 1710 65 l 1685 65 l 1685 168 l 1668 168 z m 1686 28 l 1710 -82 l 1722 -82 l 1747 28 l 1733 28 l 1715 -53 l 1700 28 z m 1694 524 l 1710 524 l 1710 639 l 1694 639 z m 1700 939 l 1724 939 l 1724 1086 l 1786 939 l 1806 939 l 1806 1158 l 1778 1158 l 1778 1013 l 1717 1158 l 1700 1158 z m 1722 57 l 1764 57 l 1764 65 l 1738 65 l 1738 168 l 1722 168 z m 1725 554 b 1756 524 1728 539 1733 524 b 1778 561 1774 524 1785 542 b 1757 588 1778 574 1764 583 b 1742 618 1749 596 1735 606 b 1764 607 1747 632 1763 638 l 1778 608 b 1764 638 1778 618 1774 632 b 1733 633 1757 640 1743 639 b 1739 585 1715 618 1728 596 b 1764 550 1751 575 1767 563 b 1751 536 1764 539 1760 535 b 1739 561 1743 539 1739 553 z m 1735 494 l 1779 328 l 1779 203 l 1826 203 l 1826 321 l 1876 494 l 1825 494 l 1804 378 l 1785 494 z m 1760 -82 l 1804 -82 l 1804 -72 l 1775 -72 l 1775 -28 l 1799 -28 l 1799 -15 l 1775 -15 l 1775 18 l 1804 18 l 1804 28 l 1760 28 z m 1785 692 l 1867 692 l 1867 710 l 1814 710 l 1814 910 l 1785 910 z m 1793 524 l 1810 524 l 1810 639 l 1793 639 z m 1804 57 l 1817 57 l 1824 83 l 1846 83 l 1850 57 l 1867 57 l 1842 168 l 1824 168 z m 1815 -82 l 1831 -82 l 1831 -28 l 1842 -28 l 1856 -82 l 1872 -82 l 1854 -26 b 1858 25 1875 -19 1875 15 b 1815 28 1846 32 1829 28 z m 1819 629 l 1842 629 l 1842 524 l 1853 524 l 1853 629 l 1872 629 l 1872 639 l 1819 639 z m 1824 96 l 1833 146 l 1843 96 z m 1826 939 l 1854 939 l 1867 992 l 1911 992 l 1922 939 l 1950 939 l 1904 1158 l 1875 1158 z m 1831 -15 l 1831 18 b 1854 -1 1846 18 1854 15 b 1831 -15 1854 -15 1846 -15 z m 1871 1015 l 1890 1114 l 1908 1015 z m 1878 57 l 1893 57 l 1893 132 l 1922 57 l 1933 57 l 1933 168 l 1918 168 l 1918 94 l 1886 168 l 1878 168 z m 1878 910 l 1908 810 b 1922 768 1914 796 1918 785 b 1922 735 1924 760 1922 744 l 1922 692 l 1953 692 l 1953 743 b 1956 772 1953 751 1950 763 l 1971 817 b 2000 910 1979 849 1990 879 l 1971 910 l 1938 803 l 1904 910 z m 1883 -50 b 1914 -83 1885 -68 1894 -83 b 1938 -49 1935 -83 1943 -67 b 1915 -15 1938 -33 1924 -26 b 1900 11 1908 -8 1894 -1 b 1917 18 1904 18 1910 21 b 1926 -4 1924 15 1924 4 l 1938 3 b 1924 26 1938 14 1935 22 b 1893 22 1915 32 1904 31 b 1899 -25 1878 14 1885 -11 b 1926 -57 1908 -31 1926 -44 b 1908 -68 1926 -67 1918 -74 b 1899 -47 1900 -67 1899 -53 z m 1889 203 l 1935 203 l 1935 322 l 1957 203 l 1992 203 l 2014 325 l 2017 203 l 2060 203 l 2058 494 l 2007 494 l 1974 311 l 1940 494 l 1894 494 z m 1950 57 b 1994 64 1963 57 1983 54 b 2006 111 2010 72 2006 96 b 2000 160 2006 128 2010 150 b 1950 168 1985 169 1963 168 z m 1953 -82 l 1967 -82 l 1967 28 l 1953 28 z m 1967 65 l 1967 157 b 1992 139 1979 157 1990 157 l 1992 83 b 1967 65 1986 65 1976 65 z m 1972 939 l 2058 939 l 2058 961 l 2003 961 l 2003 1158 l 1972 1158 z m 1983 -25 b 2015 -83 1983 -47 1981 -83 b 2046 -26 2047 -83 2046 -50 b 2018 28 2046 -4 2050 26 b 1983 -25 1983 32 1983 4 z m 2003 -15 l 2003 -1 b 2025 15 2003 11 2007 22 b 2031 -31 2035 11 2031 -18 b 2007 -68 2031 -46 2032 -82 b 2003 -15 1994 -64 2003 -28 z m 2015 692 l 2046 692 l 2046 721 l 2015 721 z m 2015 910 l 2025 736 l 2035 736 l 2046 910 z m 2061 -82 l 2071 -82 l 2071 -6 l 2106 -82 l 2118 -82 l 2118 28 l 2106 28 l 2106 -46 l 2071 28 l 2061 28 z m 2067 203 l 2117 203 l 2126 272 l 2157 272 l 2167 203 l 2215 203 l 2165 494 l 2119 494 z m 2133 314 l 2140 372 l 2149 314 z m 2221 261 b 2281 200 2221 226 2251 203 b 2314 206 2292 199 2304 200 b 2351 299 2347 221 2351 263 l 2306 301 b 2286 244 2306 282 2308 249 b 2269 263 2279 243 2269 249 l 2269 433 b 2286 453 2269 449 2279 454 b 2306 397 2308 449 2306 415 l 2351 400 b 2314 492 2351 433 2347 476 b 2281 497 2304 497 2292 499 b 2221 436 2251 494 2221 472 z m 2376 203 l 2428 203 l 2428 326 l 2471 326 l 2471 203 l 2518 203 l 2518 494 l 2471 494 l 2471 378 l 2428 378 l 2428 494 l 2376 494 z m 2543 203 l 2593 203 l 2593 494 l 2543 494 z m 2618 203 l 2663 203 l 2663 346 l 2713 203 l 2750 203 l 2750 494 l 2703 494 l 2703 354 l 2653 494 l 2618 494 z m 2774 203 l 2888 203 l 2888 253 l 2822 253 l 2822 329 l 2875 329 l 2875 382 l 2822 382 l 2822 444 l 2888 444 l 2888 494 l 2774 494 z "},"3":{"ha":3090,"x_min":0,"x_max":0,"o":"m 1607 939 b 1665 982 1638 939 1658 950 b 1668 1032 1668 997 1668 1015 b 1663 1128 1668 1063 1674 1100 b 1604 1160 1654 1151 1628 1160 b 1553 1119 1581 1158 1557 1147 b 1549 1025 1546 1093 1549 1057 b 1551 985 1549 1013 1549 999 b 1607 939 1556 953 1575 939 z m 211 206 l 254 206 l 257 324 l 281 206 l 315 206 l 335 326 l 340 206 l 381 206 l 381 496 l 331 496 l 297 314 l 261 496 l 215 496 z m 419 206 l 465 206 l 465 347 l 515 206 l 551 206 l 551 496 l 506 496 l 506 357 l 456 496 l 419 496 z m 585 206 l 633 206 l 633 258 l 585 258 z m 651 307 b 664 236 651 282 656 258 b 733 201 675 210 706 197 b 785 260 765 210 783 235 b 750 357 789 297 778 331 l 728 383 b 700 417 718 393 706 400 b 721 454 696 428 697 456 b 739 399 739 451 735 417 l 783 400 b 746 493 783 435 779 478 b 656 443 704 513 657 485 b 667 375 650 418 656 393 b 693 344 671 364 685 357 b 739 272 710 326 739 303 b 726 249 739 260 735 251 b 708 258 718 244 713 251 b 697 310 697 274 697 293 z m 807 351 b 808 269 807 324 806 297 b 839 211 811 249 818 221 b 910 214 858 197 892 197 l 913 206 l 950 206 l 950 357 l 875 357 l 875 314 l 904 314 b 875 249 904 297 908 235 b 858 310 851 254 858 294 l 858 415 b 885 454 858 438 863 457 b 900 393 897 449 900 444 l 947 393 b 915 490 947 425 950 469 b 851 496 897 501 872 501 b 808 435 825 485 813 460 b 807 351 806 408 807 379 z m 960 168 l 1000 168 l 1083 533 l 1038 533 z m 972 -6 b 1006 -83 972 -33 964 -83 b 1031 -40 1029 -83 1031 -60 l 1018 -40 b 1017 -64 1018 -49 1019 -56 b 993 -67 1013 -72 997 -74 b 989 -26 988 -56 989 -35 b 993 14 989 -15 988 4 b 1017 11 997 21 1013 21 b 1018 -8 1019 4 1018 -4 l 1031 -8 b 1008 28 1031 8 1031 26 b 972 -6 983 32 972 15 z m 1046 -25 b 1076 -83 1046 -47 1039 -83 b 1108 -26 1108 -83 1108 -50 b 1078 28 1108 -4 1110 26 b 1046 -25 1046 32 1046 4 z m 1047 939 l 1076 939 l 1076 1040 b 1136 1053 1096 1040 1121 1038 b 1146 1133 1160 1071 1160 1108 b 1093 1158 1136 1156 1115 1158 l 1047 1158 z m 1050 772 b 1054 721 1050 751 1050 735 b 1129 692 1065 692 1104 679 b 1167 810 1175 706 1167 772 l 1167 910 l 1136 910 l 1136 828 l 1136 760 b 1096 710 1136 733 1128 701 b 1078 763 1076 721 1078 744 l 1078 910 l 1050 910 z m 1058 -15 l 1058 -1 b 1082 15 1058 11 1067 22 b 1090 -31 1093 11 1090 -18 b 1067 -68 1090 -46 1093 -82 b 1058 -15 1054 -64 1058 -28 z m 1076 1063 l 1076 1135 b 1108 1133 1086 1135 1097 1138 b 1126 1096 1126 1129 1126 1111 b 1108 1065 1126 1082 1124 1069 b 1076 1063 1097 1063 1086 1063 z m 1086 57 l 1104 57 l 1104 110 l 1124 110 l 1124 118 l 1104 118 l 1104 157 l 1129 157 l 1129 168 l 1086 168 z m 1093 203 l 1139 203 l 1139 322 l 1163 203 l 1196 203 l 1219 325 l 1221 203 l 1265 203 l 1264 494 l 1213 494 l 1179 311 l 1144 494 l 1100 494 z m 1121 -82 l 1135 -82 l 1135 -1 l 1153 -82 l 1165 -82 l 1182 -1 l 1182 -82 l 1193 -82 l 1193 28 l 1176 28 l 1160 -60 l 1139 28 l 1121 28 z m 1139 115 b 1171 56 1139 90 1136 56 b 1200 111 1200 56 1200 88 b 1171 169 1200 133 1203 165 b 1139 115 1139 169 1139 142 z m 1154 118 l 1154 136 b 1176 156 1154 150 1165 164 b 1185 108 1189 150 1185 118 b 1165 67 1185 90 1185 63 b 1154 118 1147 74 1154 110 z m 1176 939 l 1261 939 l 1261 961 l 1206 961 l 1206 1040 l 1251 1040 l 1251 1063 l 1206 1063 l 1206 1135 l 1260 1135 l 1260 1158 l 1176 1158 z m 1189 751 b 1249 689 1193 717 1213 689 b 1299 754 1285 689 1307 721 b 1256 814 1296 783 1274 796 b 1222 868 1238 828 1213 844 b 1249 883 1224 879 1233 889 b 1272 846 1267 881 1271 861 l 1296 853 b 1278 901 1296 872 1292 890 b 1225 910 1261 910 1240 913 b 1200 826 1189 899 1182 853 b 1242 785 1208 810 1231 796 b 1267 761 1256 779 1260 768 b 1263 718 1274 749 1278 728 b 1231 721 1256 707 1239 710 b 1219 760 1222 729 1222 744 z m 1213 -82 l 1225 -82 l 1228 -1 l 1242 -82 l 1256 -82 l 1272 -1 l 1274 -82 l 1285 -82 l 1282 28 l 1267 28 l 1249 -60 l 1231 28 l 1213 28 z m 1217 57 l 1231 57 l 1231 110 l 1242 110 l 1258 57 l 1274 57 l 1258 111 b 1258 165 1278 118 1274 156 b 1217 168 1246 169 1231 168 z m 1228 524 l 1242 524 l 1242 578 b 1274 583 1256 578 1263 575 b 1278 625 1282 592 1282 613 b 1228 639 1268 643 1242 639 z m 1231 118 l 1231 157 b 1258 139 1246 157 1258 156 b 1231 118 1258 121 1244 118 z m 1242 586 l 1242 629 b 1267 611 1258 629 1267 629 b 1258 588 1267 601 1267 593 b 1242 586 1256 586 1247 586 z m 1285 939 l 1318 939 l 1318 1042 l 1340 1042 l 1371 939 l 1397 939 l 1371 1049 b 1371 1149 1406 1063 1403 1131 b 1285 1158 1347 1161 1314 1158 z m 1290 308 b 1292 264 1290 294 1290 281 b 1333 206 1293 240 1307 215 b 1399 213 1354 200 1379 200 b 1428 308 1431 231 1428 275 l 1428 392 b 1399 488 1428 422 1431 468 b 1333 494 1379 499 1354 499 b 1292 432 1307 485 1293 458 b 1290 389 1290 418 1290 403 z m 1296 524 l 1336 524 l 1336 536 l 1307 536 l 1307 639 l 1296 639 z m 1303 -82 l 1347 -82 l 1347 -72 l 1319 -72 l 1319 -28 l 1342 -28 l 1342 -15 l 1319 -15 l 1319 18 l 1347 18 l 1347 28 l 1303 28 z m 1310 157 l 1329 157 l 1329 57 l 1347 57 l 1347 157 l 1368 157 l 1368 168 l 1310 168 z m 1318 1063 l 1318 1135 b 1349 1132 1325 1135 1336 1138 b 1365 1103 1363 1128 1365 1114 b 1349 1065 1367 1086 1363 1072 b 1318 1063 1336 1063 1325 1063 z m 1325 692 l 1410 692 l 1410 710 l 1354 710 l 1354 790 l 1399 790 l 1399 814 l 1354 814 l 1354 883 l 1410 883 l 1410 910 l 1325 910 z m 1339 314 l 1339 383 b 1343 443 1339 400 1336 422 b 1365 453 1344 446 1356 453 b 1379 433 1374 449 1379 444 b 1381 392 1383 421 1381 406 l 1381 308 b 1379 264 1381 293 1383 278 b 1365 247 1379 253 1374 251 b 1343 257 1356 244 1344 251 b 1339 314 1336 275 1339 299 z m 1349 524 l 1390 524 l 1390 536 l 1363 536 l 1363 578 l 1385 578 l 1385 588 l 1363 588 l 1363 629 l 1390 629 l 1390 639 l 1349 639 z m 1357 -82 l 1375 -82 l 1375 -28 l 1388 -28 l 1400 -82 l 1414 -82 l 1399 -26 b 1400 25 1418 -18 1415 15 b 1357 28 1388 32 1374 28 z m 1375 -15 l 1375 18 b 1399 -1 1388 18 1399 15 b 1375 -15 1399 -15 1388 -15 z m 1375 57 l 1388 57 l 1388 110 l 1419 110 l 1419 57 l 1436 57 l 1436 168 l 1419 168 l 1419 118 l 1388 118 l 1388 168 l 1375 168 z m 1397 524 l 1411 524 l 1414 554 l 1439 554 l 1444 524 l 1461 524 l 1439 639 l 1421 639 z m 1415 563 l 1429 618 l 1439 563 z m 1415 1000 b 1476 939 1418 965 1439 939 b 1528 1004 1514 939 1535 969 b 1483 1063 1522 1028 1500 1046 b 1447 1118 1467 1076 1443 1093 b 1476 1138 1450 1131 1464 1138 b 1500 1096 1494 1132 1497 1111 l 1525 1104 b 1506 1149 1524 1119 1519 1142 b 1454 1156 1492 1160 1467 1161 b 1428 1074 1415 1147 1410 1104 b 1468 1033 1439 1058 1458 1046 b 1494 1008 1482 1024 1488 1015 b 1494 968 1501 997 1506 975 b 1458 969 1483 958 1467 960 b 1446 1008 1450 978 1447 992 z m 1429 -6 b 1458 -83 1429 -33 1418 -83 b 1486 -40 1483 -83 1486 -60 l 1469 -40 b 1468 -64 1469 -49 1474 -56 b 1447 -67 1467 -72 1454 -74 b 1443 -26 1439 -56 1443 -35 b 1447 14 1443 -15 1439 4 b 1468 11 1454 21 1467 21 b 1469 -8 1474 4 1469 -4 l 1486 -8 b 1464 28 1486 8 1483 26 b 1429 -6 1439 32 1429 15 z m 1451 57 l 1494 57 l 1494 65 l 1467 65 l 1467 110 l 1489 110 l 1489 118 l 1467 118 l 1467 157 l 1494 157 l 1494 168 l 1451 168 z m 1453 203 l 1497 203 l 1497 346 l 1547 203 l 1585 203 l 1585 494 l 1538 494 l 1538 354 l 1488 494 l 1453 494 z m 1467 554 b 1497 524 1468 539 1481 524 b 1524 561 1518 524 1528 542 b 1497 588 1522 574 1507 581 b 1483 618 1489 596 1481 607 b 1510 607 1486 632 1500 638 l 1524 608 b 1507 638 1524 618 1518 632 b 1476 633 1497 640 1483 639 b 1483 585 1461 618 1468 596 b 1510 550 1492 575 1510 563 b 1492 536 1510 539 1501 535 b 1483 561 1483 539 1483 553 z m 1492 779 b 1494 733 1492 763 1492 749 b 1553 689 1497 704 1522 689 b 1607 732 1583 689 1603 703 b 1610 785 1614 749 1610 765 b 1604 879 1610 813 1615 850 b 1547 910 1597 901 1575 910 b 1494 872 1524 910 1501 899 b 1492 779 1488 844 1492 810 z m 1501 -82 l 1518 -82 l 1518 28 l 1501 28 z m 1524 760 l 1524 796 b 1524 867 1524 819 1519 846 b 1546 883 1528 879 1532 883 b 1572 879 1553 889 1563 883 b 1581 844 1583 869 1581 857 l 1581 765 b 1581 742 1581 760 1583 749 b 1563 714 1581 732 1575 721 b 1535 714 1556 710 1546 710 b 1524 760 1522 721 1524 742 z m 1528 -82 l 1546 -82 l 1551 -53 l 1575 -53 l 1581 -82 l 1594 -82 l 1568 28 l 1553 28 z m 1535 524 l 1583 524 l 1583 536 l 1553 536 l 1553 578 l 1575 578 l 1575 588 l 1553 588 l 1553 629 l 1581 629 l 1581 639 l 1535 639 z m 1542 57 l 1553 57 l 1553 110 l 1575 110 l 1575 118 l 1553 118 l 1553 157 l 1583 157 l 1583 168 l 1542 168 z m 1553 -44 l 1563 8 l 1572 -44 z m 1581 1006 l 1581 1046 b 1583 1114 1581 1067 1575 1096 b 1603 1135 1586 1128 1592 1133 b 1628 1128 1614 1138 1619 1138 b 1638 1090 1638 1118 1638 1104 l 1638 992 b 1621 963 1638 982 1635 969 b 1597 963 1615 960 1603 960 b 1581 1006 1581 971 1581 992 z m 1594 83 b 1631 57 1597 63 1610 50 b 1650 117 1653 65 1650 99 l 1650 168 l 1638 168 l 1638 118 b 1619 65 1638 106 1643 65 b 1606 118 1601 65 1606 106 l 1606 168 l 1594 168 l 1594 110 b 1594 83 1594 101 1592 90 z m 1604 -82 l 1647 -82 l 1647 -72 l 1618 -72 l 1618 28 l 1604 28 z m 1610 203 l 1722 203 l 1722 253 l 1657 253 l 1657 329 l 1710 329 l 1710 382 l 1657 382 l 1657 444 l 1722 444 l 1722 494 l 1610 494 z m 1618 639 l 1643 524 l 1658 524 l 1682 639 l 1668 639 l 1650 554 l 1635 639 z m 1643 692 l 1665 692 l 1665 839 l 1731 692 l 1751 692 l 1751 910 l 1724 910 l 1724 763 l 1663 910 l 1643 910 z m 1668 57 l 1710 57 l 1710 65 l 1685 65 l 1685 168 l 1668 168 z m 1686 28 l 1710 -82 l 1722 -82 l 1747 28 l 1733 28 l 1715 -53 l 1700 28 z m 1694 524 l 1710 524 l 1710 639 l 1694 639 z m 1700 939 l 1724 939 l 1724 1086 l 1786 939 l 1806 939 l 1806 1158 l 1778 1158 l 1778 1013 l 1717 1158 l 1700 1158 z m 1722 57 l 1764 57 l 1764 65 l 1738 65 l 1738 168 l 1722 168 z m 1725 554 b 1756 524 1728 539 1733 524 b 1778 561 1774 524 1785 542 b 1757 588 1778 574 1764 583 b 1742 618 1749 596 1735 606 b 1764 607 1747 632 1763 638 l 1778 608 b 1764 638 1778 618 1774 632 b 1733 633 1757 640 1743 639 b 1739 585 1715 618 1728 596 b 1764 550 1751 575 1767 563 b 1751 536 1764 539 1760 535 b 1739 561 1743 539 1739 553 z m 1735 494 l 1779 328 l 1779 203 l 1826 203 l 1826 321 l 1876 494 l 1825 494 l 1804 378 l 1785 494 z m 1760 -82 l 1804 -82 l 1804 -72 l 1775 -72 l 1775 -28 l 1799 -28 l 1799 -15 l 1775 -15 l 1775 18 l 1804 18 l 1804 28 l 1760 28 z m 1785 692 l 1867 692 l 1867 710 l 1814 710 l 1814 910 l 1785 910 z m 1793 524 l 1810 524 l 1810 639 l 1793 639 z m 1804 57 l 1817 57 l 1824 83 l 1846 83 l 1850 57 l 1867 57 l 1842 168 l 1824 168 z m 1815 -82 l 1831 -82 l 1831 -28 l 1842 -28 l 1856 -82 l 1872 -82 l 1854 -26 b 1858 25 1875 -19 1875 15 b 1815 28 1846 32 1829 28 z m 1819 629 l 1842 629 l 1842 524 l 1853 524 l 1853 629 l 1872 629 l 1872 639 l 1819 639 z m 1824 96 l 1833 146 l 1843 96 z m 1826 939 l 1854 939 l 1867 992 l 1911 992 l 1922 939 l 1950 939 l 1904 1158 l 1875 1158 z m 1831 -15 l 1831 18 b 1854 -1 1846 18 1854 15 b 1831 -15 1854 -15 1846 -15 z m 1871 1015 l 1890 1114 l 1908 1015 z m 1878 57 l 1893 57 l 1893 132 l 1922 57 l 1933 57 l 1933 168 l 1918 168 l 1918 94 l 1886 168 l 1878 168 z m 1878 910 l 1908 810 b 1922 768 1914 796 1918 785 b 1922 735 1924 760 1922 744 l 1922 692 l 1953 692 l 1953 743 b 1956 772 1953 751 1950 763 l 1971 817 b 2000 910 1979 849 1990 879 l 1971 910 l 1938 803 l 1904 910 z m 1883 -50 b 1914 -83 1885 -68 1894 -83 b 1938 -49 1935 -83 1943 -67 b 1915 -15 1938 -33 1924 -26 b 1900 11 1908 -8 1894 -1 b 1917 18 1904 18 1910 21 b 1926 -4 1924 15 1924 4 l 1938 3 b 1924 26 1938 14 1935 22 b 1893 22 1915 32 1904 31 b 1899 -25 1878 14 1885 -11 b 1926 -57 1908 -31 1926 -44 b 1908 -68 1926 -67 1918 -74 b 1899 -47 1900 -67 1899 -53 z m 1889 203 l 1935 203 l 1935 322 l 1957 203 l 1992 203 l 2014 325 l 2017 203 l 2060 203 l 2058 494 l 2007 494 l 1974 311 l 1940 494 l 1894 494 z m 1950 57 b 1994 64 1963 57 1983 54 b 2006 111 2010 72 2006 96 b 2000 160 2006 128 2010 150 b 1950 168 1985 169 1963 168 z m 1953 -82 l 1967 -82 l 1967 28 l 1953 28 z m 1967 65 l 1967 157 b 1992 139 1979 157 1990 157 l 1992 83 b 1967 65 1986 65 1976 65 z m 1972 939 l 2058 939 l 2058 961 l 2003 961 l 2003 1158 l 1972 1158 z m 1983 -25 b 2015 -83 1983 -47 1981 -83 b 2046 -26 2047 -83 2046 -50 b 2018 28 2046 -4 2050 26 b 1983 -25 1983 32 1983 4 z m 2003 -15 l 2003 -1 b 2025 15 2003 11 2007 22 b 2031 -31 2035 11 2031 -18 b 2007 -68 2031 -46 2032 -82 b 2003 -15 1994 -64 2003 -28 z m 2015 692 l 2046 692 l 2046 721 l 2015 721 z m 2015 910 l 2025 736 l 2035 736 l 2046 910 z m 2061 -82 l 2071 -82 l 2071 -6 l 2106 -82 l 2118 -82 l 2118 28 l 2106 28 l 2106 -46 l 2071 28 l 2061 28 z m 2067 203 l 2117 203 l 2126 272 l 2157 272 l 2167 203 l 2215 203 l 2165 494 l 2119 494 z m 2133 314 l 2140 372 l 2149 314 z m 2221 261 b 2281 200 2221 226 2251 203 b 2314 206 2292 199 2304 200 b 2351 299 2347 221 2351 263 l 2306 301 b 2286 244 2306 282 2308 249 b 2269 263 2279 243 2269 249 l 2269 433 b 2286 453 2269 449 2279 454 b 2306 397 2308 449 2306 415 l 2351 400 b 2314 492 2351 433 2347 476 b 2281 497 2304 497 2292 499 b 2221 436 2251 494 2221 472 z m 2376 203 l 2428 203 l 2428 326 l 2471 326 l 2471 203 l 2518 203 l 2518 494 l 2471 494 l 2471 378 l 2428 378 l 2428 494 l 2376 494 z m 2543 203 l 2593 203 l 2593 494 l 2543 494 z m 2618 203 l 2663 203 l 2663 346 l 2713 203 l 2750 203 l 2750 494 l 2703 494 l 2703 354 l 2653 494 l 2618 494 z m 2774 203 l 2888 203 l 2888 253 l 2822 253 l 2822 329 l 2875 329 l 2875 382 l 2822 382 l 2822 444 l 2888 444 l 2888 494 l 2774 494 z "},"4":{"ha":3090,"x_min":0,"x_max":0,"o":"m 1607 939 b 1665 982 1638 939 1658 950 b 1668 1032 1668 997 1668 1015 b 1663 1128 1668 1063 1674 1100 b 1604 1160 1654 1151 1628 1160 b 1553 1119 1581 1158 1557 1147 b 1549 1025 1546 1093 1549 1057 b 1551 985 1549 1013 1549 999 b 1607 939 1556 953 1575 939 z m 211 206 l 254 206 l 257 324 l 281 206 l 315 206 l 335 326 l 340 206 l 381 206 l 381 496 l 331 496 l 297 314 l 261 496 l 215 496 z m 419 206 l 465 206 l 465 347 l 515 206 l 551 206 l 551 496 l 506 496 l 506 357 l 456 496 l 419 496 z m 585 206 l 633 206 l 633 258 l 585 258 z m 651 307 b 664 236 651 282 656 258 b 733 201 675 210 706 197 b 785 260 765 210 783 235 b 750 357 789 297 778 331 l 728 383 b 700 417 718 393 706 400 b 721 454 696 428 697 456 b 739 399 739 451 735 417 l 783 400 b 746 493 783 435 779 478 b 656 443 704 513 657 485 b 667 375 650 418 656 393 b 693 344 671 364 685 357 b 739 272 710 326 739 303 b 726 249 739 260 735 251 b 708 258 718 244 713 251 b 697 310 697 274 697 293 z m 807 351 b 808 269 807 324 806 297 b 839 211 811 249 818 221 b 910 214 858 197 892 197 l 913 206 l 950 206 l 950 357 l 875 357 l 875 314 l 904 314 b 875 249 904 297 908 235 b 858 310 851 254 858 294 l 858 415 b 885 454 858 438 863 457 b 900 393 897 449 900 444 l 947 393 b 915 490 947 425 950 469 b 851 496 897 501 872 501 b 808 435 825 485 813 460 b 807 351 806 408 807 379 z m 960 168 l 1000 168 l 1083 533 l 1038 533 z m 972 -6 b 1006 -83 972 -33 964 -83 b 1031 -40 1029 -83 1031 -60 l 1018 -40 b 1017 -64 1018 -49 1019 -56 b 993 -67 1013 -72 997 -74 b 989 -26 988 -56 989 -35 b 993 14 989 -15 988 4 b 1017 11 997 21 1013 21 b 1018 -8 1019 4 1018 -4 l 1031 -8 b 1008 28 1031 8 1031 26 b 972 -6 983 32 972 15 z m 1046 -25 b 1076 -83 1046 -47 1039 -83 b 1108 -26 1108 -83 1108 -50 b 1078 28 1108 -4 1110 26 b 1046 -25 1046 32 1046 4 z m 1047 939 l 1076 939 l 1076 1040 b 1136 1053 1096 1040 1121 1038 b 1146 1133 1160 1071 1160 1108 b 1093 1158 1136 1156 1115 1158 l 1047 1158 z m 1050 772 b 1054 721 1050 751 1050 735 b 1129 692 1065 692 1104 679 b 1167 810 1175 706 1167 772 l 1167 910 l 1136 910 l 1136 828 l 1136 760 b 1096 710 1136 733 1128 701 b 1078 763 1076 721 1078 744 l 1078 910 l 1050 910 z m 1058 -15 l 1058 -1 b 1082 15 1058 11 1067 22 b 1090 -31 1093 11 1090 -18 b 1067 -68 1090 -46 1093 -82 b 1058 -15 1054 -64 1058 -28 z m 1076 1063 l 1076 1135 b 1108 1133 1086 1135 1097 1138 b 1126 1096 1126 1129 1126 1111 b 1108 1065 1126 1082 1124 1069 b 1076 1063 1097 1063 1086 1063 z m 1086 57 l 1104 57 l 1104 110 l 1124 110 l 1124 118 l 1104 118 l 1104 157 l 1129 157 l 1129 168 l 1086 168 z m 1093 203 l 1139 203 l 1139 322 l 1163 203 l 1196 203 l 1219 325 l 1221 203 l 1265 203 l 1264 494 l 1213 494 l 1179 311 l 1144 494 l 1100 494 z m 1121 -82 l 1135 -82 l 1135 -1 l 1153 -82 l 1165 -82 l 1182 -1 l 1182 -82 l 1193 -82 l 1193 28 l 1176 28 l 1160 -60 l 1139 28 l 1121 28 z m 1139 115 b 1171 56 1139 90 1136 56 b 1200 111 1200 56 1200 88 b 1171 169 1200 133 1203 165 b 1139 115 1139 169 1139 142 z m 1154 118 l 1154 136 b 1176 156 1154 150 1165 164 b 1185 108 1189 150 1185 118 b 1165 67 1185 90 1185 63 b 1154 118 1147 74 1154 110 z m 1176 939 l 1261 939 l 1261 961 l 1206 961 l 1206 1040 l 1251 1040 l 1251 1063 l 1206 1063 l 1206 1135 l 1260 1135 l 1260 1158 l 1176 1158 z m 1189 751 b 1249 689 1193 717 1213 689 b 1299 754 1285 689 1307 721 b 1256 814 1296 783 1274 796 b 1222 868 1238 828 1213 844 b 1249 883 1224 879 1233 889 b 1272 846 1267 881 1271 861 l 1296 853 b 1278 901 1296 872 1292 890 b 1225 910 1261 910 1240 913 b 1200 826 1189 899 1182 853 b 1242 785 1208 810 1231 796 b 1267 761 1256 779 1260 768 b 1263 718 1274 749 1278 728 b 1231 721 1256 707 1239 710 b 1219 760 1222 729 1222 744 z m 1213 -82 l 1225 -82 l 1228 -1 l 1242 -82 l 1256 -82 l 1272 -1 l 1274 -82 l 1285 -82 l 1282 28 l 1267 28 l 1249 -60 l 1231 28 l 1213 28 z m 1217 57 l 1231 57 l 1231 110 l 1242 110 l 1258 57 l 1274 57 l 1258 111 b 1258 165 1278 118 1274 156 b 1217 168 1246 169 1231 168 z m 1228 524 l 1242 524 l 1242 578 b 1274 583 1256 578 1263 575 b 1278 625 1282 592 1282 613 b 1228 639 1268 643 1242 639 z m 1231 118 l 1231 157 b 1258 139 1246 157 1258 156 b 1231 118 1258 121 1244 118 z m 1242 586 l 1242 629 b 1267 611 1258 629 1267 629 b 1258 588 1267 601 1267 593 b 1242 586 1256 586 1247 586 z m 1285 939 l 1318 939 l 1318 1042 l 1340 1042 l 1371 939 l 1397 939 l 1371 1049 b 1371 1149 1406 1063 1403 1131 b 1285 1158 1347 1161 1314 1158 z m 1290 308 b 1292 264 1290 294 1290 281 b 1333 206 1293 240 1307 215 b 1399 213 1354 200 1379 200 b 1428 308 1431 231 1428 275 l 1428 392 b 1399 488 1428 422 1431 468 b 1333 494 1379 499 1354 499 b 1292 432 1307 485 1293 458 b 1290 389 1290 418 1290 403 z m 1296 524 l 1336 524 l 1336 536 l 1307 536 l 1307 639 l 1296 639 z m 1303 -82 l 1347 -82 l 1347 -72 l 1319 -72 l 1319 -28 l 1342 -28 l 1342 -15 l 1319 -15 l 1319 18 l 1347 18 l 1347 28 l 1303 28 z m 1310 157 l 1329 157 l 1329 57 l 1347 57 l 1347 157 l 1368 157 l 1368 168 l 1310 168 z m 1318 1063 l 1318 1135 b 1349 1132 1325 1135 1336 1138 b 1365 1103 1363 1128 1365 1114 b 1349 1065 1367 1086 1363 1072 b 1318 1063 1336 1063 1325 1063 z m 1325 692 l 1410 692 l 1410 710 l 1354 710 l 1354 790 l 1399 790 l 1399 814 l 1354 814 l 1354 883 l 1410 883 l 1410 910 l 1325 910 z m 1339 314 l 1339 383 b 1343 443 1339 400 1336 422 b 1365 453 1344 446 1356 453 b 1379 433 1374 449 1379 444 b 1381 392 1383 421 1381 406 l 1381 308 b 1379 264 1381 293 1383 278 b 1365 247 1379 253 1374 251 b 1343 257 1356 244 1344 251 b 1339 314 1336 275 1339 299 z m 1349 524 l 1390 524 l 1390 536 l 1363 536 l 1363 578 l 1385 578 l 1385 588 l 1363 588 l 1363 629 l 1390 629 l 1390 639 l 1349 639 z m 1357 -82 l 1375 -82 l 1375 -28 l 1388 -28 l 1400 -82 l 1414 -82 l 1399 -26 b 1400 25 1418 -18 1415 15 b 1357 28 1388 32 1374 28 z m 1375 -15 l 1375 18 b 1399 -1 1388 18 1399 15 b 1375 -15 1399 -15 1388 -15 z m 1375 57 l 1388 57 l 1388 110 l 1419 110 l 1419 57 l 1436 57 l 1436 168 l 1419 168 l 1419 118 l 1388 118 l 1388 168 l 1375 168 z m 1397 524 l 1411 524 l 1414 554 l 1439 554 l 1444 524 l 1461 524 l 1439 639 l 1421 639 z m 1415 563 l 1429 618 l 1439 563 z m 1415 1000 b 1476 939 1418 965 1439 939 b 1528 1004 1514 939 1535 969 b 1483 1063 1522 1028 1500 1046 b 1447 1118 1467 1076 1443 1093 b 1476 1138 1450 1131 1464 1138 b 1500 1096 1494 1132 1497 1111 l 1525 1104 b 1506 1149 1524 1119 1519 1142 b 1454 1156 1492 1160 1467 1161 b 1428 1074 1415 1147 1410 1104 b 1468 1033 1439 1058 1458 1046 b 1494 1008 1482 1024 1488 1015 b 1494 968 1501 997 1506 975 b 1458 969 1483 958 1467 960 b 1446 1008 1450 978 1447 992 z m 1429 -6 b 1458 -83 1429 -33 1418 -83 b 1486 -40 1483 -83 1486 -60 l 1469 -40 b 1468 -64 1469 -49 1474 -56 b 1447 -67 1467 -72 1454 -74 b 1443 -26 1439 -56 1443 -35 b 1447 14 1443 -15 1439 4 b 1468 11 1454 21 1467 21 b 1469 -8 1474 4 1469 -4 l 1486 -8 b 1464 28 1486 8 1483 26 b 1429 -6 1439 32 1429 15 z m 1451 57 l 1494 57 l 1494 65 l 1467 65 l 1467 110 l 1489 110 l 1489 118 l 1467 118 l 1467 157 l 1494 157 l 1494 168 l 1451 168 z m 1453 203 l 1497 203 l 1497 346 l 1547 203 l 1585 203 l 1585 494 l 1538 494 l 1538 354 l 1488 494 l 1453 494 z m 1467 554 b 1497 524 1468 539 1481 524 b 1524 561 1518 524 1528 542 b 1497 588 1522 574 1507 581 b 1483 618 1489 596 1481 607 b 1510 607 1486 632 1500 638 l 1524 608 b 1507 638 1524 618 1518 632 b 1476 633 1497 640 1483 639 b 1483 585 1461 618 1468 596 b 1510 550 1492 575 1510 563 b 1492 536 1510 539 1501 535 b 1483 561 1483 539 1483 553 z m 1492 779 b 1494 733 1492 763 1492 749 b 1553 689 1497 704 1522 689 b 1607 732 1583 689 1603 703 b 1610 785 1614 749 1610 765 b 1604 879 1610 813 1615 850 b 1547 910 1597 901 1575 910 b 1494 872 1524 910 1501 899 b 1492 779 1488 844 1492 810 z m 1501 -82 l 1518 -82 l 1518 28 l 1501 28 z m 1524 760 l 1524 796 b 1524 867 1524 819 1519 846 b 1546 883 1528 879 1532 883 b 1572 879 1553 889 1563 883 b 1581 844 1583 869 1581 857 l 1581 765 b 1581 742 1581 760 1583 749 b 1563 714 1581 732 1575 721 b 1535 714 1556 710 1546 710 b 1524 760 1522 721 1524 742 z m 1528 -82 l 1546 -82 l 1551 -53 l 1575 -53 l 1581 -82 l 1594 -82 l 1568 28 l 1553 28 z m 1535 524 l 1583 524 l 1583 536 l 1553 536 l 1553 578 l 1575 578 l 1575 588 l 1553 588 l 1553 629 l 1581 629 l 1581 639 l 1535 639 z m 1542 57 l 1553 57 l 1553 110 l 1575 110 l 1575 118 l 1553 118 l 1553 157 l 1583 157 l 1583 168 l 1542 168 z m 1553 -44 l 1563 8 l 1572 -44 z m 1581 1006 l 1581 1046 b 1583 1114 1581 1067 1575 1096 b 1603 1135 1586 1128 1592 1133 b 1628 1128 1614 1138 1619 1138 b 1638 1090 1638 1118 1638 1104 l 1638 992 b 1621 963 1638 982 1635 969 b 1597 963 1615 960 1603 960 b 1581 1006 1581 971 1581 992 z m 1594 83 b 1631 57 1597 63 1610 50 b 1650 117 1653 65 1650 99 l 1650 168 l 1638 168 l 1638 118 b 1619 65 1638 106 1643 65 b 1606 118 1601 65 1606 106 l 1606 168 l 1594 168 l 1594 110 b 1594 83 1594 101 1592 90 z m 1604 -82 l 1647 -82 l 1647 -72 l 1618 -72 l 1618 28 l 1604 28 z m 1610 203 l 1722 203 l 1722 253 l 1657 253 l 1657 329 l 1710 329 l 1710 382 l 1657 382 l 1657 444 l 1722 444 l 1722 494 l 1610 494 z m 1618 639 l 1643 524 l 1658 524 l 1682 639 l 1668 639 l 1650 554 l 1635 639 z m 1643 692 l 1665 692 l 1665 839 l 1731 692 l 1751 692 l 1751 910 l 1724 910 l 1724 763 l 1663 910 l 1643 910 z m 1668 57 l 1710 57 l 1710 65 l 1685 65 l 1685 168 l 1668 168 z m 1686 28 l 1710 -82 l 1722 -82 l 1747 28 l 1733 28 l 1715 -53 l 1700 28 z m 1694 524 l 1710 524 l 1710 639 l 1694 639 z m 1700 939 l 1724 939 l 1724 1086 l 1786 939 l 1806 939 l 1806 1158 l 1778 1158 l 1778 1013 l 1717 1158 l 1700 1158 z m 1722 57 l 1764 57 l 1764 65 l 1738 65 l 1738 168 l 1722 168 z m 1725 554 b 1756 524 1728 539 1733 524 b 1778 561 1774 524 1785 542 b 1757 588 1778 574 1764 583 b 1742 618 1749 596 1735 606 b 1764 607 1747 632 1763 638 l 1778 608 b 1764 638 1778 618 1774 632 b 1733 633 1757 640 1743 639 b 1739 585 1715 618 1728 596 b 1764 550 1751 575 1767 563 b 1751 536 1764 539 1760 535 b 1739 561 1743 539 1739 553 z m 1735 494 l 1779 328 l 1779 203 l 1826 203 l 1826 321 l 1876 494 l 1825 494 l 1804 378 l 1785 494 z m 1760 -82 l 1804 -82 l 1804 -72 l 1775 -72 l 1775 -28 l 1799 -28 l 1799 -15 l 1775 -15 l 1775 18 l 1804 18 l 1804 28 l 1760 28 z m 1785 692 l 1867 692 l 1867 710 l 1814 710 l 1814 910 l 1785 910 z m 1793 524 l 1810 524 l 1810 639 l 1793 639 z m 1804 57 l 1817 57 l 1824 83 l 1846 83 l 1850 57 l 1867 57 l 1842 168 l 1824 168 z m 1815 -82 l 1831 -82 l 1831 -28 l 1842 -28 l 1856 -82 l 1872 -82 l 1854 -26 b 1858 25 1875 -19 1875 15 b 1815 28 1846 32 1829 28 z m 1819 629 l 1842 629 l 1842 524 l 1853 524 l 1853 629 l 1872 629 l 1872 639 l 1819 639 z m 1824 96 l 1833 146 l 1843 96 z m 1826 939 l 1854 939 l 1867 992 l 1911 992 l 1922 939 l 1950 939 l 1904 1158 l 1875 1158 z m 1831 -15 l 1831 18 b 1854 -1 1846 18 1854 15 b 1831 -15 1854 -15 1846 -15 z m 1871 1015 l 1890 1114 l 1908 1015 z m 1878 57 l 1893 57 l 1893 132 l 1922 57 l 1933 57 l 1933 168 l 1918 168 l 1918 94 l 1886 168 l 1878 168 z m 1878 910 l 1908 810 b 1922 768 1914 796 1918 785 b 1922 735 1924 760 1922 744 l 1922 692 l 1953 692 l 1953 743 b 1956 772 1953 751 1950 763 l 1971 817 b 2000 910 1979 849 1990 879 l 1971 910 l 1938 803 l 1904 910 z m 1883 -50 b 1914 -83 1885 -68 1894 -83 b 1938 -49 1935 -83 1943 -67 b 1915 -15 1938 -33 1924 -26 b 1900 11 1908 -8 1894 -1 b 1917 18 1904 18 1910 21 b 1926 -4 1924 15 1924 4 l 1938 3 b 1924 26 1938 14 1935 22 b 1893 22 1915 32 1904 31 b 1899 -25 1878 14 1885 -11 b 1926 -57 1908 -31 1926 -44 b 1908 -68 1926 -67 1918 -74 b 1899 -47 1900 -67 1899 -53 z m 1889 203 l 1935 203 l 1935 322 l 1957 203 l 1992 203 l 2014 325 l 2017 203 l 2060 203 l 2058 494 l 2007 494 l 1974 311 l 1940 494 l 1894 494 z m 1950 57 b 1994 64 1963 57 1983 54 b 2006 111 2010 72 2006 96 b 2000 160 2006 128 2010 150 b 1950 168 1985 169 1963 168 z m 1953 -82 l 1967 -82 l 1967 28 l 1953 28 z m 1967 65 l 1967 157 b 1992 139 1979 157 1990 157 l 1992 83 b 1967 65 1986 65 1976 65 z m 1972 939 l 2058 939 l 2058 961 l 2003 961 l 2003 1158 l 1972 1158 z m 1983 -25 b 2015 -83 1983 -47 1981 -83 b 2046 -26 2047 -83 2046 -50 b 2018 28 2046 -4 2050 26 b 1983 -25 1983 32 1983 4 z m 2003 -15 l 2003 -1 b 2025 15 2003 11 2007 22 b 2031 -31 2035 11 2031 -18 b 2007 -68 2031 -46 2032 -82 b 2003 -15 1994 -64 2003 -28 z m 2015 692 l 2046 692 l 2046 721 l 2015 721 z m 2015 910 l 2025 736 l 2035 736 l 2046 910 z m 2061 -82 l 2071 -82 l 2071 -6 l 2106 -82 l 2118 -82 l 2118 28 l 2106 28 l 2106 -46 l 2071 28 l 2061 28 z m 2067 203 l 2117 203 l 2126 272 l 2157 272 l 2167 203 l 2215 203 l 2165 494 l 2119 494 z m 2133 314 l 2140 372 l 2149 314 z m 2221 261 b 2281 200 2221 226 2251 203 b 2314 206 2292 199 2304 200 b 2351 299 2347 221 2351 263 l 2306 301 b 2286 244 2306 282 2308 249 b 2269 263 2279 243 2269 249 l 2269 433 b 2286 453 2269 449 2279 454 b 2306 397 2308 449 2306 415 l 2351 400 b 2314 492 2351 433 2347 476 b 2281 497 2304 497 2292 499 b 2221 436 2251 494 2221 472 z m 2376 203 l 2428 203 l 2428 326 l 2471 326 l 2471 203 l 2518 203 l 2518 494 l 2471 494 l 2471 378 l 2428 378 l 2428 494 l 2376 494 z m 2543 203 l 2593 203 l 2593 494 l 2543 494 z m 2618 203 l 2663 203 l 2663 346 l 2713 203 l 2750 203 l 2750 494 l 2703 494 l 2703 354 l 2653 494 l 2618 494 z m 2774 203 l 2888 203 l 2888 253 l 2822 253 l 2822 329 l 2875 329 l 2875 382 l 2822 382 l 2822 444 l 2888 444 l 2888 494 l 2774 494 z "},"5":{"ha":3090,"x_min":0,"x_max":0,"o":"m 1607 939 b 1665 982 1638 939 1658 950 b 1668 1032 1668 997 1668 1015 b 1663 1128 1668 1063 1674 1100 b 1604 1160 1654 1151 1628 1160 b 1553 1119 1581 1158 1557 1147 b 1549 1025 1546 1093 1549 1057 b 1551 985 1549 1013 1549 999 b 1607 939 1556 953 1575 939 z m 211 206 l 254 206 l 257 324 l 281 206 l 315 206 l 335 326 l 340 206 l 381 206 l 381 496 l 331 496 l 297 314 l 261 496 l 215 496 z m 419 206 l 465 206 l 465 347 l 515 206 l 551 206 l 551 496 l 506 496 l 506 357 l 456 496 l 419 496 z m 585 206 l 633 206 l 633 258 l 585 258 z m 651 307 b 664 236 651 282 656 258 b 733 201 675 210 706 197 b 785 260 765 210 783 235 b 750 357 789 297 778 331 l 728 383 b 700 417 718 393 706 400 b 721 454 696 428 697 456 b 739 399 739 451 735 417 l 783 400 b 746 493 783 435 779 478 b 656 443 704 513 657 485 b 667 375 650 418 656 393 b 693 344 671 364 685 357 b 739 272 710 326 739 303 b 726 249 739 260 735 251 b 708 258 718 244 713 251 b 697 310 697 274 697 293 z m 807 351 b 808 269 807 324 806 297 b 839 211 811 249 818 221 b 910 214 858 197 892 197 l 913 206 l 950 206 l 950 357 l 875 357 l 875 314 l 904 314 b 875 249 904 297 908 235 b 858 310 851 254 858 294 l 858 415 b 885 454 858 438 863 457 b 900 393 897 449 900 444 l 947 393 b 915 490 947 425 950 469 b 851 496 897 501 872 501 b 808 435 825 485 813 460 b 807 351 806 408 807 379 z m 960 168 l 1000 168 l 1083 533 l 1038 533 z m 972 -6 b 1006 -83 972 -33 964 -83 b 1031 -40 1029 -83 1031 -60 l 1018 -40 b 1017 -64 1018 -49 1019 -56 b 993 -67 1013 -72 997 -74 b 989 -26 988 -56 989 -35 b 993 14 989 -15 988 4 b 1017 11 997 21 1013 21 b 1018 -8 1019 4 1018 -4 l 1031 -8 b 1008 28 1031 8 1031 26 b 972 -6 983 32 972 15 z m 1046 -25 b 1076 -83 1046 -47 1039 -83 b 1108 -26 1108 -83 1108 -50 b 1078 28 1108 -4 1110 26 b 1046 -25 1046 32 1046 4 z m 1047 939 l 1076 939 l 1076 1040 b 1136 1053 1096 1040 1121 1038 b 1146 1133 1160 1071 1160 1108 b 1093 1158 1136 1156 1115 1158 l 1047 1158 z m 1050 772 b 1054 721 1050 751 1050 735 b 1129 692 1065 692 1104 679 b 1167 810 1175 706 1167 772 l 1167 910 l 1136 910 l 1136 828 l 1136 760 b 1096 710 1136 733 1128 701 b 1078 763 1076 721 1078 744 l 1078 910 l 1050 910 z m 1058 -15 l 1058 -1 b 1082 15 1058 11 1067 22 b 1090 -31 1093 11 1090 -18 b 1067 -68 1090 -46 1093 -82 b 1058 -15 1054 -64 1058 -28 z m 1076 1063 l 1076 1135 b 1108 1133 1086 1135 1097 1138 b 1126 1096 1126 1129 1126 1111 b 1108 1065 1126 1082 1124 1069 b 1076 1063 1097 1063 1086 1063 z m 1086 57 l 1104 57 l 1104 110 l 1124 110 l 1124 118 l 1104 118 l 1104 157 l 1129 157 l 1129 168 l 1086 168 z m 1093 203 l 1139 203 l 1139 322 l 1163 203 l 1196 203 l 1219 325 l 1221 203 l 1265 203 l 1264 494 l 1213 494 l 1179 311 l 1144 494 l 1100 494 z m 1121 -82 l 1135 -82 l 1135 -1 l 1153 -82 l 1165 -82 l 1182 -1 l 1182 -82 l 1193 -82 l 1193 28 l 1176 28 l 1160 -60 l 1139 28 l 1121 28 z m 1139 115 b 1171 56 1139 90 1136 56 b 1200 111 1200 56 1200 88 b 1171 169 1200 133 1203 165 b 1139 115 1139 169 1139 142 z m 1154 118 l 1154 136 b 1176 156 1154 150 1165 164 b 1185 108 1189 150 1185 118 b 1165 67 1185 90 1185 63 b 1154 118 1147 74 1154 110 z m 1176 939 l 1261 939 l 1261 961 l 1206 961 l 1206 1040 l 1251 1040 l 1251 1063 l 1206 1063 l 1206 1135 l 1260 1135 l 1260 1158 l 1176 1158 z m 1189 751 b 1249 689 1193 717 1213 689 b 1299 754 1285 689 1307 721 b 1256 814 1296 783 1274 796 b 1222 868 1238 828 1213 844 b 1249 883 1224 879 1233 889 b 1272 846 1267 881 1271 861 l 1296 853 b 1278 901 1296 872 1292 890 b 1225 910 1261 910 1240 913 b 1200 826 1189 899 1182 853 b 1242 785 1208 810 1231 796 b 1267 761 1256 779 1260 768 b 1263 718 1274 749 1278 728 b 1231 721 1256 707 1239 710 b 1219 760 1222 729 1222 744 z m 1213 -82 l 1225 -82 l 1228 -1 l 1242 -82 l 1256 -82 l 1272 -1 l 1274 -82 l 1285 -82 l 1282 28 l 1267 28 l 1249 -60 l 1231 28 l 1213 28 z m 1217 57 l 1231 57 l 1231 110 l 1242 110 l 1258 57 l 1274 57 l 1258 111 b 1258 165 1278 118 1274 156 b 1217 168 1246 169 1231 168 z m 1228 524 l 1242 524 l 1242 578 b 1274 583 1256 578 1263 575 b 1278 625 1282 592 1282 613 b 1228 639 1268 643 1242 639 z m 1231 118 l 1231 157 b 1258 139 1246 157 1258 156 b 1231 118 1258 121 1244 118 z m 1242 586 l 1242 629 b 1267 611 1258 629 1267 629 b 1258 588 1267 601 1267 593 b 1242 586 1256 586 1247 586 z m 1285 939 l 1318 939 l 1318 1042 l 1340 1042 l 1371 939 l 1397 939 l 1371 1049 b 1371 1149 1406 1063 1403 1131 b 1285 1158 1347 1161 1314 1158 z m 1290 308 b 1292 264 1290 294 1290 281 b 1333 206 1293 240 1307 215 b 1399 213 1354 200 1379 200 b 1428 308 1431 231 1428 275 l 1428 392 b 1399 488 1428 422 1431 468 b 1333 494 1379 499 1354 499 b 1292 432 1307 485 1293 458 b 1290 389 1290 418 1290 403 z m 1296 524 l 1336 524 l 1336 536 l 1307 536 l 1307 639 l 1296 639 z m 1303 -82 l 1347 -82 l 1347 -72 l 1319 -72 l 1319 -28 l 1342 -28 l 1342 -15 l 1319 -15 l 1319 18 l 1347 18 l 1347 28 l 1303 28 z m 1310 157 l 1329 157 l 1329 57 l 1347 57 l 1347 157 l 1368 157 l 1368 168 l 1310 168 z m 1318 1063 l 1318 1135 b 1349 1132 1325 1135 1336 1138 b 1365 1103 1363 1128 1365 1114 b 1349 1065 1367 1086 1363 1072 b 1318 1063 1336 1063 1325 1063 z m 1325 692 l 1410 692 l 1410 710 l 1354 710 l 1354 790 l 1399 790 l 1399 814 l 1354 814 l 1354 883 l 1410 883 l 1410 910 l 1325 910 z m 1339 314 l 1339 383 b 1343 443 1339 400 1336 422 b 1365 453 1344 446 1356 453 b 1379 433 1374 449 1379 444 b 1381 392 1383 421 1381 406 l 1381 308 b 1379 264 1381 293 1383 278 b 1365 247 1379 253 1374 251 b 1343 257 1356 244 1344 251 b 1339 314 1336 275 1339 299 z m 1349 524 l 1390 524 l 1390 536 l 1363 536 l 1363 578 l 1385 578 l 1385 588 l 1363 588 l 1363 629 l 1390 629 l 1390 639 l 1349 639 z m 1357 -82 l 1375 -82 l 1375 -28 l 1388 -28 l 1400 -82 l 1414 -82 l 1399 -26 b 1400 25 1418 -18 1415 15 b 1357 28 1388 32 1374 28 z m 1375 -15 l 1375 18 b 1399 -1 1388 18 1399 15 b 1375 -15 1399 -15 1388 -15 z m 1375 57 l 1388 57 l 1388 110 l 1419 110 l 1419 57 l 1436 57 l 1436 168 l 1419 168 l 1419 118 l 1388 118 l 1388 168 l 1375 168 z m 1397 524 l 1411 524 l 1414 554 l 1439 554 l 1444 524 l 1461 524 l 1439 639 l 1421 639 z m 1415 563 l 1429 618 l 1439 563 z m 1415 1000 b 1476 939 1418 965 1439 939 b 1528 1004 1514 939 1535 969 b 1483 1063 1522 1028 1500 1046 b 1447 1118 1467 1076 1443 1093 b 1476 1138 1450 1131 1464 1138 b 1500 1096 1494 1132 1497 1111 l 1525 1104 b 1506 1149 1524 1119 1519 1142 b 1454 1156 1492 1160 1467 1161 b 1428 1074 1415 1147 1410 1104 b 1468 1033 1439 1058 1458 1046 b 1494 1008 1482 1024 1488 1015 b 1494 968 1501 997 1506 975 b 1458 969 1483 958 1467 960 b 1446 1008 1450 978 1447 992 z m 1429 -6 b 1458 -83 1429 -33 1418 -83 b 1486 -40 1483 -83 1486 -60 l 1469 -40 b 1468 -64 1469 -49 1474 -56 b 1447 -67 1467 -72 1454 -74 b 1443 -26 1439 -56 1443 -35 b 1447 14 1443 -15 1439 4 b 1468 11 1454 21 1467 21 b 1469 -8 1474 4 1469 -4 l 1486 -8 b 1464 28 1486 8 1483 26 b 1429 -6 1439 32 1429 15 z m 1451 57 l 1494 57 l 1494 65 l 1467 65 l 1467 110 l 1489 110 l 1489 118 l 1467 118 l 1467 157 l 1494 157 l 1494 168 l 1451 168 z m 1453 203 l 1497 203 l 1497 346 l 1547 203 l 1585 203 l 1585 494 l 1538 494 l 1538 354 l 1488 494 l 1453 494 z m 1467 554 b 1497 524 1468 539 1481 524 b 1524 561 1518 524 1528 542 b 1497 588 1522 574 1507 581 b 1483 618 1489 596 1481 607 b 1510 607 1486 632 1500 638 l 1524 608 b 1507 638 1524 618 1518 632 b 1476 633 1497 640 1483 639 b 1483 585 1461 618 1468 596 b 1510 550 1492 575 1510 563 b 1492 536 1510 539 1501 535 b 1483 561 1483 539 1483 553 z m 1492 779 b 1494 733 1492 763 1492 749 b 1553 689 1497 704 1522 689 b 1607 732 1583 689 1603 703 b 1610 785 1614 749 1610 765 b 1604 879 1610 813 1615 850 b 1547 910 1597 901 1575 910 b 1494 872 1524 910 1501 899 b 1492 779 1488 844 1492 810 z m 1501 -82 l 1518 -82 l 1518 28 l 1501 28 z m 1524 760 l 1524 796 b 1524 867 1524 819 1519 846 b 1546 883 1528 879 1532 883 b 1572 879 1553 889 1563 883 b 1581 844 1583 869 1581 857 l 1581 765 b 1581 742 1581 760 1583 749 b 1563 714 1581 732 1575 721 b 1535 714 1556 710 1546 710 b 1524 760 1522 721 1524 742 z m 1528 -82 l 1546 -82 l 1551 -53 l 1575 -53 l 1581 -82 l 1594 -82 l 1568 28 l 1553 28 z m 1535 524 l 1583 524 l 1583 536 l 1553 536 l 1553 578 l 1575 578 l 1575 588 l 1553 588 l 1553 629 l 1581 629 l 1581 639 l 1535 639 z m 1542 57 l 1553 57 l 1553 110 l 1575 110 l 1575 118 l 1553 118 l 1553 157 l 1583 157 l 1583 168 l 1542 168 z m 1553 -44 l 1563 8 l 1572 -44 z m 1581 1006 l 1581 1046 b 1583 1114 1581 1067 1575 1096 b 1603 1135 1586 1128 1592 1133 b 1628 1128 1614 1138 1619 1138 b 1638 1090 1638 1118 1638 1104 l 1638 992 b 1621 963 1638 982 1635 969 b 1597 963 1615 960 1603 960 b 1581 1006 1581 971 1581 992 z m 1594 83 b 1631 57 1597 63 1610 50 b 1650 117 1653 65 1650 99 l 1650 168 l 1638 168 l 1638 118 b 1619 65 1638 106 1643 65 b 1606 118 1601 65 1606 106 l 1606 168 l 1594 168 l 1594 110 b 1594 83 1594 101 1592 90 z m 1604 -82 l 1647 -82 l 1647 -72 l 1618 -72 l 1618 28 l 1604 28 z m 1610 203 l 1722 203 l 1722 253 l 1657 253 l 1657 329 l 1710 329 l 1710 382 l 1657 382 l 1657 444 l 1722 444 l 1722 494 l 1610 494 z m 1618 639 l 1643 524 l 1658 524 l 1682 639 l 1668 639 l 1650 554 l 1635 639 z m 1643 692 l 1665 692 l 1665 839 l 1731 692 l 1751 692 l 1751 910 l 1724 910 l 1724 763 l 1663 910 l 1643 910 z m 1668 57 l 1710 57 l 1710 65 l 1685 65 l 1685 168 l 1668 168 z m 1686 28 l 1710 -82 l 1722 -82 l 1747 28 l 1733 28 l 1715 -53 l 1700 28 z m 1694 524 l 1710 524 l 1710 639 l 1694 639 z m 1700 939 l 1724 939 l 1724 1086 l 1786 939 l 1806 939 l 1806 1158 l 1778 1158 l 1778 1013 l 1717 1158 l 1700 1158 z m 1722 57 l 1764 57 l 1764 65 l 1738 65 l 1738 168 l 1722 168 z m 1725 554 b 1756 524 1728 539 1733 524 b 1778 561 1774 524 1785 542 b 1757 588 1778 574 1764 583 b 1742 618 1749 596 1735 606 b 1764 607 1747 632 1763 638 l 1778 608 b 1764 638 1778 618 1774 632 b 1733 633 1757 640 1743 639 b 1739 585 1715 618 1728 596 b 1764 550 1751 575 1767 563 b 1751 536 1764 539 1760 535 b 1739 561 1743 539 1739 553 z m 1735 494 l 1779 328 l 1779 203 l 1826 203 l 1826 321 l 1876 494 l 1825 494 l 1804 378 l 1785 494 z m 1760 -82 l 1804 -82 l 1804 -72 l 1775 -72 l 1775 -28 l 1799 -28 l 1799 -15 l 1775 -15 l 1775 18 l 1804 18 l 1804 28 l 1760 28 z m 1785 692 l 1867 692 l 1867 710 l 1814 710 l 1814 910 l 1785 910 z m 1793 524 l 1810 524 l 1810 639 l 1793 639 z m 1804 57 l 1817 57 l 1824 83 l 1846 83 l 1850 57 l 1867 57 l 1842 168 l 1824 168 z m 1815 -82 l 1831 -82 l 1831 -28 l 1842 -28 l 1856 -82 l 1872 -82 l 1854 -26 b 1858 25 1875 -19 1875 15 b 1815 28 1846 32 1829 28 z m 1819 629 l 1842 629 l 1842 524 l 1853 524 l 1853 629 l 1872 629 l 1872 639 l 1819 639 z m 1824 96 l 1833 146 l 1843 96 z m 1826 939 l 1854 939 l 1867 992 l 1911 992 l 1922 939 l 1950 939 l 1904 1158 l 1875 1158 z m 1831 -15 l 1831 18 b 1854 -1 1846 18 1854 15 b 1831 -15 1854 -15 1846 -15 z m 1871 1015 l 1890 1114 l 1908 1015 z m 1878 57 l 1893 57 l 1893 132 l 1922 57 l 1933 57 l 1933 168 l 1918 168 l 1918 94 l 1886 168 l 1878 168 z m 1878 910 l 1908 810 b 1922 768 1914 796 1918 785 b 1922 735 1924 760 1922 744 l 1922 692 l 1953 692 l 1953 743 b 1956 772 1953 751 1950 763 l 1971 817 b 2000 910 1979 849 1990 879 l 1971 910 l 1938 803 l 1904 910 z m 1883 -50 b 1914 -83 1885 -68 1894 -83 b 1938 -49 1935 -83 1943 -67 b 1915 -15 1938 -33 1924 -26 b 1900 11 1908 -8 1894 -1 b 1917 18 1904 18 1910 21 b 1926 -4 1924 15 1924 4 l 1938 3 b 1924 26 1938 14 1935 22 b 1893 22 1915 32 1904 31 b 1899 -25 1878 14 1885 -11 b 1926 -57 1908 -31 1926 -44 b 1908 -68 1926 -67 1918 -74 b 1899 -47 1900 -67 1899 -53 z m 1889 203 l 1935 203 l 1935 322 l 1957 203 l 1992 203 l 2014 325 l 2017 203 l 2060 203 l 2058 494 l 2007 494 l 1974 311 l 1940 494 l 1894 494 z m 1950 57 b 1994 64 1963 57 1983 54 b 2006 111 2010 72 2006 96 b 2000 160 2006 128 2010 150 b 1950 168 1985 169 1963 168 z m 1953 -82 l 1967 -82 l 1967 28 l 1953 28 z m 1967 65 l 1967 157 b 1992 139 1979 157 1990 157 l 1992 83 b 1967 65 1986 65 1976 65 z m 1972 939 l 2058 939 l 2058 961 l 2003 961 l 2003 1158 l 1972 1158 z m 1983 -25 b 2015 -83 1983 -47 1981 -83 b 2046 -26 2047 -83 2046 -50 b 2018 28 2046 -4 2050 26 b 1983 -25 1983 32 1983 4 z m 2003 -15 l 2003 -1 b 2025 15 2003 11 2007 22 b 2031 -31 2035 11 2031 -18 b 2007 -68 2031 -46 2032 -82 b 2003 -15 1994 -64 2003 -28 z m 2015 692 l 2046 692 l 2046 721 l 2015 721 z m 2015 910 l 2025 736 l 2035 736 l 2046 910 z m 2061 -82 l 2071 -82 l 2071 -6 l 2106 -82 l 2118 -82 l 2118 28 l 2106 28 l 2106 -46 l 2071 28 l 2061 28 z m 2067 203 l 2117 203 l 2126 272 l 2157 272 l 2167 203 l 2215 203 l 2165 494 l 2119 494 z m 2133 314 l 2140 372 l 2149 314 z m 2221 261 b 2281 200 2221 226 2251 203 b 2314 206 2292 199 2304 200 b 2351 299 2347 221 2351 263 l 2306 301 b 2286 244 2306 282 2308 249 b 2269 263 2279 243 2269 249 l 2269 433 b 2286 453 2269 449 2279 454 b 2306 397 2308 449 2306 415 l 2351 400 b 2314 492 2351 433 2347 476 b 2281 497 2304 497 2292 499 b 2221 436 2251 494 2221 472 z m 2376 203 l 2428 203 l 2428 326 l 2471 326 l 2471 203 l 2518 203 l 2518 494 l 2471 494 l 2471 378 l 2428 378 l 2428 494 l 2376 494 z m 2543 203 l 2593 203 l 2593 494 l 2543 494 z m 2618 203 l 2663 203 l 2663 346 l 2713 203 l 2750 203 l 2750 494 l 2703 494 l 2703 354 l 2653 494 l 2618 494 z m 2774 203 l 2888 203 l 2888 253 l 2822 253 l 2822 329 l 2875 329 l 2875 382 l 2822 382 l 2822 444 l 2888 444 l 2888 494 l 2774 494 z "},"6":{"ha":3090,"x_min":0,"x_max":0,"o":"m 1607 939 b 1665 982 1638 939 1658 950 b 1668 1032 1668 997 1668 1015 b 1663 1128 1668 1063 1674 1100 b 1604 1160 1654 1151 1628 1160 b 1553 1119 1581 1158 1557 1147 b 1549 1025 1546 1093 1549 1057 b 1551 985 1549 1013 1549 999 b 1607 939 1556 953 1575 939 z m 211 206 l 254 206 l 257 324 l 281 206 l 315 206 l 335 326 l 340 206 l 381 206 l 381 496 l 331 496 l 297 314 l 261 496 l 215 496 z m 419 206 l 465 206 l 465 347 l 515 206 l 551 206 l 551 496 l 506 496 l 506 357 l 456 496 l 419 496 z m 585 206 l 633 206 l 633 258 l 585 258 z m 651 307 b 664 236 651 282 656 258 b 733 201 675 210 706 197 b 785 260 765 210 783 235 b 750 357 789 297 778 331 l 728 383 b 700 417 718 393 706 400 b 721 454 696 428 697 456 b 739 399 739 451 735 417 l 783 400 b 746 493 783 435 779 478 b 656 443 704 513 657 485 b 667 375 650 418 656 393 b 693 344 671 364 685 357 b 739 272 710 326 739 303 b 726 249 739 260 735 251 b 708 258 718 244 713 251 b 697 310 697 274 697 293 z m 807 351 b 808 269 807 324 806 297 b 839 211 811 249 818 221 b 910 214 858 197 892 197 l 913 206 l 950 206 l 950 357 l 875 357 l 875 314 l 904 314 b 875 249 904 297 908 235 b 858 310 851 254 858 294 l 858 415 b 885 454 858 438 863 457 b 900 393 897 449 900 444 l 947 393 b 915 490 947 425 950 469 b 851 496 897 501 872 501 b 808 435 825 485 813 460 b 807 351 806 408 807 379 z m 960 168 l 1000 168 l 1083 533 l 1038 533 z m 972 -6 b 1006 -83 972 -33 964 -83 b 1031 -40 1029 -83 1031 -60 l 1018 -40 b 1017 -64 1018 -49 1019 -56 b 993 -67 1013 -72 997 -74 b 989 -26 988 -56 989 -35 b 993 14 989 -15 988 4 b 1017 11 997 21 1013 21 b 1018 -8 1019 4 1018 -4 l 1031 -8 b 1008 28 1031 8 1031 26 b 972 -6 983 32 972 15 z m 1046 -25 b 1076 -83 1046 -47 1039 -83 b 1108 -26 1108 -83 1108 -50 b 1078 28 1108 -4 1110 26 b 1046 -25 1046 32 1046 4 z m 1047 939 l 1076 939 l 1076 1040 b 1136 1053 1096 1040 1121 1038 b 1146 1133 1160 1071 1160 1108 b 1093 1158 1136 1156 1115 1158 l 1047 1158 z m 1050 772 b 1054 721 1050 751 1050 735 b 1129 692 1065 692 1104 679 b 1167 810 1175 706 1167 772 l 1167 910 l 1136 910 l 1136 828 l 1136 760 b 1096 710 1136 733 1128 701 b 1078 763 1076 721 1078 744 l 1078 910 l 1050 910 z m 1058 -15 l 1058 -1 b 1082 15 1058 11 1067 22 b 1090 -31 1093 11 1090 -18 b 1067 -68 1090 -46 1093 -82 b 1058 -15 1054 -64 1058 -28 z m 1076 1063 l 1076 1135 b 1108 1133 1086 1135 1097 1138 b 1126 1096 1126 1129 1126 1111 b 1108 1065 1126 1082 1124 1069 b 1076 1063 1097 1063 1086 1063 z m 1086 57 l 1104 57 l 1104 110 l 1124 110 l 1124 118 l 1104 118 l 1104 157 l 1129 157 l 1129 168 l 1086 168 z m 1093 203 l 1139 203 l 1139 322 l 1163 203 l 1196 203 l 1219 325 l 1221 203 l 1265 203 l 1264 494 l 1213 494 l 1179 311 l 1144 494 l 1100 494 z m 1121 -82 l 1135 -82 l 1135 -1 l 1153 -82 l 1165 -82 l 1182 -1 l 1182 -82 l 1193 -82 l 1193 28 l 1176 28 l 1160 -60 l 1139 28 l 1121 28 z m 1139 115 b 1171 56 1139 90 1136 56 b 1200 111 1200 56 1200 88 b 1171 169 1200 133 1203 165 b 1139 115 1139 169 1139 142 z m 1154 118 l 1154 136 b 1176 156 1154 150 1165 164 b 1185 108 1189 150 1185 118 b 1165 67 1185 90 1185 63 b 1154 118 1147 74 1154 110 z m 1176 939 l 1261 939 l 1261 961 l 1206 961 l 1206 1040 l 1251 1040 l 1251 1063 l 1206 1063 l 1206 1135 l 1260 1135 l 1260 1158 l 1176 1158 z m 1189 751 b 1249 689 1193 717 1213 689 b 1299 754 1285 689 1307 721 b 1256 814 1296 783 1274 796 b 1222 868 1238 828 1213 844 b 1249 883 1224 879 1233 889 b 1272 846 1267 881 1271 861 l 1296 853 b 1278 901 1296 872 1292 890 b 1225 910 1261 910 1240 913 b 1200 826 1189 899 1182 853 b 1242 785 1208 810 1231 796 b 1267 761 1256 779 1260 768 b 1263 718 1274 749 1278 728 b 1231 721 1256 707 1239 710 b 1219 760 1222 729 1222 744 z m 1213 -82 l 1225 -82 l 1228 -1 l 1242 -82 l 1256 -82 l 1272 -1 l 1274 -82 l 1285 -82 l 1282 28 l 1267 28 l 1249 -60 l 1231 28 l 1213 28 z m 1217 57 l 1231 57 l 1231 110 l 1242 110 l 1258 57 l 1274 57 l 1258 111 b 1258 165 1278 118 1274 156 b 1217 168 1246 169 1231 168 z m 1228 524 l 1242 524 l 1242 578 b 1274 583 1256 578 1263 575 b 1278 625 1282 592 1282 613 b 1228 639 1268 643 1242 639 z m 1231 118 l 1231 157 b 1258 139 1246 157 1258 156 b 1231 118 1258 121 1244 118 z m 1242 586 l 1242 629 b 1267 611 1258 629 1267 629 b 1258 588 1267 601 1267 593 b 1242 586 1256 586 1247 586 z m 1285 939 l 1318 939 l 1318 1042 l 1340 1042 l 1371 939 l 1397 939 l 1371 1049 b 1371 1149 1406 1063 1403 1131 b 1285 1158 1347 1161 1314 1158 z m 1290 308 b 1292 264 1290 294 1290 281 b 1333 206 1293 240 1307 215 b 1399 213 1354 200 1379 200 b 1428 308 1431 231 1428 275 l 1428 392 b 1399 488 1428 422 1431 468 b 1333 494 1379 499 1354 499 b 1292 432 1307 485 1293 458 b 1290 389 1290 418 1290 403 z m 1296 524 l 1336 524 l 1336 536 l 1307 536 l 1307 639 l 1296 639 z m 1303 -82 l 1347 -82 l 1347 -72 l 1319 -72 l 1319 -28 l 1342 -28 l 1342 -15 l 1319 -15 l 1319 18 l 1347 18 l 1347 28 l 1303 28 z m 1310 157 l 1329 157 l 1329 57 l 1347 57 l 1347 157 l 1368 157 l 1368 168 l 1310 168 z m 1318 1063 l 1318 1135 b 1349 1132 1325 1135 1336 1138 b 1365 1103 1363 1128 1365 1114 b 1349 1065 1367 1086 1363 1072 b 1318 1063 1336 1063 1325 1063 z m 1325 692 l 1410 692 l 1410 710 l 1354 710 l 1354 790 l 1399 790 l 1399 814 l 1354 814 l 1354 883 l 1410 883 l 1410 910 l 1325 910 z m 1339 314 l 1339 383 b 1343 443 1339 400 1336 422 b 1365 453 1344 446 1356 453 b 1379 433 1374 449 1379 444 b 1381 392 1383 421 1381 406 l 1381 308 b 1379 264 1381 293 1383 278 b 1365 247 1379 253 1374 251 b 1343 257 1356 244 1344 251 b 1339 314 1336 275 1339 299 z m 1349 524 l 1390 524 l 1390 536 l 1363 536 l 1363 578 l 1385 578 l 1385 588 l 1363 588 l 1363 629 l 1390 629 l 1390 639 l 1349 639 z m 1357 -82 l 1375 -82 l 1375 -28 l 1388 -28 l 1400 -82 l 1414 -82 l 1399 -26 b 1400 25 1418 -18 1415 15 b 1357 28 1388 32 1374 28 z m 1375 -15 l 1375 18 b 1399 -1 1388 18 1399 15 b 1375 -15 1399 -15 1388 -15 z m 1375 57 l 1388 57 l 1388 110 l 1419 110 l 1419 57 l 1436 57 l 1436 168 l 1419 168 l 1419 118 l 1388 118 l 1388 168 l 1375 168 z m 1397 524 l 1411 524 l 1414 554 l 1439 554 l 1444 524 l 1461 524 l 1439 639 l 1421 639 z m 1415 563 l 1429 618 l 1439 563 z m 1415 1000 b 1476 939 1418 965 1439 939 b 1528 1004 1514 939 1535 969 b 1483 1063 1522 1028 1500 1046 b 1447 1118 1467 1076 1443 1093 b 1476 1138 1450 1131 1464 1138 b 1500 1096 1494 1132 1497 1111 l 1525 1104 b 1506 1149 1524 1119 1519 1142 b 1454 1156 1492 1160 1467 1161 b 1428 1074 1415 1147 1410 1104 b 1468 1033 1439 1058 1458 1046 b 1494 1008 1482 1024 1488 1015 b 1494 968 1501 997 1506 975 b 1458 969 1483 958 1467 960 b 1446 1008 1450 978 1447 992 z m 1429 -6 b 1458 -83 1429 -33 1418 -83 b 1486 -40 1483 -83 1486 -60 l 1469 -40 b 1468 -64 1469 -49 1474 -56 b 1447 -67 1467 -72 1454 -74 b 1443 -26 1439 -56 1443 -35 b 1447 14 1443 -15 1439 4 b 1468 11 1454 21 1467 21 b 1469 -8 1474 4 1469 -4 l 1486 -8 b 1464 28 1486 8 1483 26 b 1429 -6 1439 32 1429 15 z m 1451 57 l 1494 57 l 1494 65 l 1467 65 l 1467 110 l 1489 110 l 1489 118 l 1467 118 l 1467 157 l 1494 157 l 1494 168 l 1451 168 z m 1453 203 l 1497 203 l 1497 346 l 1547 203 l 1585 203 l 1585 494 l 1538 494 l 1538 354 l 1488 494 l 1453 494 z m 1467 554 b 1497 524 1468 539 1481 524 b 1524 561 1518 524 1528 542 b 1497 588 1522 574 1507 581 b 1483 618 1489 596 1481 607 b 1510 607 1486 632 1500 638 l 1524 608 b 1507 638 1524 618 1518 632 b 1476 633 1497 640 1483 639 b 1483 585 1461 618 1468 596 b 1510 550 1492 575 1510 563 b 1492 536 1510 539 1501 535 b 1483 561 1483 539 1483 553 z m 1492 779 b 1494 733 1492 763 1492 749 b 1553 689 1497 704 1522 689 b 1607 732 1583 689 1603 703 b 1610 785 1614 749 1610 765 b 1604 879 1610 813 1615 850 b 1547 910 1597 901 1575 910 b 1494 872 1524 910 1501 899 b 1492 779 1488 844 1492 810 z m 1501 -82 l 1518 -82 l 1518 28 l 1501 28 z m 1524 760 l 1524 796 b 1524 867 1524 819 1519 846 b 1546 883 1528 879 1532 883 b 1572 879 1553 889 1563 883 b 1581 844 1583 869 1581 857 l 1581 765 b 1581 742 1581 760 1583 749 b 1563 714 1581 732 1575 721 b 1535 714 1556 710 1546 710 b 1524 760 1522 721 1524 742 z m 1528 -82 l 1546 -82 l 1551 -53 l 1575 -53 l 1581 -82 l 1594 -82 l 1568 28 l 1553 28 z m 1535 524 l 1583 524 l 1583 536 l 1553 536 l 1553 578 l 1575 578 l 1575 588 l 1553 588 l 1553 629 l 1581 629 l 1581 639 l 1535 639 z m 1542 57 l 1553 57 l 1553 110 l 1575 110 l 1575 118 l 1553 118 l 1553 157 l 1583 157 l 1583 168 l 1542 168 z m 1553 -44 l 1563 8 l 1572 -44 z m 1581 1006 l 1581 1046 b 1583 1114 1581 1067 1575 1096 b 1603 1135 1586 1128 1592 1133 b 1628 1128 1614 1138 1619 1138 b 1638 1090 1638 1118 1638 1104 l 1638 992 b 1621 963 1638 982 1635 969 b 1597 963 1615 960 1603 960 b 1581 1006 1581 971 1581 992 z m 1594 83 b 1631 57 1597 63 1610 50 b 1650 117 1653 65 1650 99 l 1650 168 l 1638 168 l 1638 118 b 1619 65 1638 106 1643 65 b 1606 118 1601 65 1606 106 l 1606 168 l 1594 168 l 1594 110 b 1594 83 1594 101 1592 90 z m 1604 -82 l 1647 -82 l 1647 -72 l 1618 -72 l 1618 28 l 1604 28 z m 1610 203 l 1722 203 l 1722 253 l 1657 253 l 1657 329 l 1710 329 l 1710 382 l 1657 382 l 1657 444 l 1722 444 l 1722 494 l 1610 494 z m 1618 639 l 1643 524 l 1658 524 l 1682 639 l 1668 639 l 1650 554 l 1635 639 z m 1643 692 l 1665 692 l 1665 839 l 1731 692 l 1751 692 l 1751 910 l 1724 910 l 1724 763 l 1663 910 l 1643 910 z m 1668 57 l 1710 57 l 1710 65 l 1685 65 l 1685 168 l 1668 168 z m 1686 28 l 1710 -82 l 1722 -82 l 1747 28 l 1733 28 l 1715 -53 l 1700 28 z m 1694 524 l 1710 524 l 1710 639 l 1694 639 z m 1700 939 l 1724 939 l 1724 1086 l 1786 939 l 1806 939 l 1806 1158 l 1778 1158 l 1778 1013 l 1717 1158 l 1700 1158 z m 1722 57 l 1764 57 l 1764 65 l 1738 65 l 1738 168 l 1722 168 z m 1725 554 b 1756 524 1728 539 1733 524 b 1778 561 1774 524 1785 542 b 1757 588 1778 574 1764 583 b 1742 618 1749 596 1735 606 b 1764 607 1747 632 1763 638 l 1778 608 b 1764 638 1778 618 1774 632 b 1733 633 1757 640 1743 639 b 1739 585 1715 618 1728 596 b 1764 550 1751 575 1767 563 b 1751 536 1764 539 1760 535 b 1739 561 1743 539 1739 553 z m 1735 494 l 1779 328 l 1779 203 l 1826 203 l 1826 321 l 1876 494 l 1825 494 l 1804 378 l 1785 494 z m 1760 -82 l 1804 -82 l 1804 -72 l 1775 -72 l 1775 -28 l 1799 -28 l 1799 -15 l 1775 -15 l 1775 18 l 1804 18 l 1804 28 l 1760 28 z m 1785 692 l 1867 692 l 1867 710 l 1814 710 l 1814 910 l 1785 910 z m 1793 524 l 1810 524 l 1810 639 l 1793 639 z m 1804 57 l 1817 57 l 1824 83 l 1846 83 l 1850 57 l 1867 57 l 1842 168 l 1824 168 z m 1815 -82 l 1831 -82 l 1831 -28 l 1842 -28 l 1856 -82 l 1872 -82 l 1854 -26 b 1858 25 1875 -19 1875 15 b 1815 28 1846 32 1829 28 z m 1819 629 l 1842 629 l 1842 524 l 1853 524 l 1853 629 l 1872 629 l 1872 639 l 1819 639 z m 1824 96 l 1833 146 l 1843 96 z m 1826 939 l 1854 939 l 1867 992 l 1911 992 l 1922 939 l 1950 939 l 1904 1158 l 1875 1158 z m 1831 -15 l 1831 18 b 1854 -1 1846 18 1854 15 b 1831 -15 1854 -15 1846 -15 z m 1871 1015 l 1890 1114 l 1908 1015 z m 1878 57 l 1893 57 l 1893 132 l 1922 57 l 1933 57 l 1933 168 l 1918 168 l 1918 94 l 1886 168 l 1878 168 z m 1878 910 l 1908 810 b 1922 768 1914 796 1918 785 b 1922 735 1924 760 1922 744 l 1922 692 l 1953 692 l 1953 743 b 1956 772 1953 751 1950 763 l 1971 817 b 2000 910 1979 849 1990 879 l 1971 910 l 1938 803 l 1904 910 z m 1883 -50 b 1914 -83 1885 -68 1894 -83 b 1938 -49 1935 -83 1943 -67 b 1915 -15 1938 -33 1924 -26 b 1900 11 1908 -8 1894 -1 b 1917 18 1904 18 1910 21 b 1926 -4 1924 15 1924 4 l 1938 3 b 1924 26 1938 14 1935 22 b 1893 22 1915 32 1904 31 b 1899 -25 1878 14 1885 -11 b 1926 -57 1908 -31 1926 -44 b 1908 -68 1926 -67 1918 -74 b 1899 -47 1900 -67 1899 -53 z m 1889 203 l 1935 203 l 1935 322 l 1957 203 l 1992 203 l 2014 325 l 2017 203 l 2060 203 l 2058 494 l 2007 494 l 1974 311 l 1940 494 l 1894 494 z m 1950 57 b 1994 64 1963 57 1983 54 b 2006 111 2010 72 2006 96 b 2000 160 2006 128 2010 150 b 1950 168 1985 169 1963 168 z m 1953 -82 l 1967 -82 l 1967 28 l 1953 28 z m 1967 65 l 1967 157 b 1992 139 1979 157 1990 157 l 1992 83 b 1967 65 1986 65 1976 65 z m 1972 939 l 2058 939 l 2058 961 l 2003 961 l 2003 1158 l 1972 1158 z m 1983 -25 b 2015 -83 1983 -47 1981 -83 b 2046 -26 2047 -83 2046 -50 b 2018 28 2046 -4 2050 26 b 1983 -25 1983 32 1983 4 z m 2003 -15 l 2003 -1 b 2025 15 2003 11 2007 22 b 2031 -31 2035 11 2031 -18 b 2007 -68 2031 -46 2032 -82 b 2003 -15 1994 -64 2003 -28 z m 2015 692 l 2046 692 l 2046 721 l 2015 721 z m 2015 910 l 2025 736 l 2035 736 l 2046 910 z m 2061 -82 l 2071 -82 l 2071 -6 l 2106 -82 l 2118 -82 l 2118 28 l 2106 28 l 2106 -46 l 2071 28 l 2061 28 z m 2067 203 l 2117 203 l 2126 272 l 2157 272 l 2167 203 l 2215 203 l 2165 494 l 2119 494 z m 2133 314 l 2140 372 l 2149 314 z m 2221 261 b 2281 200 2221 226 2251 203 b 2314 206 2292 199 2304 200 b 2351 299 2347 221 2351 263 l 2306 301 b 2286 244 2306 282 2308 249 b 2269 263 2279 243 2269 249 l 2269 433 b 2286 453 2269 449 2279 454 b 2306 397 2308 449 2306 415 l 2351 400 b 2314 492 2351 433 2347 476 b 2281 497 2304 497 2292 499 b 2221 436 2251 494 2221 472 z m 2376 203 l 2428 203 l 2428 326 l 2471 326 l 2471 203 l 2518 203 l 2518 494 l 2471 494 l 2471 378 l 2428 378 l 2428 494 l 2376 494 z m 2543 203 l 2593 203 l 2593 494 l 2543 494 z m 2618 203 l 2663 203 l 2663 346 l 2713 203 l 2750 203 l 2750 494 l 2703 494 l 2703 354 l 2653 494 l 2618 494 z m 2774 203 l 2888 203 l 2888 253 l 2822 253 l 2822 329 l 2875 329 l 2875 382 l 2822 382 l 2822 444 l 2888 444 l 2888 494 l 2774 494 z "},"7":{"ha":3090,"x_min":0,"x_max":0,"o":"m 1607 939 b 1665 982 1638 939 1658 950 b 1668 1032 1668 997 1668 1015 b 1663 1128 1668 1063 1674 1100 b 1604 1160 1654 1151 1628 1160 b 1553 1119 1581 1158 1557 1147 b 1549 1025 1546 1093 1549 1057 b 1551 985 1549 1013 1549 999 b 1607 939 1556 953 1575 939 z m 211 206 l 254 206 l 257 324 l 281 206 l 315 206 l 335 326 l 340 206 l 381 206 l 381 496 l 331 496 l 297 314 l 261 496 l 215 496 z m 419 206 l 465 206 l 465 347 l 515 206 l 551 206 l 551 496 l 506 496 l 506 357 l 456 496 l 419 496 z m 585 206 l 633 206 l 633 258 l 585 258 z m 651 307 b 664 236 651 282 656 258 b 733 201 675 210 706 197 b 785 260 765 210 783 235 b 750 357 789 297 778 331 l 728 383 b 700 417 718 393 706 400 b 721 454 696 428 697 456 b 739 399 739 451 735 417 l 783 400 b 746 493 783 435 779 478 b 656 443 704 513 657 485 b 667 375 650 418 656 393 b 693 344 671 364 685 357 b 739 272 710 326 739 303 b 726 249 739 260 735 251 b 708 258 718 244 713 251 b 697 310 697 274 697 293 z m 807 351 b 808 269 807 324 806 297 b 839 211 811 249 818 221 b 910 214 858 197 892 197 l 913 206 l 950 206 l 950 357 l 875 357 l 875 314 l 904 314 b 875 249 904 297 908 235 b 858 310 851 254 858 294 l 858 415 b 885 454 858 438 863 457 b 900 393 897 449 900 444 l 947 393 b 915 490 947 425 950 469 b 851 496 897 501 872 501 b 808 435 825 485 813 460 b 807 351 806 408 807 379 z m 960 168 l 1000 168 l 1083 533 l 1038 533 z m 972 -6 b 1006 -83 972 -33 964 -83 b 1031 -40 1029 -83 1031 -60 l 1018 -40 b 1017 -64 1018 -49 1019 -56 b 993 -67 1013 -72 997 -74 b 989 -26 988 -56 989 -35 b 993 14 989 -15 988 4 b 1017 11 997 21 1013 21 b 1018 -8 1019 4 1018 -4 l 1031 -8 b 1008 28 1031 8 1031 26 b 972 -6 983 32 972 15 z m 1046 -25 b 1076 -83 1046 -47 1039 -83 b 1108 -26 1108 -83 1108 -50 b 1078 28 1108 -4 1110 26 b 1046 -25 1046 32 1046 4 z m 1047 939 l 1076 939 l 1076 1040 b 1136 1053 1096 1040 1121 1038 b 1146 1133 1160 1071 1160 1108 b 1093 1158 1136 1156 1115 1158 l 1047 1158 z m 1050 772 b 1054 721 1050 751 1050 735 b 1129 692 1065 692 1104 679 b 1167 810 1175 706 1167 772 l 1167 910 l 1136 910 l 1136 828 l 1136 760 b 1096 710 1136 733 1128 701 b 1078 763 1076 721 1078 744 l 1078 910 l 1050 910 z m 1058 -15 l 1058 -1 b 1082 15 1058 11 1067 22 b 1090 -31 1093 11 1090 -18 b 1067 -68 1090 -46 1093 -82 b 1058 -15 1054 -64 1058 -28 z m 1076 1063 l 1076 1135 b 1108 1133 1086 1135 1097 1138 b 1126 1096 1126 1129 1126 1111 b 1108 1065 1126 1082 1124 1069 b 1076 1063 1097 1063 1086 1063 z m 1086 57 l 1104 57 l 1104 110 l 1124 110 l 1124 118 l 1104 118 l 1104 157 l 1129 157 l 1129 168 l 1086 168 z m 1093 203 l 1139 203 l 1139 322 l 1163 203 l 1196 203 l 1219 325 l 1221 203 l 1265 203 l 1264 494 l 1213 494 l 1179 311 l 1144 494 l 1100 494 z m 1121 -82 l 1135 -82 l 1135 -1 l 1153 -82 l 1165 -82 l 1182 -1 l 1182 -82 l 1193 -82 l 1193 28 l 1176 28 l 1160 -60 l 1139 28 l 1121 28 z m 1139 115 b 1171 56 1139 90 1136 56 b 1200 111 1200 56 1200 88 b 1171 169 1200 133 1203 165 b 1139 115 1139 169 1139 142 z m 1154 118 l 1154 136 b 1176 156 1154 150 1165 164 b 1185 108 1189 150 1185 118 b 1165 67 1185 90 1185 63 b 1154 118 1147 74 1154 110 z m 1176 939 l 1261 939 l 1261 961 l 1206 961 l 1206 1040 l 1251 1040 l 1251 1063 l 1206 1063 l 1206 1135 l 1260 1135 l 1260 1158 l 1176 1158 z m 1189 751 b 1249 689 1193 717 1213 689 b 1299 754 1285 689 1307 721 b 1256 814 1296 783 1274 796 b 1222 868 1238 828 1213 844 b 1249 883 1224 879 1233 889 b 1272 846 1267 881 1271 861 l 1296 853 b 1278 901 1296 872 1292 890 b 1225 910 1261 910 1240 913 b 1200 826 1189 899 1182 853 b 1242 785 1208 810 1231 796 b 1267 761 1256 779 1260 768 b 1263 718 1274 749 1278 728 b 1231 721 1256 707 1239 710 b 1219 760 1222 729 1222 744 z m 1213 -82 l 1225 -82 l 1228 -1 l 1242 -82 l 1256 -82 l 1272 -1 l 1274 -82 l 1285 -82 l 1282 28 l 1267 28 l 1249 -60 l 1231 28 l 1213 28 z m 1217 57 l 1231 57 l 1231 110 l 1242 110 l 1258 57 l 1274 57 l 1258 111 b 1258 165 1278 118 1274 156 b 1217 168 1246 169 1231 168 z m 1228 524 l 1242 524 l 1242 578 b 1274 583 1256 578 1263 575 b 1278 625 1282 592 1282 613 b 1228 639 1268 643 1242 639 z m 1231 118 l 1231 157 b 1258 139 1246 157 1258 156 b 1231 118 1258 121 1244 118 z m 1242 586 l 1242 629 b 1267 611 1258 629 1267 629 b 1258 588 1267 601 1267 593 b 1242 586 1256 586 1247 586 z m 1285 939 l 1318 939 l 1318 1042 l 1340 1042 l 1371 939 l 1397 939 l 1371 1049 b 1371 1149 1406 1063 1403 1131 b 1285 1158 1347 1161 1314 1158 z m 1290 308 b 1292 264 1290 294 1290 281 b 1333 206 1293 240 1307 215 b 1399 213 1354 200 1379 200 b 1428 308 1431 231 1428 275 l 1428 392 b 1399 488 1428 422 1431 468 b 1333 494 1379 499 1354 499 b 1292 432 1307 485 1293 458 b 1290 389 1290 418 1290 403 z m 1296 524 l 1336 524 l 1336 536 l 1307 536 l 1307 639 l 1296 639 z m 1303 -82 l 1347 -82 l 1347 -72 l 1319 -72 l 1319 -28 l 1342 -28 l 1342 -15 l 1319 -15 l 1319 18 l 1347 18 l 1347 28 l 1303 28 z m 1310 157 l 1329 157 l 1329 57 l 1347 57 l 1347 157 l 1368 157 l 1368 168 l 1310 168 z m 1318 1063 l 1318 1135 b 1349 1132 1325 1135 1336 1138 b 1365 1103 1363 1128 1365 1114 b 1349 1065 1367 1086 1363 1072 b 1318 1063 1336 1063 1325 1063 z m 1325 692 l 1410 692 l 1410 710 l 1354 710 l 1354 790 l 1399 790 l 1399 814 l 1354 814 l 1354 883 l 1410 883 l 1410 910 l 1325 910 z m 1339 314 l 1339 383 b 1343 443 1339 400 1336 422 b 1365 453 1344 446 1356 453 b 1379 433 1374 449 1379 444 b 1381 392 1383 421 1381 406 l 1381 308 b 1379 264 1381 293 1383 278 b 1365 247 1379 253 1374 251 b 1343 257 1356 244 1344 251 b 1339 314 1336 275 1339 299 z m 1349 524 l 1390 524 l 1390 536 l 1363 536 l 1363 578 l 1385 578 l 1385 588 l 1363 588 l 1363 629 l 1390 629 l 1390 639 l 1349 639 z m 1357 -82 l 1375 -82 l 1375 -28 l 1388 -28 l 1400 -82 l 1414 -82 l 1399 -26 b 1400 25 1418 -18 1415 15 b 1357 28 1388 32 1374 28 z m 1375 -15 l 1375 18 b 1399 -1 1388 18 1399 15 b 1375 -15 1399 -15 1388 -15 z m 1375 57 l 1388 57 l 1388 110 l 1419 110 l 1419 57 l 1436 57 l 1436 168 l 1419 168 l 1419 118 l 1388 118 l 1388 168 l 1375 168 z m 1397 524 l 1411 524 l 1414 554 l 1439 554 l 1444 524 l 1461 524 l 1439 639 l 1421 639 z m 1415 563 l 1429 618 l 1439 563 z m 1415 1000 b 1476 939 1418 965 1439 939 b 1528 1004 1514 939 1535 969 b 1483 1063 1522 1028 1500 1046 b 1447 1118 1467 1076 1443 1093 b 1476 1138 1450 1131 1464 1138 b 1500 1096 1494 1132 1497 1111 l 1525 1104 b 1506 1149 1524 1119 1519 1142 b 1454 1156 1492 1160 1467 1161 b 1428 1074 1415 1147 1410 1104 b 1468 1033 1439 1058 1458 1046 b 1494 1008 1482 1024 1488 1015 b 1494 968 1501 997 1506 975 b 1458 969 1483 958 1467 960 b 1446 1008 1450 978 1447 992 z m 1429 -6 b 1458 -83 1429 -33 1418 -83 b 1486 -40 1483 -83 1486 -60 l 1469 -40 b 1468 -64 1469 -49 1474 -56 b 1447 -67 1467 -72 1454 -74 b 1443 -26 1439 -56 1443 -35 b 1447 14 1443 -15 1439 4 b 1468 11 1454 21 1467 21 b 1469 -8 1474 4 1469 -4 l 1486 -8 b 1464 28 1486 8 1483 26 b 1429 -6 1439 32 1429 15 z m 1451 57 l 1494 57 l 1494 65 l 1467 65 l 1467 110 l 1489 110 l 1489 118 l 1467 118 l 1467 157 l 1494 157 l 1494 168 l 1451 168 z m 1453 203 l 1497 203 l 1497 346 l 1547 203 l 1585 203 l 1585 494 l 1538 494 l 1538 354 l 1488 494 l 1453 494 z m 1467 554 b 1497 524 1468 539 1481 524 b 1524 561 1518 524 1528 542 b 1497 588 1522 574 1507 581 b 1483 618 1489 596 1481 607 b 1510 607 1486 632 1500 638 l 1524 608 b 1507 638 1524 618 1518 632 b 1476 633 1497 640 1483 639 b 1483 585 1461 618 1468 596 b 1510 550 1492 575 1510 563 b 1492 536 1510 539 1501 535 b 1483 561 1483 539 1483 553 z m 1492 779 b 1494 733 1492 763 1492 749 b 1553 689 1497 704 1522 689 b 1607 732 1583 689 1603 703 b 1610 785 1614 749 1610 765 b 1604 879 1610 813 1615 850 b 1547 910 1597 901 1575 910 b 1494 872 1524 910 1501 899 b 1492 779 1488 844 1492 810 z m 1501 -82 l 1518 -82 l 1518 28 l 1501 28 z m 1524 760 l 1524 796 b 1524 867 1524 819 1519 846 b 1546 883 1528 879 1532 883 b 1572 879 1553 889 1563 883 b 1581 844 1583 869 1581 857 l 1581 765 b 1581 742 1581 760 1583 749 b 1563 714 1581 732 1575 721 b 1535 714 1556 710 1546 710 b 1524 760 1522 721 1524 742 z m 1528 -82 l 1546 -82 l 1551 -53 l 1575 -53 l 1581 -82 l 1594 -82 l 1568 28 l 1553 28 z m 1535 524 l 1583 524 l 1583 536 l 1553 536 l 1553 578 l 1575 578 l 1575 588 l 1553 588 l 1553 629 l 1581 629 l 1581 639 l 1535 639 z m 1542 57 l 1553 57 l 1553 110 l 1575 110 l 1575 118 l 1553 118 l 1553 157 l 1583 157 l 1583 168 l 1542 168 z m 1553 -44 l 1563 8 l 1572 -44 z m 1581 1006 l 1581 1046 b 1583 1114 1581 1067 1575 1096 b 1603 1135 1586 1128 1592 1133 b 1628 1128 1614 1138 1619 1138 b 1638 1090 1638 1118 1638 1104 l 1638 992 b 1621 963 1638 982 1635 969 b 1597 963 1615 960 1603 960 b 1581 1006 1581 971 1581 992 z m 1594 83 b 1631 57 1597 63 1610 50 b 1650 117 1653 65 1650 99 l 1650 168 l 1638 168 l 1638 118 b 1619 65 1638 106 1643 65 b 1606 118 1601 65 1606 106 l 1606 168 l 1594 168 l 1594 110 b 1594 83 1594 101 1592 90 z m 1604 -82 l 1647 -82 l 1647 -72 l 1618 -72 l 1618 28 l 1604 28 z m 1610 203 l 1722 203 l 1722 253 l 1657 253 l 1657 329 l 1710 329 l 1710 382 l 1657 382 l 1657 444 l 1722 444 l 1722 494 l 1610 494 z m 1618 639 l 1643 524 l 1658 524 l 1682 639 l 1668 639 l 1650 554 l 1635 639 z m 1643 692 l 1665 692 l 1665 839 l 1731 692 l 1751 692 l 1751 910 l 1724 910 l 1724 763 l 1663 910 l 1643 910 z m 1668 57 l 1710 57 l 1710 65 l 1685 65 l 1685 168 l 1668 168 z m 1686 28 l 1710 -82 l 1722 -82 l 1747 28 l 1733 28 l 1715 -53 l 1700 28 z m 1694 524 l 1710 524 l 1710 639 l 1694 639 z m 1700 939 l 1724 939 l 1724 1086 l 1786 939 l 1806 939 l 1806 1158 l 1778 1158 l 1778 1013 l 1717 1158 l 1700 1158 z m 1722 57 l 1764 57 l 1764 65 l 1738 65 l 1738 168 l 1722 168 z m 1725 554 b 1756 524 1728 539 1733 524 b 1778 561 1774 524 1785 542 b 1757 588 1778 574 1764 583 b 1742 618 1749 596 1735 606 b 1764 607 1747 632 1763 638 l 1778 608 b 1764 638 1778 618 1774 632 b 1733 633 1757 640 1743 639 b 1739 585 1715 618 1728 596 b 1764 550 1751 575 1767 563 b 1751 536 1764 539 1760 535 b 1739 561 1743 539 1739 553 z m 1735 494 l 1779 328 l 1779 203 l 1826 203 l 1826 321 l 1876 494 l 1825 494 l 1804 378 l 1785 494 z m 1760 -82 l 1804 -82 l 1804 -72 l 1775 -72 l 1775 -28 l 1799 -28 l 1799 -15 l 1775 -15 l 1775 18 l 1804 18 l 1804 28 l 1760 28 z m 1785 692 l 1867 692 l 1867 710 l 1814 710 l 1814 910 l 1785 910 z m 1793 524 l 1810 524 l 1810 639 l 1793 639 z m 1804 57 l 1817 57 l 1824 83 l 1846 83 l 1850 57 l 1867 57 l 1842 168 l 1824 168 z m 1815 -82 l 1831 -82 l 1831 -28 l 1842 -28 l 1856 -82 l 1872 -82 l 1854 -26 b 1858 25 1875 -19 1875 15 b 1815 28 1846 32 1829 28 z m 1819 629 l 1842 629 l 1842 524 l 1853 524 l 1853 629 l 1872 629 l 1872 639 l 1819 639 z m 1824 96 l 1833 146 l 1843 96 z m 1826 939 l 1854 939 l 1867 992 l 1911 992 l 1922 939 l 1950 939 l 1904 1158 l 1875 1158 z m 1831 -15 l 1831 18 b 1854 -1 1846 18 1854 15 b 1831 -15 1854 -15 1846 -15 z m 1871 1015 l 1890 1114 l 1908 1015 z m 1878 57 l 1893 57 l 1893 132 l 1922 57 l 1933 57 l 1933 168 l 1918 168 l 1918 94 l 1886 168 l 1878 168 z m 1878 910 l 1908 810 b 1922 768 1914 796 1918 785 b 1922 735 1924 760 1922 744 l 1922 692 l 1953 692 l 1953 743 b 1956 772 1953 751 1950 763 l 1971 817 b 2000 910 1979 849 1990 879 l 1971 910 l 1938 803 l 1904 910 z m 1883 -50 b 1914 -83 1885 -68 1894 -83 b 1938 -49 1935 -83 1943 -67 b 1915 -15 1938 -33 1924 -26 b 1900 11 1908 -8 1894 -1 b 1917 18 1904 18 1910 21 b 1926 -4 1924 15 1924 4 l 1938 3 b 1924 26 1938 14 1935 22 b 1893 22 1915 32 1904 31 b 1899 -25 1878 14 1885 -11 b 1926 -57 1908 -31 1926 -44 b 1908 -68 1926 -67 1918 -74 b 1899 -47 1900 -67 1899 -53 z m 1889 203 l 1935 203 l 1935 322 l 1957 203 l 1992 203 l 2014 325 l 2017 203 l 2060 203 l 2058 494 l 2007 494 l 1974 311 l 1940 494 l 1894 494 z m 1950 57 b 1994 64 1963 57 1983 54 b 2006 111 2010 72 2006 96 b 2000 160 2006 128 2010 150 b 1950 168 1985 169 1963 168 z m 1953 -82 l 1967 -82 l 1967 28 l 1953 28 z m 1967 65 l 1967 157 b 1992 139 1979 157 1990 157 l 1992 83 b 1967 65 1986 65 1976 65 z m 1972 939 l 2058 939 l 2058 961 l 2003 961 l 2003 1158 l 1972 1158 z m 1983 -25 b 2015 -83 1983 -47 1981 -83 b 2046 -26 2047 -83 2046 -50 b 2018 28 2046 -4 2050 26 b 1983 -25 1983 32 1983 4 z m 2003 -15 l 2003 -1 b 2025 15 2003 11 2007 22 b 2031 -31 2035 11 2031 -18 b 2007 -68 2031 -46 2032 -82 b 2003 -15 1994 -64 2003 -28 z m 2015 692 l 2046 692 l 2046 721 l 2015 721 z m 2015 910 l 2025 736 l 2035 736 l 2046 910 z m 2061 -82 l 2071 -82 l 2071 -6 l 2106 -82 l 2118 -82 l 2118 28 l 2106 28 l 2106 -46 l 2071 28 l 2061 28 z m 2067 203 l 2117 203 l 2126 272 l 2157 272 l 2167 203 l 2215 203 l 2165 494 l 2119 494 z m 2133 314 l 2140 372 l 2149 314 z m 2221 261 b 2281 200 2221 226 2251 203 b 2314 206 2292 199 2304 200 b 2351 299 2347 221 2351 263 l 2306 301 b 2286 244 2306 282 2308 249 b 2269 263 2279 243 2269 249 l 2269 433 b 2286 453 2269 449 2279 454 b 2306 397 2308 449 2306 415 l 2351 400 b 2314 492 2351 433 2347 476 b 2281 497 2304 497 2292 499 b 2221 436 2251 494 2221 472 z m 2376 203 l 2428 203 l 2428 326 l 2471 326 l 2471 203 l 2518 203 l 2518 494 l 2471 494 l 2471 378 l 2428 378 l 2428 494 l 2376 494 z m 2543 203 l 2593 203 l 2593 494 l 2543 494 z m 2618 203 l 2663 203 l 2663 346 l 2713 203 l 2750 203 l 2750 494 l 2703 494 l 2703 354 l 2653 494 l 2618 494 z m 2774 203 l 2888 203 l 2888 253 l 2822 253 l 2822 329 l 2875 329 l 2875 382 l 2822 382 l 2822 444 l 2888 444 l 2888 494 l 2774 494 z "},"8":{"ha":3090,"x_min":0,"x_max":0,"o":"m 1607 939 b 1665 982 1638 939 1658 950 b 1668 1032 1668 997 1668 1015 b 1663 1128 1668 1063 1674 1100 b 1604 1160 1654 1151 1628 1160 b 1553 1119 1581 1158 1557 1147 b 1549 1025 1546 1093 1549 1057 b 1551 985 1549 1013 1549 999 b 1607 939 1556 953 1575 939 z m 211 206 l 254 206 l 257 324 l 281 206 l 315 206 l 335 326 l 340 206 l 381 206 l 381 496 l 331 496 l 297 314 l 261 496 l 215 496 z m 419 206 l 465 206 l 465 347 l 515 206 l 551 206 l 551 496 l 506 496 l 506 357 l 456 496 l 419 496 z m 585 206 l 633 206 l 633 258 l 585 258 z m 651 307 b 664 236 651 282 656 258 b 733 201 675 210 706 197 b 785 260 765 210 783 235 b 750 357 789 297 778 331 l 728 383 b 700 417 718 393 706 400 b 721 454 696 428 697 456 b 739 399 739 451 735 417 l 783 400 b 746 493 783 435 779 478 b 656 443 704 513 657 485 b 667 375 650 418 656 393 b 693 344 671 364 685 357 b 739 272 710 326 739 303 b 726 249 739 260 735 251 b 708 258 718 244 713 251 b 697 310 697 274 697 293 z m 807 351 b 808 269 807 324 806 297 b 839 211 811 249 818 221 b 910 214 858 197 892 197 l 913 206 l 950 206 l 950 357 l 875 357 l 875 314 l 904 314 b 875 249 904 297 908 235 b 858 310 851 254 858 294 l 858 415 b 885 454 858 438 863 457 b 900 393 897 449 900 444 l 947 393 b 915 490 947 425 950 469 b 851 496 897 501 872 501 b 808 435 825 485 813 460 b 807 351 806 408 807 379 z m 960 168 l 1000 168 l 1083 533 l 1038 533 z m 972 -6 b 1006 -83 972 -33 964 -83 b 1031 -40 1029 -83 1031 -60 l 1018 -40 b 1017 -64 1018 -49 1019 -56 b 993 -67 1013 -72 997 -74 b 989 -26 988 -56 989 -35 b 993 14 989 -15 988 4 b 1017 11 997 21 1013 21 b 1018 -8 1019 4 1018 -4 l 1031 -8 b 1008 28 1031 8 1031 26 b 972 -6 983 32 972 15 z m 1046 -25 b 1076 -83 1046 -47 1039 -83 b 1108 -26 1108 -83 1108 -50 b 1078 28 1108 -4 1110 26 b 1046 -25 1046 32 1046 4 z m 1047 939 l 1076 939 l 1076 1040 b 1136 1053 1096 1040 1121 1038 b 1146 1133 1160 1071 1160 1108 b 1093 1158 1136 1156 1115 1158 l 1047 1158 z m 1050 772 b 1054 721 1050 751 1050 735 b 1129 692 1065 692 1104 679 b 1167 810 1175 706 1167 772 l 1167 910 l 1136 910 l 1136 828 l 1136 760 b 1096 710 1136 733 1128 701 b 1078 763 1076 721 1078 744 l 1078 910 l 1050 910 z m 1058 -15 l 1058 -1 b 1082 15 1058 11 1067 22 b 1090 -31 1093 11 1090 -18 b 1067 -68 1090 -46 1093 -82 b 1058 -15 1054 -64 1058 -28 z m 1076 1063 l 1076 1135 b 1108 1133 1086 1135 1097 1138 b 1126 1096 1126 1129 1126 1111 b 1108 1065 1126 1082 1124 1069 b 1076 1063 1097 1063 1086 1063 z m 1086 57 l 1104 57 l 1104 110 l 1124 110 l 1124 118 l 1104 118 l 1104 157 l 1129 157 l 1129 168 l 1086 168 z m 1093 203 l 1139 203 l 1139 322 l 1163 203 l 1196 203 l 1219 325 l 1221 203 l 1265 203 l 1264 494 l 1213 494 l 1179 311 l 1144 494 l 1100 494 z m 1121 -82 l 1135 -82 l 1135 -1 l 1153 -82 l 1165 -82 l 1182 -1 l 1182 -82 l 1193 -82 l 1193 28 l 1176 28 l 1160 -60 l 1139 28 l 1121 28 z m 1139 115 b 1171 56 1139 90 1136 56 b 1200 111 1200 56 1200 88 b 1171 169 1200 133 1203 165 b 1139 115 1139 169 1139 142 z m 1154 118 l 1154 136 b 1176 156 1154 150 1165 164 b 1185 108 1189 150 1185 118 b 1165 67 1185 90 1185 63 b 1154 118 1147 74 1154 110 z m 1176 939 l 1261 939 l 1261 961 l 1206 961 l 1206 1040 l 1251 1040 l 1251 1063 l 1206 1063 l 1206 1135 l 1260 1135 l 1260 1158 l 1176 1158 z m 1189 751 b 1249 689 1193 717 1213 689 b 1299 754 1285 689 1307 721 b 1256 814 1296 783 1274 796 b 1222 868 1238 828 1213 844 b 1249 883 1224 879 1233 889 b 1272 846 1267 881 1271 861 l 1296 853 b 1278 901 1296 872 1292 890 b 1225 910 1261 910 1240 913 b 1200 826 1189 899 1182 853 b 1242 785 1208 810 1231 796 b 1267 761 1256 779 1260 768 b 1263 718 1274 749 1278 728 b 1231 721 1256 707 1239 710 b 1219 760 1222 729 1222 744 z m 1213 -82 l 1225 -82 l 1228 -1 l 1242 -82 l 1256 -82 l 1272 -1 l 1274 -82 l 1285 -82 l 1282 28 l 1267 28 l 1249 -60 l 1231 28 l 1213 28 z m 1217 57 l 1231 57 l 1231 110 l 1242 110 l 1258 57 l 1274 57 l 1258 111 b 1258 165 1278 118 1274 156 b 1217 168 1246 169 1231 168 z m 1228 524 l 1242 524 l 1242 578 b 1274 583 1256 578 1263 575 b 1278 625 1282 592 1282 613 b 1228 639 1268 643 1242 639 z m 1231 118 l 1231 157 b 1258 139 1246 157 1258 156 b 1231 118 1258 121 1244 118 z m 1242 586 l 1242 629 b 1267 611 1258 629 1267 629 b 1258 588 1267 601 1267 593 b 1242 586 1256 586 1247 586 z m 1285 939 l 1318 939 l 1318 1042 l 1340 1042 l 1371 939 l 1397 939 l 1371 1049 b 1371 1149 1406 1063 1403 1131 b 1285 1158 1347 1161 1314 1158 z m 1290 308 b 1292 264 1290 294 1290 281 b 1333 206 1293 240 1307 215 b 1399 213 1354 200 1379 200 b 1428 308 1431 231 1428 275 l 1428 392 b 1399 488 1428 422 1431 468 b 1333 494 1379 499 1354 499 b 1292 432 1307 485 1293 458 b 1290 389 1290 418 1290 403 z m 1296 524 l 1336 524 l 1336 536 l 1307 536 l 1307 639 l 1296 639 z m 1303 -82 l 1347 -82 l 1347 -72 l 1319 -72 l 1319 -28 l 1342 -28 l 1342 -15 l 1319 -15 l 1319 18 l 1347 18 l 1347 28 l 1303 28 z m 1310 157 l 1329 157 l 1329 57 l 1347 57 l 1347 157 l 1368 157 l 1368 168 l 1310 168 z m 1318 1063 l 1318 1135 b 1349 1132 1325 1135 1336 1138 b 1365 1103 1363 1128 1365 1114 b 1349 1065 1367 1086 1363 1072 b 1318 1063 1336 1063 1325 1063 z m 1325 692 l 1410 692 l 1410 710 l 1354 710 l 1354 790 l 1399 790 l 1399 814 l 1354 814 l 1354 883 l 1410 883 l 1410 910 l 1325 910 z m 1339 314 l 1339 383 b 1343 443 1339 400 1336 422 b 1365 453 1344 446 1356 453 b 1379 433 1374 449 1379 444 b 1381 392 1383 421 1381 406 l 1381 308 b 1379 264 1381 293 1383 278 b 1365 247 1379 253 1374 251 b 1343 257 1356 244 1344 251 b 1339 314 1336 275 1339 299 z m 1349 524 l 1390 524 l 1390 536 l 1363 536 l 1363 578 l 1385 578 l 1385 588 l 1363 588 l 1363 629 l 1390 629 l 1390 639 l 1349 639 z m 1357 -82 l 1375 -82 l 1375 -28 l 1388 -28 l 1400 -82 l 1414 -82 l 1399 -26 b 1400 25 1418 -18 1415 15 b 1357 28 1388 32 1374 28 z m 1375 -15 l 1375 18 b 1399 -1 1388 18 1399 15 b 1375 -15 1399 -15 1388 -15 z m 1375 57 l 1388 57 l 1388 110 l 1419 110 l 1419 57 l 1436 57 l 1436 168 l 1419 168 l 1419 118 l 1388 118 l 1388 168 l 1375 168 z m 1397 524 l 1411 524 l 1414 554 l 1439 554 l 1444 524 l 1461 524 l 1439 639 l 1421 639 z m 1415 563 l 1429 618 l 1439 563 z m 1415 1000 b 1476 939 1418 965 1439 939 b 1528 1004 1514 939 1535 969 b 1483 1063 1522 1028 1500 1046 b 1447 1118 1467 1076 1443 1093 b 1476 1138 1450 1131 1464 1138 b 1500 1096 1494 1132 1497 1111 l 1525 1104 b 1506 1149 1524 1119 1519 1142 b 1454 1156 1492 1160 1467 1161 b 1428 1074 1415 1147 1410 1104 b 1468 1033 1439 1058 1458 1046 b 1494 1008 1482 1024 1488 1015 b 1494 968 1501 997 1506 975 b 1458 969 1483 958 1467 960 b 1446 1008 1450 978 1447 992 z m 1429 -6 b 1458 -83 1429 -33 1418 -83 b 1486 -40 1483 -83 1486 -60 l 1469 -40 b 1468 -64 1469 -49 1474 -56 b 1447 -67 1467 -72 1454 -74 b 1443 -26 1439 -56 1443 -35 b 1447 14 1443 -15 1439 4 b 1468 11 1454 21 1467 21 b 1469 -8 1474 4 1469 -4 l 1486 -8 b 1464 28 1486 8 1483 26 b 1429 -6 1439 32 1429 15 z m 1451 57 l 1494 57 l 1494 65 l 1467 65 l 1467 110 l 1489 110 l 1489 118 l 1467 118 l 1467 157 l 1494 157 l 1494 168 l 1451 168 z m 1453 203 l 1497 203 l 1497 346 l 1547 203 l 1585 203 l 1585 494 l 1538 494 l 1538 354 l 1488 494 l 1453 494 z m 1467 554 b 1497 524 1468 539 1481 524 b 1524 561 1518 524 1528 542 b 1497 588 1522 574 1507 581 b 1483 618 1489 596 1481 607 b 1510 607 1486 632 1500 638 l 1524 608 b 1507 638 1524 618 1518 632 b 1476 633 1497 640 1483 639 b 1483 585 1461 618 1468 596 b 1510 550 1492 575 1510 563 b 1492 536 1510 539 1501 535 b 1483 561 1483 539 1483 553 z m 1492 779 b 1494 733 1492 763 1492 749 b 1553 689 1497 704 1522 689 b 1607 732 1583 689 1603 703 b 1610 785 1614 749 1610 765 b 1604 879 1610 813 1615 850 b 1547 910 1597 901 1575 910 b 1494 872 1524 910 1501 899 b 1492 779 1488 844 1492 810 z m 1501 -82 l 1518 -82 l 1518 28 l 1501 28 z m 1524 760 l 1524 796 b 1524 867 1524 819 1519 846 b 1546 883 1528 879 1532 883 b 1572 879 1553 889 1563 883 b 1581 844 1583 869 1581 857 l 1581 765 b 1581 742 1581 760 1583 749 b 1563 714 1581 732 1575 721 b 1535 714 1556 710 1546 710 b 1524 760 1522 721 1524 742 z m 1528 -82 l 1546 -82 l 1551 -53 l 1575 -53 l 1581 -82 l 1594 -82 l 1568 28 l 1553 28 z m 1535 524 l 1583 524 l 1583 536 l 1553 536 l 1553 578 l 1575 578 l 1575 588 l 1553 588 l 1553 629 l 1581 629 l 1581 639 l 1535 639 z m 1542 57 l 1553 57 l 1553 110 l 1575 110 l 1575 118 l 1553 118 l 1553 157 l 1583 157 l 1583 168 l 1542 168 z m 1553 -44 l 1563 8 l 1572 -44 z m 1581 1006 l 1581 1046 b 1583 1114 1581 1067 1575 1096 b 1603 1135 1586 1128 1592 1133 b 1628 1128 1614 1138 1619 1138 b 1638 1090 1638 1118 1638 1104 l 1638 992 b 1621 963 1638 982 1635 969 b 1597 963 1615 960 1603 960 b 1581 1006 1581 971 1581 992 z m 1594 83 b 1631 57 1597 63 1610 50 b 1650 117 1653 65 1650 99 l 1650 168 l 1638 168 l 1638 118 b 1619 65 1638 106 1643 65 b 1606 118 1601 65 1606 106 l 1606 168 l 1594 168 l 1594 110 b 1594 83 1594 101 1592 90 z m 1604 -82 l 1647 -82 l 1647 -72 l 1618 -72 l 1618 28 l 1604 28 z m 1610 203 l 1722 203 l 1722 253 l 1657 253 l 1657 329 l 1710 329 l 1710 382 l 1657 382 l 1657 444 l 1722 444 l 1722 494 l 1610 494 z m 1618 639 l 1643 524 l 1658 524 l 1682 639 l 1668 639 l 1650 554 l 1635 639 z m 1643 692 l 1665 692 l 1665 839 l 1731 692 l 1751 692 l 1751 910 l 1724 910 l 1724 763 l 1663 910 l 1643 910 z m 1668 57 l 1710 57 l 1710 65 l 1685 65 l 1685 168 l 1668 168 z m 1686 28 l 1710 -82 l 1722 -82 l 1747 28 l 1733 28 l 1715 -53 l 1700 28 z m 1694 524 l 1710 524 l 1710 639 l 1694 639 z m 1700 939 l 1724 939 l 1724 1086 l 1786 939 l 1806 939 l 1806 1158 l 1778 1158 l 1778 1013 l 1717 1158 l 1700 1158 z m 1722 57 l 1764 57 l 1764 65 l 1738 65 l 1738 168 l 1722 168 z m 1725 554 b 1756 524 1728 539 1733 524 b 1778 561 1774 524 1785 542 b 1757 588 1778 574 1764 583 b 1742 618 1749 596 1735 606 b 1764 607 1747 632 1763 638 l 1778 608 b 1764 638 1778 618 1774 632 b 1733 633 1757 640 1743 639 b 1739 585 1715 618 1728 596 b 1764 550 1751 575 1767 563 b 1751 536 1764 539 1760 535 b 1739 561 1743 539 1739 553 z m 1735 494 l 1779 328 l 1779 203 l 1826 203 l 1826 321 l 1876 494 l 1825 494 l 1804 378 l 1785 494 z m 1760 -82 l 1804 -82 l 1804 -72 l 1775 -72 l 1775 -28 l 1799 -28 l 1799 -15 l 1775 -15 l 1775 18 l 1804 18 l 1804 28 l 1760 28 z m 1785 692 l 1867 692 l 1867 710 l 1814 710 l 1814 910 l 1785 910 z m 1793 524 l 1810 524 l 1810 639 l 1793 639 z m 1804 57 l 1817 57 l 1824 83 l 1846 83 l 1850 57 l 1867 57 l 1842 168 l 1824 168 z m 1815 -82 l 1831 -82 l 1831 -28 l 1842 -28 l 1856 -82 l 1872 -82 l 1854 -26 b 1858 25 1875 -19 1875 15 b 1815 28 1846 32 1829 28 z m 1819 629 l 1842 629 l 1842 524 l 1853 524 l 1853 629 l 1872 629 l 1872 639 l 1819 639 z m 1824 96 l 1833 146 l 1843 96 z m 1826 939 l 1854 939 l 1867 992 l 1911 992 l 1922 939 l 1950 939 l 1904 1158 l 1875 1158 z m 1831 -15 l 1831 18 b 1854 -1 1846 18 1854 15 b 1831 -15 1854 -15 1846 -15 z m 1871 1015 l 1890 1114 l 1908 1015 z m 1878 57 l 1893 57 l 1893 132 l 1922 57 l 1933 57 l 1933 168 l 1918 168 l 1918 94 l 1886 168 l 1878 168 z m 1878 910 l 1908 810 b 1922 768 1914 796 1918 785 b 1922 735 1924 760 1922 744 l 1922 692 l 1953 692 l 1953 743 b 1956 772 1953 751 1950 763 l 1971 817 b 2000 910 1979 849 1990 879 l 1971 910 l 1938 803 l 1904 910 z m 1883 -50 b 1914 -83 1885 -68 1894 -83 b 1938 -49 1935 -83 1943 -67 b 1915 -15 1938 -33 1924 -26 b 1900 11 1908 -8 1894 -1 b 1917 18 1904 18 1910 21 b 1926 -4 1924 15 1924 4 l 1938 3 b 1924 26 1938 14 1935 22 b 1893 22 1915 32 1904 31 b 1899 -25 1878 14 1885 -11 b 1926 -57 1908 -31 1926 -44 b 1908 -68 1926 -67 1918 -74 b 1899 -47 1900 -67 1899 -53 z m 1889 203 l 1935 203 l 1935 322 l 1957 203 l 1992 203 l 2014 325 l 2017 203 l 2060 203 l 2058 494 l 2007 494 l 1974 311 l 1940 494 l 1894 494 z m 1950 57 b 1994 64 1963 57 1983 54 b 2006 111 2010 72 2006 96 b 2000 160 2006 128 2010 150 b 1950 168 1985 169 1963 168 z m 1953 -82 l 1967 -82 l 1967 28 l 1953 28 z m 1967 65 l 1967 157 b 1992 139 1979 157 1990 157 l 1992 83 b 1967 65 1986 65 1976 65 z m 1972 939 l 2058 939 l 2058 961 l 2003 961 l 2003 1158 l 1972 1158 z m 1983 -25 b 2015 -83 1983 -47 1981 -83 b 2046 -26 2047 -83 2046 -50 b 2018 28 2046 -4 2050 26 b 1983 -25 1983 32 1983 4 z m 2003 -15 l 2003 -1 b 2025 15 2003 11 2007 22 b 2031 -31 2035 11 2031 -18 b 2007 -68 2031 -46 2032 -82 b 2003 -15 1994 -64 2003 -28 z m 2015 692 l 2046 692 l 2046 721 l 2015 721 z m 2015 910 l 2025 736 l 2035 736 l 2046 910 z m 2061 -82 l 2071 -82 l 2071 -6 l 2106 -82 l 2118 -82 l 2118 28 l 2106 28 l 2106 -46 l 2071 28 l 2061 28 z m 2067 203 l 2117 203 l 2126 272 l 2157 272 l 2167 203 l 2215 203 l 2165 494 l 2119 494 z m 2133 314 l 2140 372 l 2149 314 z m 2221 261 b 2281 200 2221 226 2251 203 b 2314 206 2292 199 2304 200 b 2351 299 2347 221 2351 263 l 2306 301 b 2286 244 2306 282 2308 249 b 2269 263 2279 243 2269 249 l 2269 433 b 2286 453 2269 449 2279 454 b 2306 397 2308 449 2306 415 l 2351 400 b 2314 492 2351 433 2347 476 b 2281 497 2304 497 2292 499 b 2221 436 2251 494 2221 472 z m 2376 203 l 2428 203 l 2428 326 l 2471 326 l 2471 203 l 2518 203 l 2518 494 l 2471 494 l 2471 378 l 2428 378 l 2428 494 l 2376 494 z m 2543 203 l 2593 203 l 2593 494 l 2543 494 z m 2618 203 l 2663 203 l 2663 346 l 2713 203 l 2750 203 l 2750 494 l 2703 494 l 2703 354 l 2653 494 l 2618 494 z m 2774 203 l 2888 203 l 2888 253 l 2822 253 l 2822 329 l 2875 329 l 2875 382 l 2822 382 l 2822 444 l 2888 444 l 2888 494 l 2774 494 z "},"9":{"ha":3090,"x_min":0,"x_max":0,"o":"m 1607 939 b 1665 982 1638 939 1658 950 b 1668 1032 1668 997 1668 1015 b 1663 1128 1668 1063 1674 1100 b 1604 1160 1654 1151 1628 1160 b 1553 1119 1581 1158 1557 1147 b 1549 1025 1546 1093 1549 1057 b 1551 985 1549 1013 1549 999 b 1607 939 1556 953 1575 939 z m 211 206 l 254 206 l 257 324 l 281 206 l 315 206 l 335 326 l 340 206 l 381 206 l 381 496 l 331 496 l 297 314 l 261 496 l 215 496 z m 419 206 l 465 206 l 465 347 l 515 206 l 551 206 l 551 496 l 506 496 l 506 357 l 456 496 l 419 496 z m 585 206 l 633 206 l 633 258 l 585 258 z m 651 307 b 664 236 651 282 656 258 b 733 201 675 210 706 197 b 785 260 765 210 783 235 b 750 357 789 297 778 331 l 728 383 b 700 417 718 393 706 400 b 721 454 696 428 697 456 b 739 399 739 451 735 417 l 783 400 b 746 493 783 435 779 478 b 656 443 704 513 657 485 b 667 375 650 418 656 393 b 693 344 671 364 685 357 b 739 272 710 326 739 303 b 726 249 739 260 735 251 b 708 258 718 244 713 251 b 697 310 697 274 697 293 z m 807 351 b 808 269 807 324 806 297 b 839 211 811 249 818 221 b 910 214 858 197 892 197 l 913 206 l 950 206 l 950 357 l 875 357 l 875 314 l 904 314 b 875 249 904 297 908 235 b 858 310 851 254 858 294 l 858 415 b 885 454 858 438 863 457 b 900 393 897 449 900 444 l 947 393 b 915 490 947 425 950 469 b 851 496 897 501 872 501 b 808 435 825 485 813 460 b 807 351 806 408 807 379 z m 960 168 l 1000 168 l 1083 533 l 1038 533 z m 972 -6 b 1006 -83 972 -33 964 -83 b 1031 -40 1029 -83 1031 -60 l 1018 -40 b 1017 -64 1018 -49 1019 -56 b 993 -67 1013 -72 997 -74 b 989 -26 988 -56 989 -35 b 993 14 989 -15 988 4 b 1017 11 997 21 1013 21 b 1018 -8 1019 4 1018 -4 l 1031 -8 b 1008 28 1031 8 1031 26 b 972 -6 983 32 972 15 z m 1046 -25 b 1076 -83 1046 -47 1039 -83 b 1108 -26 1108 -83 1108 -50 b 1078 28 1108 -4 1110 26 b 1046 -25 1046 32 1046 4 z m 1047 939 l 1076 939 l 1076 1040 b 1136 1053 1096 1040 1121 1038 b 1146 1133 1160 1071 1160 1108 b 1093 1158 1136 1156 1115 1158 l 1047 1158 z m 1050 772 b 1054 721 1050 751 1050 735 b 1129 692 1065 692 1104 679 b 1167 810 1175 706 1167 772 l 1167 910 l 1136 910 l 1136 828 l 1136 760 b 1096 710 1136 733 1128 701 b 1078 763 1076 721 1078 744 l 1078 910 l 1050 910 z m 1058 -15 l 1058 -1 b 1082 15 1058 11 1067 22 b 1090 -31 1093 11 1090 -18 b 1067 -68 1090 -46 1093 -82 b 1058 -15 1054 -64 1058 -28 z m 1076 1063 l 1076 1135 b 1108 1133 1086 1135 1097 1138 b 1126 1096 1126 1129 1126 1111 b 1108 1065 1126 1082 1124 1069 b 1076 1063 1097 1063 1086 1063 z m 1086 57 l 1104 57 l 1104 110 l 1124 110 l 1124 118 l 1104 118 l 1104 157 l 1129 157 l 1129 168 l 1086 168 z m 1093 203 l 1139 203 l 1139 322 l 1163 203 l 1196 203 l 1219 325 l 1221 203 l 1265 203 l 1264 494 l 1213 494 l 1179 311 l 1144 494 l 1100 494 z m 1121 -82 l 1135 -82 l 1135 -1 l 1153 -82 l 1165 -82 l 1182 -1 l 1182 -82 l 1193 -82 l 1193 28 l 1176 28 l 1160 -60 l 1139 28 l 1121 28 z m 1139 115 b 1171 56 1139 90 1136 56 b 1200 111 1200 56 1200 88 b 1171 169 1200 133 1203 165 b 1139 115 1139 169 1139 142 z m 1154 118 l 1154 136 b 1176 156 1154 150 1165 164 b 1185 108 1189 150 1185 118 b 1165 67 1185 90 1185 63 b 1154 118 1147 74 1154 110 z m 1176 939 l 1261 939 l 1261 961 l 1206 961 l 1206 1040 l 1251 1040 l 1251 1063 l 1206 1063 l 1206 1135 l 1260 1135 l 1260 1158 l 1176 1158 z m 1189 751 b 1249 689 1193 717 1213 689 b 1299 754 1285 689 1307 721 b 1256 814 1296 783 1274 796 b 1222 868 1238 828 1213 844 b 1249 883 1224 879 1233 889 b 1272 846 1267 881 1271 861 l 1296 853 b 1278 901 1296 872 1292 890 b 1225 910 1261 910 1240 913 b 1200 826 1189 899 1182 853 b 1242 785 1208 810 1231 796 b 1267 761 1256 779 1260 768 b 1263 718 1274 749 1278 728 b 1231 721 1256 707 1239 710 b 1219 760 1222 729 1222 744 z m 1213 -82 l 1225 -82 l 1228 -1 l 1242 -82 l 1256 -82 l 1272 -1 l 1274 -82 l 1285 -82 l 1282 28 l 1267 28 l 1249 -60 l 1231 28 l 1213 28 z m 1217 57 l 1231 57 l 1231 110 l 1242 110 l 1258 57 l 1274 57 l 1258 111 b 1258 165 1278 118 1274 156 b 1217 168 1246 169 1231 168 z m 1228 524 l 1242 524 l 1242 578 b 1274 583 1256 578 1263 575 b 1278 625 1282 592 1282 613 b 1228 639 1268 643 1242 639 z m 1231 118 l 1231 157 b 1258 139 1246 157 1258 156 b 1231 118 1258 121 1244 118 z m 1242 586 l 1242 629 b 1267 611 1258 629 1267 629 b 1258 588 1267 601 1267 593 b 1242 586 1256 586 1247 586 z m 1285 939 l 1318 939 l 1318 1042 l 1340 1042 l 1371 939 l 1397 939 l 1371 1049 b 1371 1149 1406 1063 1403 1131 b 1285 1158 1347 1161 1314 1158 z m 1290 308 b 1292 264 1290 294 1290 281 b 1333 206 1293 240 1307 215 b 1399 213 1354 200 1379 200 b 1428 308 1431 231 1428 275 l 1428 392 b 1399 488 1428 422 1431 468 b 1333 494 1379 499 1354 499 b 1292 432 1307 485 1293 458 b 1290 389 1290 418 1290 403 z m 1296 524 l 1336 524 l 1336 536 l 1307 536 l 1307 639 l 1296 639 z m 1303 -82 l 1347 -82 l 1347 -72 l 1319 -72 l 1319 -28 l 1342 -28 l 1342 -15 l 1319 -15 l 1319 18 l 1347 18 l 1347 28 l 1303 28 z m 1310 157 l 1329 157 l 1329 57 l 1347 57 l 1347 157 l 1368 157 l 1368 168 l 1310 168 z m 1318 1063 l 1318 1135 b 1349 1132 1325 1135 1336 1138 b 1365 1103 1363 1128 1365 1114 b 1349 1065 1367 1086 1363 1072 b 1318 1063 1336 1063 1325 1063 z m 1325 692 l 1410 692 l 1410 710 l 1354 710 l 1354 790 l 1399 790 l 1399 814 l 1354 814 l 1354 883 l 1410 883 l 1410 910 l 1325 910 z m 1339 314 l 1339 383 b 1343 443 1339 400 1336 422 b 1365 453 1344 446 1356 453 b 1379 433 1374 449 1379 444 b 1381 392 1383 421 1381 406 l 1381 308 b 1379 264 1381 293 1383 278 b 1365 247 1379 253 1374 251 b 1343 257 1356 244 1344 251 b 1339 314 1336 275 1339 299 z m 1349 524 l 1390 524 l 1390 536 l 1363 536 l 1363 578 l 1385 578 l 1385 588 l 1363 588 l 1363 629 l 1390 629 l 1390 639 l 1349 639 z m 1357 -82 l 1375 -82 l 1375 -28 l 1388 -28 l 1400 -82 l 1414 -82 l 1399 -26 b 1400 25 1418 -18 1415 15 b 1357 28 1388 32 1374 28 z m 1375 -15 l 1375 18 b 1399 -1 1388 18 1399 15 b 1375 -15 1399 -15 1388 -15 z m 1375 57 l 1388 57 l 1388 110 l 1419 110 l 1419 57 l 1436 57 l 1436 168 l 1419 168 l 1419 118 l 1388 118 l 1388 168 l 1375 168 z m 1397 524 l 1411 524 l 1414 554 l 1439 554 l 1444 524 l 1461 524 l 1439 639 l 1421 639 z m 1415 563 l 1429 618 l 1439 563 z m 1415 1000 b 1476 939 1418 965 1439 939 b 1528 1004 1514 939 1535 969 b 1483 1063 1522 1028 1500 1046 b 1447 1118 1467 1076 1443 1093 b 1476 1138 1450 1131 1464 1138 b 1500 1096 1494 1132 1497 1111 l 1525 1104 b 1506 1149 1524 1119 1519 1142 b 1454 1156 1492 1160 1467 1161 b 1428 1074 1415 1147 1410 1104 b 1468 1033 1439 1058 1458 1046 b 1494 1008 1482 1024 1488 1015 b 1494 968 1501 997 1506 975 b 1458 969 1483 958 1467 960 b 1446 1008 1450 978 1447 992 z m 1429 -6 b 1458 -83 1429 -33 1418 -83 b 1486 -40 1483 -83 1486 -60 l 1469 -40 b 1468 -64 1469 -49 1474 -56 b 1447 -67 1467 -72 1454 -74 b 1443 -26 1439 -56 1443 -35 b 1447 14 1443 -15 1439 4 b 1468 11 1454 21 1467 21 b 1469 -8 1474 4 1469 -4 l 1486 -8 b 1464 28 1486 8 1483 26 b 1429 -6 1439 32 1429 15 z m 1451 57 l 1494 57 l 1494 65 l 1467 65 l 1467 110 l 1489 110 l 1489 118 l 1467 118 l 1467 157 l 1494 157 l 1494 168 l 1451 168 z m 1453 203 l 1497 203 l 1497 346 l 1547 203 l 1585 203 l 1585 494 l 1538 494 l 1538 354 l 1488 494 l 1453 494 z m 1467 554 b 1497 524 1468 539 1481 524 b 1524 561 1518 524 1528 542 b 1497 588 1522 574 1507 581 b 1483 618 1489 596 1481 607 b 1510 607 1486 632 1500 638 l 1524 608 b 1507 638 1524 618 1518 632 b 1476 633 1497 640 1483 639 b 1483 585 1461 618 1468 596 b 1510 550 1492 575 1510 563 b 1492 536 1510 539 1501 535 b 1483 561 1483 539 1483 553 z m 1492 779 b 1494 733 1492 763 1492 749 b 1553 689 1497 704 1522 689 b 1607 732 1583 689 1603 703 b 1610 785 1614 749 1610 765 b 1604 879 1610 813 1615 850 b 1547 910 1597 901 1575 910 b 1494 872 1524 910 1501 899 b 1492 779 1488 844 1492 810 z m 1501 -82 l 1518 -82 l 1518 28 l 1501 28 z m 1524 760 l 1524 796 b 1524 867 1524 819 1519 846 b 1546 883 1528 879 1532 883 b 1572 879 1553 889 1563 883 b 1581 844 1583 869 1581 857 l 1581 765 b 1581 742 1581 760 1583 749 b 1563 714 1581 732 1575 721 b 1535 714 1556 710 1546 710 b 1524 760 1522 721 1524 742 z m 1528 -82 l 1546 -82 l 1551 -53 l 1575 -53 l 1581 -82 l 1594 -82 l 1568 28 l 1553 28 z m 1535 524 l 1583 524 l 1583 536 l 1553 536 l 1553 578 l 1575 578 l 1575 588 l 1553 588 l 1553 629 l 1581 629 l 1581 639 l 1535 639 z m 1542 57 l 1553 57 l 1553 110 l 1575 110 l 1575 118 l 1553 118 l 1553 157 l 1583 157 l 1583 168 l 1542 168 z m 1553 -44 l 1563 8 l 1572 -44 z m 1581 1006 l 1581 1046 b 1583 1114 1581 1067 1575 1096 b 1603 1135 1586 1128 1592 1133 b 1628 1128 1614 1138 1619 1138 b 1638 1090 1638 1118 1638 1104 l 1638 992 b 1621 963 1638 982 1635 969 b 1597 963 1615 960 1603 960 b 1581 1006 1581 971 1581 992 z m 1594 83 b 1631 57 1597 63 1610 50 b 1650 117 1653 65 1650 99 l 1650 168 l 1638 168 l 1638 118 b 1619 65 1638 106 1643 65 b 1606 118 1601 65 1606 106 l 1606 168 l 1594 168 l 1594 110 b 1594 83 1594 101 1592 90 z m 1604 -82 l 1647 -82 l 1647 -72 l 1618 -72 l 1618 28 l 1604 28 z m 1610 203 l 1722 203 l 1722 253 l 1657 253 l 1657 329 l 1710 329 l 1710 382 l 1657 382 l 1657 444 l 1722 444 l 1722 494 l 1610 494 z m 1618 639 l 1643 524 l 1658 524 l 1682 639 l 1668 639 l 1650 554 l 1635 639 z m 1643 692 l 1665 692 l 1665 839 l 1731 692 l 1751 692 l 1751 910 l 1724 910 l 1724 763 l 1663 910 l 1643 910 z m 1668 57 l 1710 57 l 1710 65 l 1685 65 l 1685 168 l 1668 168 z m 1686 28 l 1710 -82 l 1722 -82 l 1747 28 l 1733 28 l 1715 -53 l 1700 28 z m 1694 524 l 1710 524 l 1710 639 l 1694 639 z m 1700 939 l 1724 939 l 1724 1086 l 1786 939 l 1806 939 l 1806 1158 l 1778 1158 l 1778 1013 l 1717 1158 l 1700 1158 z m 1722 57 l 1764 57 l 1764 65 l 1738 65 l 1738 168 l 1722 168 z m 1725 554 b 1756 524 1728 539 1733 524 b 1778 561 1774 524 1785 542 b 1757 588 1778 574 1764 583 b 1742 618 1749 596 1735 606 b 1764 607 1747 632 1763 638 l 1778 608 b 1764 638 1778 618 1774 632 b 1733 633 1757 640 1743 639 b 1739 585 1715 618 1728 596 b 1764 550 1751 575 1767 563 b 1751 536 1764 539 1760 535 b 1739 561 1743 539 1739 553 z m 1735 494 l 1779 328 l 1779 203 l 1826 203 l 1826 321 l 1876 494 l 1825 494 l 1804 378 l 1785 494 z m 1760 -82 l 1804 -82 l 1804 -72 l 1775 -72 l 1775 -28 l 1799 -28 l 1799 -15 l 1775 -15 l 1775 18 l 1804 18 l 1804 28 l 1760 28 z m 1785 692 l 1867 692 l 1867 710 l 1814 710 l 1814 910 l 1785 910 z m 1793 524 l 1810 524 l 1810 639 l 1793 639 z m 1804 57 l 1817 57 l 1824 83 l 1846 83 l 1850 57 l 1867 57 l 1842 168 l 1824 168 z m 1815 -82 l 1831 -82 l 1831 -28 l 1842 -28 l 1856 -82 l 1872 -82 l 1854 -26 b 1858 25 1875 -19 1875 15 b 1815 28 1846 32 1829 28 z m 1819 629 l 1842 629 l 1842 524 l 1853 524 l 1853 629 l 1872 629 l 1872 639 l 1819 639 z m 1824 96 l 1833 146 l 1843 96 z m 1826 939 l 1854 939 l 1867 992 l 1911 992 l 1922 939 l 1950 939 l 1904 1158 l 1875 1158 z m 1831 -15 l 1831 18 b 1854 -1 1846 18 1854 15 b 1831 -15 1854 -15 1846 -15 z m 1871 1015 l 1890 1114 l 1908 1015 z m 1878 57 l 1893 57 l 1893 132 l 1922 57 l 1933 57 l 1933 168 l 1918 168 l 1918 94 l 1886 168 l 1878 168 z m 1878 910 l 1908 810 b 1922 768 1914 796 1918 785 b 1922 735 1924 760 1922 744 l 1922 692 l 1953 692 l 1953 743 b 1956 772 1953 751 1950 763 l 1971 817 b 2000 910 1979 849 1990 879 l 1971 910 l 1938 803 l 1904 910 z m 1883 -50 b 1914 -83 1885 -68 1894 -83 b 1938 -49 1935 -83 1943 -67 b 1915 -15 1938 -33 1924 -26 b 1900 11 1908 -8 1894 -1 b 1917 18 1904 18 1910 21 b 1926 -4 1924 15 1924 4 l 1938 3 b 1924 26 1938 14 1935 22 b 1893 22 1915 32 1904 31 b 1899 -25 1878 14 1885 -11 b 1926 -57 1908 -31 1926 -44 b 1908 -68 1926 -67 1918 -74 b 1899 -47 1900 -67 1899 -53 z m 1889 203 l 1935 203 l 1935 322 l 1957 203 l 1992 203 l 2014 325 l 2017 203 l 2060 203 l 2058 494 l 2007 494 l 1974 311 l 1940 494 l 1894 494 z m 1950 57 b 1994 64 1963 57 1983 54 b 2006 111 2010 72 2006 96 b 2000 160 2006 128 2010 150 b 1950 168 1985 169 1963 168 z m 1953 -82 l 1967 -82 l 1967 28 l 1953 28 z m 1967 65 l 1967 157 b 1992 139 1979 157 1990 157 l 1992 83 b 1967 65 1986 65 1976 65 z m 1972 939 l 2058 939 l 2058 961 l 2003 961 l 2003 1158 l 1972 1158 z m 1983 -25 b 2015 -83 1983 -47 1981 -83 b 2046 -26 2047 -83 2046 -50 b 2018 28 2046 -4 2050 26 b 1983 -25 1983 32 1983 4 z m 2003 -15 l 2003 -1 b 2025 15 2003 11 2007 22 b 2031 -31 2035 11 2031 -18 b 2007 -68 2031 -46 2032 -82 b 2003 -15 1994 -64 2003 -28 z m 2015 692 l 2046 692 l 2046 721 l 2015 721 z m 2015 910 l 2025 736 l 2035 736 l 2046 910 z m 2061 -82 l 2071 -82 l 2071 -6 l 2106 -82 l 2118 -82 l 2118 28 l 2106 28 l 2106 -46 l 2071 28 l 2061 28 z m 2067 203 l 2117 203 l 2126 272 l 2157 272 l 2167 203 l 2215 203 l 2165 494 l 2119 494 z m 2133 314 l 2140 372 l 2149 314 z m 2221 261 b 2281 200 2221 226 2251 203 b 2314 206 2292 199 2304 200 b 2351 299 2347 221 2351 263 l 2306 301 b 2286 244 2306 282 2308 249 b 2269 263 2279 243 2269 249 l 2269 433 b 2286 453 2269 449 2279 454 b 2306 397 2308 449 2306 415 l 2351 400 b 2314 492 2351 433 2347 476 b 2281 497 2304 497 2292 499 b 2221 436 2251 494 2221 472 z m 2376 203 l 2428 203 l 2428 326 l 2471 326 l 2471 203 l 2518 203 l 2518 494 l 2471 494 l 2471 378 l 2428 378 l 2428 494 l 2376 494 z m 2543 203 l 2593 203 l 2593 494 l 2543 494 z m 2618 203 l 2663 203 l 2663 346 l 2713 203 l 2750 203 l 2750 494 l 2703 494 l 2703 354 l 2653 494 l 2618 494 z m 2774 203 l 2888 203 l 2888 253 l 2822 253 l 2822 329 l 2875 329 l 2875 382 l 2822 382 l 2822 444 l 2888 444 l 2888 494 l 2774 494 z "},"\u0000":{"ha":0,"x_min":0,"x_max":0,"o":""},"\r":{"ha":253,"x_min":0,"x_max":0,"o":""}," ":{"ha":253,"x_min":0,"x_max":0,"o":""},"A":{"ha":333,"x_min":0,"x_max":0,"o":"m 0 0 l 139 0 l 149 303 l 185 303 l 194 0 l 333 0 l 306 403 l 354 403 l 354 431 l -19 431 l -19 403 l 28 403 z m -35 457 l 368 457 b 275 519 319 461 311 472 l 169 656 l 74 528 b -35 457 33 474 22 461 z m -19 681 l 354 681 l 354 708 l 285 708 l 257 1111 l 76 1111 l 49 708 l -19 708 z m 65 510 l 219 510 b 144 460 246 475 239 460 b 65 510 64 460 44 471 z m 69 515 l 142 611 l 217 515 z m 161 708 l 167 889 l 172 708 z "},"":{"ha":333,"x_min":0,"x_max":0,"o":"m 0 0 l 139 0 l 149 303 l 185 303 l 194 0 l 333 0 l 306 403 l 354 403 l 354 431 l -19 431 l -19 403 l 28 403 z m -35 457 l 368 457 b 275 519 319 461 311 472 l 192 628 l 231 632 l 200 675 l 115 622 l 117 619 l 144 622 l 74 528 b -35 457 33 474 22 461 z m -19 681 l 354 681 l 354 708 l 285 708 l 257 1111 l 76 1111 l 49 708 l -19 708 z m 65 510 l 219 510 b 144 460 246 475 239 460 b 65 510 64 460 44 471 z m 69 515 l 142 611 l 217 515 z m 93 1135 l 229 1135 l 301 1340 l 129 1340 z m 161 708 l 167 889 l 172 708 z "},"":{"ha":333,"x_min":0,"x_max":0,"o":"m 0 0 l 139 0 l 149 303 l 185 303 l 194 0 l 333 0 l 306 403 l 354 403 l 354 431 l -19 431 l -19 403 l 28 403 z m -35 457 l 368 457 b 275 519 319 461 311 472 l 183 638 b 247 675 222 640 247 651 l 243 675 b 169 664 243 669 219 664 b 97 675 119 664 97 669 l 93 675 b 156 638 93 651 119 640 l 74 528 b -35 457 33 474 22 461 z m -19 681 l 354 681 l 354 708 l 285 708 l 257 1111 l 76 1111 l 49 708 l -19 708 z m 33 1324 b 169 1124 33 1213 94 1124 b 306 1324 244 1124 306 1213 l 181 1324 b 169 1267 181 1290 178 1267 b 158 1324 161 1267 158 1290 z m 65 510 l 219 510 b 144 460 246 475 239 460 b 65 510 64 460 44 471 z m 69 515 l 142 611 l 217 515 z m 161 708 l 167 889 l 172 708 z "},"":{"ha":333,"x_min":0,"x_max":0,"o":"m 0 0 l 139 0 l 149 303 l 185 303 l 194 0 l 333 0 l 306 403 l 354 403 l 354 431 l -19 431 l -19 403 l 28 403 z m -35 457 l 368 457 b 275 519 319 461 311 472 l 190 628 b 253 665 228 631 253 642 l 249 665 b 175 654 249 660 225 654 l 171 654 l 169 656 l 168 654 b 103 665 124 654 103 660 l 99 665 b 150 629 99 644 119 633 l 74 528 b -35 457 33 474 22 461 z m -19 681 l 203 681 l 132 660 l 133 658 l 247 665 l 224 681 l 354 681 l 354 708 l 285 708 l 257 1111 l 76 1111 l 49 708 l -19 708 z m 39 1314 b 175 1114 39 1203 100 1114 b 311 1314 250 1114 311 1203 l 186 1314 b 175 1257 186 1281 183 1257 b 164 1314 167 1257 164 1281 z m 65 510 l 219 510 b 144 460 246 475 239 460 b 65 510 64 460 44 471 z m 69 515 l 142 611 l 217 515 z m 110 1349 l 246 1349 l 318 1554 l 146 1554 z m 161 708 l 167 889 l 172 708 z "},"":{"ha":333,"x_min":0,"x_max":0,"o":"m 0 0 l 139 0 l 149 303 l 185 303 l 194 0 l 333 0 l 306 403 l 354 403 l 354 431 l 197 431 b 183 457 197 442 192 451 l 368 457 b 275 519 319 461 311 472 l 183 638 b 247 675 222 640 247 651 l 243 675 b 169 664 243 669 219 664 b 97 675 119 664 97 669 l 93 675 b 156 638 93 651 119 640 l 74 528 b -35 457 33 474 22 461 l 149 457 b 136 431 140 451 136 442 l -19 431 l -19 403 l 28 403 z m -19 681 l 354 681 l 354 708 l 285 708 l 257 1111 l 76 1111 l 49 708 l -19 708 z m 33 1324 b 169 1124 33 1213 94 1124 b 306 1324 244 1124 306 1213 l 181 1324 b 169 1267 181 1290 178 1267 b 158 1324 161 1267 158 1290 z m 65 510 l 219 510 b 178 461 242 479 240 464 b 167 463 174 463 171 463 b 154 460 163 463 157 461 l 144 460 b 65 510 64 460 44 471 z m 69 515 l 142 611 l 217 515 z m 74 -117 b 168 -228 74 -181 114 -228 b 261 -117 221 -228 261 -181 b 168 -7 261 -54 221 -7 b 74 -117 114 -7 74 -54 z m 161 708 l 167 889 l 172 708 z "},"":{"ha":333,"x_min":0,"x_max":0,"o":"m 0 0 l 139 0 l 149 303 l 185 303 l 194 0 l 333 0 l 306 403 l 354 403 l 354 431 l -19 431 l -19 403 l 28 403 z m -35 457 l 368 457 b 275 519 319 461 311 472 l 193 625 b 250 661 228 628 250 639 l 246 661 b 174 650 246 656 222 650 l 169 656 l 165 650 b 100 661 121 650 100 656 l 96 661 b 147 625 96 640 117 629 l 74 528 b -35 457 33 474 22 461 z m -19 681 l 114 681 l 97 665 l 211 657 l 213 658 l 160 681 l 354 681 l 354 708 l 285 708 l 257 1111 l 189 1111 b 308 1310 256 1122 308 1207 l 183 1310 b 172 1253 183 1276 181 1253 b 161 1310 164 1253 161 1276 l 36 1310 b 156 1111 36 1207 89 1122 l 76 1111 l 49 708 l -19 708 z m 65 510 l 219 510 b 144 460 246 475 239 460 b 65 510 64 460 44 471 z m 68 1467 l 140 1339 l 276 1339 l 254 1467 z m 69 515 l 142 611 l 217 515 z m 161 708 l 167 889 l 172 708 z "},"":{"ha":333,"x_min":0,"x_max":0,"o":"m 0 0 l 139 0 l 149 303 l 185 303 l 194 0 l 333 0 l 306 403 l 354 403 l 354 431 l -19 431 l -19 403 l 28 403 z m -35 457 l 368 457 b 275 519 319 461 311 472 l 189 631 b 250 660 225 633 250 642 l 246 660 b 174 650 246 656 222 650 l 172 651 b 208 667 203 654 208 660 b 168 681 208 674 200 681 b 118 671 149 681 131 676 l 121 668 b 168 679 133 674 150 679 b 183 667 179 679 183 678 b 171 653 183 658 181 654 l 169 656 l 167 653 l 154 653 l 154 651 l 167 651 l 165 650 b 100 660 121 650 100 656 l 96 660 b 151 632 96 642 118 633 l 74 528 b -35 457 33 474 22 461 z m -19 681 l 354 681 l 354 708 l 285 708 l 261 1044 b 308 1163 290 1074 308 1115 l 183 1163 b 172 1118 183 1136 181 1118 b 161 1163 164 1118 161 1136 l 36 1163 b 72 1057 36 1121 50 1085 l 49 708 l -19 708 z m 65 510 l 219 510 b 144 460 246 475 239 460 b 65 510 64 460 44 471 z m 69 515 l 142 611 l 217 515 z m 101 1247 b 125 1258 106 1253 114 1258 b 146 1236 139 1258 146 1249 b 131 1203 146 1222 139 1210 l 164 1175 b 258 1278 207 1193 258 1229 b 160 1354 258 1319 215 1354 b 101 1335 135 1354 113 1346 z m 161 708 l 167 889 l 172 708 z "},"":{"ha":333,"x_min":0,"x_max":0,"o":"m 0 0 l 139 0 l 149 303 l 185 303 l 194 0 l 333 0 l 306 403 l 354 403 l 354 431 l -19 431 l -19 403 l 28 403 z m -35 457 l 368 457 b 275 519 319 461 311 472 l 186 633 b 251 664 225 635 251 644 l 247 664 b 174 654 247 658 224 654 l 171 654 l 169 656 l 168 654 b 101 664 122 654 101 658 l 97 664 b 153 635 97 646 119 636 l 74 528 b -35 457 33 474 22 461 z m -19 681 l 94 681 b 89 664 92 675 89 669 l 94 664 b 118 679 94 675 103 679 b 200 660 146 679 161 660 b 256 681 228 660 247 668 l 354 681 l 354 708 l 285 708 l 261 1049 b 310 1168 290 1078 310 1121 l 185 1168 b 174 1125 185 1143 182 1125 b 163 1168 165 1125 163 1143 l 38 1168 b 74 1063 38 1128 51 1090 l 49 708 l -19 708 z m 43 1183 l 129 1183 b 133 1226 129 1211 131 1224 b 147 1214 136 1229 142 1224 b 239 1175 172 1179 207 1168 b 319 1315 281 1185 319 1232 l 233 1315 b 229 1274 233 1290 232 1278 b 218 1285 228 1271 224 1275 b 119 1315 196 1314 156 1326 b 43 1183 79 1303 43 1263 z m 65 510 l 219 510 b 144 460 246 475 239 460 b 65 510 64 460 44 471 z m 69 515 l 142 611 l 217 515 z m 161 708 l 167 889 l 172 708 z m 218 681 l 243 681 b 231 679 240 679 236 679 b 218 681 226 679 222 679 z "},"":{"ha":333,"x_min":0,"x_max":0,"o":"m 0 0 l 139 0 l 149 303 l 185 303 l 194 0 l 333 0 l 306 403 l 354 403 l 354 431 l -19 431 l -19 403 l 28 403 z m -35 457 l 368 457 b 275 519 319 461 311 472 l 188 633 l 251 675 l 250 678 l 171 663 l 93 676 l 90 675 l 153 633 l 74 528 b -35 457 33 474 22 461 z m -19 681 l 354 681 l 354 708 l 285 708 l 257 1111 l 224 1111 l 293 1340 l 189 1340 l 169 1258 l 149 1340 l 44 1340 l 115 1111 l 76 1111 l 49 708 l -19 708 z m 65 510 l 219 510 b 144 460 246 475 239 460 b 65 510 64 460 44 471 z m 69 515 l 142 611 l 217 515 z m 161 708 l 167 889 l 172 708 z "},"":{"ha":333,"x_min":0,"x_max":0,"o":"m 0 0 l 139 0 l 149 303 l 185 303 l 194 0 l 333 0 l 306 403 l 354 403 l 354 431 l -19 431 l -19 403 l 28 403 z m -35 457 l 368 457 b 275 519 319 461 311 472 l 178 644 l 249 632 l 250 633 l 178 681 l 354 681 l 354 708 l 285 708 l 257 1111 l 76 1111 l 49 708 l -19 708 l -19 681 l 163 681 l 90 633 l 92 631 l 161 644 l 74 528 b -35 457 33 474 22 461 z m 44 1124 l 149 1124 l 168 1206 l 189 1124 l 293 1124 l 217 1371 l 119 1371 z m 65 510 l 219 510 b 144 460 246 475 239 460 b 65 510 64 460 44 471 z m 69 515 l 142 611 l 217 515 z m 161 708 l 167 889 l 172 708 z "},"":{"ha":333,"x_min":0,"x_max":0,"o":"m 0 0 l 139 0 l 149 303 l 185 303 l 194 0 l 333 0 l 306 403 l 354 403 l 354 431 l -19 431 l -19 403 l 28 403 z m -35 457 l 368 457 b 275 519 319 461 311 472 l 197 621 l 249 611 l 250 613 l 179 658 l 221 663 l 208 681 l 354 681 l 354 708 l 285 708 l 258 1089 l 293 1089 l 217 1328 l 119 1328 l 44 1089 l 75 1089 l 49 708 l -19 708 l -19 681 l 150 681 l 106 653 l 107 650 l 158 656 l 90 613 l 92 610 l 143 619 l 74 528 b -35 457 33 474 22 461 z m 65 510 l 219 510 b 144 460 246 475 239 460 b 65 510 64 460 44 471 z m 69 515 l 142 611 l 217 515 z m 93 1351 l 229 1351 l 301 1475 l 129 1475 z m 154 1111 l 168 1168 l 183 1111 z m 161 708 l 167 889 l 172 708 z "},"":{"ha":333,"x_min":0,"x_max":0,"o":"m 0 0 l 139 0 l 149 303 l 185 303 l 194 0 l 333 0 l 306 403 l 354 403 l 354 431 l 197 431 b 183 457 197 442 192 451 l 368 457 b 275 519 319 461 311 472 l 178 644 l 249 632 l 250 633 l 178 681 l 354 681 l 354 708 l 285 708 l 257 1111 l 76 1111 l 49 708 l -19 708 l -19 681 l 163 681 l 90 633 l 92 631 l 161 644 l 74 528 b -35 457 33 474 22 461 l 149 457 b 136 431 140 451 136 442 l -19 431 l -19 403 l 28 403 z m 44 1124 l 149 1124 l 168 1206 l 189 1124 l 293 1124 l 217 1371 l 119 1371 z m 65 510 l 219 510 b 178 461 242 479 240 464 b 167 463 174 463 171 463 b 154 460 163 463 157 461 l 144 460 b 65 510 64 460 44 471 z m 69 515 l 142 611 l 217 515 z m 74 -117 b 168 -228 74 -181 114 -228 b 261 -117 221 -228 261 -181 b 168 -7 261 -54 221 -7 b 74 -117 114 -7 74 -54 z m 161 708 l 167 889 l 172 708 z "},"":{"ha":333,"x_min":0,"x_max":0,"o":"m 0 0 l 139 0 l 149 303 l 185 303 l 194 0 l 333 0 l 306 403 l 354 403 l 354 431 l -19 431 l -19 403 l 28 403 z m -35 457 l 368 457 b 275 519 319 461 311 472 l 194 624 l 244 615 l 246 617 l 186 653 l 222 649 l 224 651 l 176 681 l 354 681 l 354 708 l 285 708 l 260 1063 l 289 1063 l 213 1286 l 115 1286 l 40 1063 l 74 1063 l 49 708 l -19 708 l -19 681 l 122 681 l 108 661 l 153 657 l 86 617 l 88 614 l 146 624 l 74 528 b -35 457 33 474 22 461 z m 33 1419 l 106 1297 l 242 1297 l 219 1419 z m 65 510 l 219 510 b 144 460 246 475 239 460 b 65 510 64 460 44 471 z m 69 515 l 142 611 l 217 515 z m 157 1111 l 164 1138 l 171 1111 z m 161 708 l 167 889 l 172 708 z "},"":{"ha":333,"x_min":0,"x_max":0,"o":"m 0 0 l 139 0 l 149 303 l 185 303 l 194 0 l 333 0 l 306 403 l 354 403 l 354 431 l -19 431 l -19 403 l 28 403 z m -35 457 l 368 457 b 275 519 319 461 311 472 l 190 629 l 250 618 l 251 619 l 208 647 b 229 668 225 653 229 661 b 224 681 229 672 226 676 l 354 681 l 354 708 l 285 708 l 257 1110 l 294 1110 l 219 1354 b 263 1449 243 1378 263 1411 b 164 1547 263 1501 219 1547 b 106 1521 139 1547 117 1536 l 106 1408 b 129 1424 110 1415 118 1424 b 150 1394 143 1424 150 1411 b 139 1357 150 1379 146 1367 l 121 1357 l 46 1110 l 76 1110 l 49 708 l -19 708 l -19 681 l 119 681 l 108 675 l 113 672 b 129 681 118 675 124 678 l 193 681 b 194 668 194 678 194 674 b 193 657 194 664 194 660 l 175 669 l 168 669 l 92 619 l 93 617 l 149 628 l 74 528 b -35 457 33 474 22 461 z m 65 510 l 219 510 b 144 460 246 475 239 460 b 65 510 64 460 44 471 z m 69 515 l 142 611 l 217 515 z m 150 1111 l 169 1192 l 190 1111 z m 161 708 l 167 889 l 172 708 z "},"":{"ha":333,"x_min":0,"x_max":0,"o":"m 0 0 l 139 0 l 149 303 l 185 303 l 194 0 l 333 0 l 306 403 l 354 403 l 354 431 l -19 431 l -19 403 l 28 403 z m -35 457 l 368 457 b 275 519 319 461 311 472 l 169 656 l 74 528 b -35 457 33 474 22 461 z m -19 681 l 140 681 l 89 651 l 90 649 l 169 663 l 247 650 l 249 651 l 197 681 l 354 681 l 354 708 l 285 708 l 260 1078 l 292 1078 l 250 1194 b 310 1411 283 1225 310 1297 l 224 1411 b 219 1343 224 1369 222 1349 b 208 1360 218 1338 214 1344 b 110 1411 186 1410 146 1429 b 33 1194 69 1390 33 1324 l 83 1194 l 43 1078 l 74 1078 l 49 708 l -19 708 z m 65 510 l 219 510 b 144 460 246 475 239 460 b 65 510 64 460 44 471 z m 69 515 l 142 611 l 217 515 z m 156 1111 l 167 1150 l 178 1111 z m 163 747 l 167 889 l 171 744 z "},"":{"ha":333,"x_min":0,"x_max":0,"o":"m 0 0 l 139 0 l 149 303 l 185 303 l 194 0 l 333 0 l 306 403 l 354 403 l 354 431 l -19 431 l -19 403 l 28 403 z m -35 457 l 368 457 b 275 519 319 461 311 472 l 169 656 l 74 528 b -35 457 33 474 22 461 z m -19 681 l 354 681 l 354 708 l 285 708 l 257 1111 l 76 1111 l 49 708 l -19 708 z m 38 1214 b 100 1121 38 1157 61 1121 b 163 1214 138 1121 163 1157 b 100 1306 163 1269 138 1306 b 38 1214 61 1306 38 1269 z m 65 510 l 219 510 b 144 460 246 475 239 460 b 65 510 64 460 44 471 z m 69 515 l 142 611 l 217 515 z m 89 647 b 121 617 89 631 104 617 b 153 647 138 617 153 631 b 121 679 153 665 138 679 b 89 647 104 679 89 665 z m 161 708 l 167 889 l 172 708 z m 174 1214 b 236 1121 174 1157 199 1121 b 299 1214 275 1121 299 1157 b 236 1306 299 1269 275 1306 b 174 1214 199 1306 174 1269 z m 189 647 b 219 617 189 631 203 617 b 251 647 238 617 251 631 b 219 679 251 665 238 679 b 189 647 203 679 189 665 z "},"":{"ha":333,"x_min":0,"x_max":0,"o":"m 0 0 l 139 0 l 149 303 l 185 303 l 194 0 l 333 0 l 306 403 l 354 403 l 354 431 l -19 431 l -19 403 l 28 403 z m -35 457 l 368 457 b 275 519 319 461 311 472 l 169 656 l 74 528 b -35 457 33 474 22 461 z m -19 681 l 354 681 l 354 708 l 285 708 l 260 1072 b 299 1150 285 1083 299 1111 b 294 1183 299 1163 297 1174 l 317 1183 l 317 1249 l 33 1249 l 33 1183 l 42 1183 b 38 1150 39 1174 38 1163 b 74 1074 38 1113 51 1085 l 49 708 l -19 708 z m 65 510 l 219 510 b 144 460 246 475 239 460 b 65 510 64 460 44 471 z m 69 515 l 142 611 l 217 515 z m 89 647 b 121 621 89 633 104 621 b 153 647 138 621 153 633 b 121 676 153 664 138 676 b 89 647 104 676 89 664 z m 157 1111 b 163 1150 160 1122 163 1135 b 158 1183 163 1163 161 1174 l 178 1183 b 174 1150 175 1174 174 1163 b 179 1111 174 1135 176 1122 z m 161 708 l 167 889 l 172 708 z m 189 647 b 219 621 189 633 203 621 b 251 647 238 621 251 633 b 219 676 251 664 238 676 b 189 647 203 676 189 664 z "},"":{"ha":333,"x_min":0,"x_max":0,"o":"m 0 0 l 139 0 l 149 303 l 185 303 l 194 0 l 333 0 l 306 403 l 354 403 l 354 431 l 197 431 b 183 457 197 442 192 451 l 368 457 b 275 519 319 461 311 472 l 169 656 l 74 528 b -35 457 33 474 22 461 l 149 457 b 136 431 140 451 136 442 l -19 431 l -19 403 l 28 403 z m -19 681 l 354 681 l 354 708 l 285 708 l 257 1111 l 76 1111 l 49 708 l -19 708 z m 65 510 l 219 510 b 178 461 242 479 240 464 b 167 463 174 463 171 463 b 154 460 163 463 157 461 l 144 460 b 65 510 64 460 44 471 z m 69 515 l 142 611 l 217 515 z m 74 -117 b 168 -228 74 -181 114 -228 b 261 -117 221 -228 261 -181 b 168 -7 261 -54 221 -7 b 74 -117 114 -7 74 -54 z m 161 708 l 167 889 l 172 708 z "},"":{"ha":333,"x_min":0,"x_max":0,"o":"m 0 0 l 139 0 l 149 303 l 185 303 l 194 0 l 333 0 l 306 403 l 354 403 l 354 431 l -19 431 l -19 403 l 28 403 z m -35 457 l 368 457 b 275 519 319 461 311 472 l 186 633 l 225 629 l 226 632 l 149 681 l 354 681 l 354 708 l 285 708 l 257 1111 l 76 1111 l 49 708 l -19 708 l -19 681 l 139 681 l 111 642 l 156 638 l 74 528 b -35 457 33 474 22 461 z m 51 1290 l 124 1136 l 260 1136 l 238 1290 z m 65 510 l 219 510 b 144 460 246 475 239 460 b 65 510 64 460 44 471 z m 69 515 l 142 611 l 217 515 z m 161 708 l 167 889 l 172 708 z "},"":{"ha":333,"x_min":0,"x_max":0,"o":"m 0 0 l 139 0 l 149 303 l 185 303 l 194 0 l 333 0 l 306 403 l 354 403 l 354 431 l -19 431 l -19 403 l 28 403 z m -35 457 l 368 457 b 275 519 319 461 311 472 l 193 625 b 228 649 222 629 228 639 b 174 674 226 661 215 674 b 107 656 147 674 124 665 l 111 653 b 174 671 128 663 149 671 b 193 649 188 671 193 669 b 189 631 193 640 192 635 l 169 656 l 74 528 b -35 457 33 474 22 461 z m -19 681 l 354 681 l 354 708 l 285 708 l 257 1111 l 76 1111 l 49 708 l -19 708 z m 65 510 l 219 510 b 144 460 246 475 239 460 b 65 510 64 460 44 471 z m 69 515 l 142 611 l 217 515 z m 88 1190 b 111 1203 92 1196 100 1203 b 132 1179 125 1203 132 1193 b 117 1146 132 1165 125 1153 l 150 1118 b 244 1222 193 1136 244 1174 b 146 1299 244 1264 201 1299 b 88 1278 121 1299 99 1290 z m 161 708 l 167 889 l 172 708 z "},"":{"ha":389,"x_min":0,"x_max":0,"o":"m 361 0 l 361 403 l 403 403 l 403 431 l -14 431 l -14 403 l 28 403 l 28 167 b 194 0 28 71 99 0 z m -14 681 l 403 681 l 403 708 l 361 708 l 361 1111 l 194 1111 b 28 944 99 1111 28 1040 l 28 708 l -14 708 z m 35 557 b 208 457 35 501 72 457 l 381 457 b 319 517 319 460 319 469 l 319 596 b 381 656 319 643 321 653 l 208 656 b 35 557 72 656 35 611 z m 97 557 b 214 651 97 622 144 651 l 265 651 l 265 461 l 214 461 b 97 557 144 461 97 490 z m 167 167 l 167 403 l 222 403 l 222 139 l 194 139 b 167 167 179 139 167 151 z m 167 708 l 167 944 b 194 972 167 960 179 972 l 222 972 l 222 708 z "},"":{"ha":333,"x_min":0,"x_max":0,"o":"m 0 0 l 139 0 l 149 303 l 185 303 l 194 0 l 333 0 l 306 403 l 354 403 l 354 431 l -19 431 l -19 403 l 28 403 z m -35 457 l 368 457 b 275 519 319 461 311 472 l 171 654 l 257 654 l 257 671 l 83 671 l 83 654 l 168 654 l 74 528 b -35 457 33 474 22 461 z m -19 681 l 354 681 l 354 708 l 285 708 l 257 1111 l 76 1111 l 49 708 l -19 708 z m 33 1153 l 317 1153 l 317 1218 l 33 1218 z m 65 510 l 219 510 b 144 460 246 475 239 460 b 65 510 64 460 44 471 z m 69 515 l 142 611 l 217 515 z m 161 708 l 167 889 l 172 708 z "},"":{"ha":333,"x_min":0,"x_max":0,"o":"m 0 0 l 139 0 l 149 303 l 185 303 l 194 6 b 160 -81 174 -18 160 -47 b 258 -179 160 -133 203 -179 b 317 -153 283 -179 306 -168 l 317 -40 b 293 -56 313 -47 304 -56 b 272 -26 279 -56 272 -43 b 278 0 272 -17 274 -8 l 333 0 l 306 403 l 354 403 l 354 431 l 274 431 b 271 443 272 433 271 438 b 274 457 271 449 272 453 l 368 457 b 275 519 319 461 311 472 l 169 656 l 74 528 b -35 457 33 474 22 461 l 244 457 b 238 443 239 453 238 449 b 242 431 238 438 239 433 l -19 431 l -19 403 l 28 403 z m -19 681 l 354 681 l 354 708 l 285 708 l 257 1111 l 76 1111 l 49 708 l -19 708 z m 65 510 l 219 510 b 144 460 246 475 239 460 b 65 510 64 460 44 471 z m 69 515 l 142 611 l 217 515 z m 161 708 l 167 889 l 172 708 z "},"":{"ha":333,"x_min":0,"x_max":0,"o":"m 0 0 l 139 0 l 149 303 l 185 303 l 194 0 l 333 0 l 306 403 l 354 403 l 354 431 l -19 431 l -19 403 l 28 403 z m -35 457 l 368 457 b 275 519 319 461 311 472 l 192 626 b 213 649 204 632 213 639 b 169 675 213 665 194 675 b 128 649 144 675 128 665 b 149 626 128 639 135 631 l 74 528 b -35 457 33 474 22 461 z m -19 681 l 354 681 l 354 708 l 285 708 l 258 1101 b 275 1163 268 1118 275 1139 b 169 1275 275 1225 228 1275 b 64 1163 110 1275 64 1225 b 76 1110 64 1143 68 1125 l 49 708 l -19 708 z m 65 510 l 219 510 b 144 460 246 475 239 460 b 65 510 64 460 44 471 z m 69 515 l 142 611 l 217 515 z m 157 649 b 169 674 157 663 163 674 b 182 649 176 674 182 663 b 181 640 182 646 182 643 l 169 656 l 158 640 z m 161 708 l 167 889 l 172 708 z m 163 1163 b 169 1217 163 1201 164 1217 b 176 1163 175 1217 176 1201 b 172 1111 176 1132 175 1115 l 167 1111 b 163 1163 164 1115 163 1132 z "},"":{"ha":333,"x_min":0,"x_max":0,"o":"m 0 0 l 139 0 l 149 303 l 185 303 l 194 0 l 333 0 l 306 403 l 354 403 l 354 431 l -19 431 l -19 403 l 28 403 z m -35 457 l 368 457 b 275 519 319 461 311 472 l 200 615 b 258 668 238 617 258 639 l 254 668 b 229 644 254 651 244 644 b 142 675 200 644 183 675 b 88 622 114 675 88 653 l 93 622 b 117 644 93 638 101 644 b 151 631 129 644 140 638 l 74 528 b -35 457 33 474 22 461 z m -19 681 l 354 681 l 354 708 l 285 708 l 257 1111 l 235 1111 b 307 1338 274 1135 307 1210 l 221 1338 b 217 1269 221 1296 219 1275 b 206 1286 215 1264 211 1271 b 107 1338 183 1336 143 1356 b 31 1121 67 1317 31 1250 l 117 1121 b 121 1192 117 1167 118 1186 b 135 1171 124 1196 129 1186 b 181 1111 149 1140 164 1121 l 76 1111 l 49 708 l -19 708 z m 65 510 l 219 510 b 144 460 246 475 239 460 b 65 510 64 460 44 471 z m 69 515 l 142 611 l 217 515 z m 161 708 l 167 889 l 172 708 z "},"":{"ha":413,"x_min":0,"x_max":0,"o":"m 0 0 l 139 0 l 153 303 l 176 303 l 176 0 l 399 0 l 399 139 l 315 139 l 315 403 l 432 403 l 432 431 l -18 431 l -18 403 l 33 403 z m -29 457 l 81 457 l 81 458 b 61 497 47 458 38 471 l 89 528 l 189 528 l 189 517 b 125 457 189 469 183 460 l 383 457 l 435 556 b 290 461 396 497 347 461 l 243 461 l 243 554 l 274 554 b 339 517 314 554 333 543 l 339 596 b 274 558 333 569 314 558 l 243 558 l 243 651 b 408 557 317 649 346 644 l 357 656 l 125 656 b 182 639 158 654 175 651 l 56 497 b -29 458 28 468 -1 458 z m -18 681 l 432 681 l 432 708 l 315 708 l 315 972 l 399 972 l 399 1111 l 90 1111 l 57 708 l -18 708 z m 92 532 l 185 635 b 189 596 189 626 189 614 l 189 532 z m 169 708 l 176 857 l 176 708 z "},"":{"ha":413,"x_min":0,"x_max":0,"o":"m 0 0 l 139 0 l 153 303 l 176 303 l 176 0 l 399 0 l 399 139 l 315 139 l 315 403 l 432 403 l 432 431 l -18 431 l -18 403 l 33 403 z m -29 457 l 81 457 l 81 458 b 61 497 47 458 38 471 l 89 528 l 189 528 l 189 517 b 125 457 189 469 183 460 l 383 457 l 435 556 b 290 461 396 497 347 461 l 243 461 l 243 554 l 274 554 b 339 517 314 554 333 543 l 339 596 b 274 558 333 569 314 558 l 243 558 l 243 651 b 408 557 317 649 346 644 l 357 656 l 125 656 b 182 639 158 654 175 651 l 56 497 b -29 458 28 468 -1 458 z m -18 681 l 432 681 l 432 708 l 315 708 l 315 972 l 399 972 l 399 1111 l 90 1111 l 57 708 l -18 708 z m 92 532 l 185 635 b 189 596 189 626 189 614 l 189 532 z m 107 1157 l 390 1157 l 390 1222 l 107 1222 z m 157 658 l 331 658 l 331 675 l 157 675 z m 169 708 l 176 857 l 176 708 z "},"B":{"ha":389,"x_min":0,"x_max":0,"o":"m 28 0 l 194 0 b 361 167 290 0 361 71 l 361 403 l 403 403 l 403 431 l -14 431 l -14 403 l 28 403 z m -14 681 l 403 681 l 403 708 l 358 708 b 361 736 360 718 361 726 l 361 944 b 194 1111 361 1040 290 1111 l 28 1111 l 28 708 l -14 708 z m 7 457 l 228 457 b 356 517 319 457 356 485 b 242 572 356 549 326 564 b 317 610 299 578 317 590 b 199 656 317 638 289 656 l 7 656 b 67 596 74 654 67 644 l 67 517 b 7 457 67 469 72 460 z m 121 461 l 121 568 l 218 568 b 292 515 260 568 292 549 b 196 461 292 485 260 461 z m 121 572 l 121 651 l 185 651 b 265 610 240 651 265 635 b 199 572 265 586 239 572 z m 167 139 l 167 403 l 222 403 l 222 167 b 194 139 222 151 210 139 z m 167 708 l 167 972 l 194 972 b 222 944 210 972 222 960 l 222 708 z "},"":{"ha":389,"x_min":0,"x_max":0,"o":"m 28 0 l 194 0 b 361 167 290 0 361 71 l 361 403 l 403 403 l 403 431 l 225 431 b 211 457 225 442 219 451 l 228 457 b 356 517 319 457 356 485 b 242 572 356 549 326 564 b 317 610 299 578 317 590 b 199 656 317 638 289 656 l 7 656 b 67 596 74 654 67 644 l 67 517 b 7 457 67 469 72 460 l 176 457 b 164 431 168 451 164 442 l -14 431 l -14 403 l 28 403 z m -14 681 l 403 681 l 403 708 l 358 708 b 361 736 360 718 361 726 l 361 944 b 194 1111 361 1040 290 1111 l 28 1111 l 28 708 l -14 708 z m 101 -117 b 196 -228 101 -181 142 -228 b 289 -117 249 -228 289 -181 b 196 -7 289 -54 249 -7 b 101 -117 142 -7 101 -54 z m 121 461 l 121 568 l 218 568 b 292 515 260 568 292 549 b 203 461 292 486 263 463 b 194 463 200 463 197 463 b 185 461 192 463 188 463 z m 121 572 l 121 651 l 185 651 b 265 610 240 651 265 635 b 199 572 265 586 239 572 z m 167 139 l 167 403 l 182 403 b 194 400 185 401 190 400 b 207 403 199 400 203 401 l 222 403 l 222 167 b 194 139 222 151 210 139 z m 167 708 l 167 972 l 194 972 b 222 944 210 972 222 960 l 222 708 z "},"":{"ha":389,"x_min":0,"x_max":0,"o":"m 28 0 l 194 0 b 361 167 290 0 361 71 l 361 403 l 403 403 l 403 431 l -14 431 l -14 403 l 28 403 z m -14 681 l 403 681 l 403 708 l 358 708 b 361 736 360 718 361 726 l 361 944 b 194 1111 361 1040 290 1111 l 28 1111 l 28 708 l -14 708 z m 7 457 l 228 457 b 356 517 319 457 356 485 b 242 572 356 549 326 564 b 317 610 299 578 317 590 b 199 656 317 638 289 656 l 7 656 b 67 596 74 654 67 644 l 67 526 l 39 526 l 39 515 l 67 515 b 7 457 67 469 72 460 z m 121 461 l 121 515 l 211 515 l 211 526 l 121 526 l 121 568 l 218 568 b 292 515 260 568 292 549 b 196 461 292 485 260 461 z m 121 572 l 121 651 l 185 651 b 265 610 240 651 265 635 b 199 572 265 586 239 572 z m 167 139 l 167 403 l 222 403 l 222 167 b 194 139 222 151 210 139 z m 167 708 l 167 972 l 194 972 b 222 944 210 972 222 960 l 222 708 z "},"C":{"ha":389,"x_min":0,"x_max":0,"o":"m 28 167 b 194 0 28 71 99 0 b 361 167 290 0 361 71 l 361 375 l 222 375 l 222 167 b 194 139 222 151 210 139 b 167 167 179 139 167 151 l 167 403 l 403 403 l 403 431 l -14 431 l -14 403 l 28 403 z m -14 681 l 403 681 l 403 708 l 167 708 l 167 944 b 194 972 167 960 179 972 b 222 944 210 972 222 960 l 222 736 l 361 736 l 361 944 b 194 1111 361 1040 290 1111 b 28 944 99 1111 28 1040 l 28 708 l -14 708 z m 31 556 b 214 451 32 497 99 451 b 347 492 268 451 314 468 l 347 661 b 285 649 343 639 326 638 b 193 661 264 656 232 661 b 31 556 96 661 29 614 z m 93 546 b 197 657 58 611 100 657 b 335 576 283 657 322 617 b 271 464 353 538 329 474 b 93 546 200 453 126 482 z "},"":{"ha":389,"x_min":0,"x_max":0,"o":"m 28 167 b 194 0 28 71 99 0 b 361 167 290 0 361 71 l 361 375 l 222 375 l 222 167 b 194 139 222 151 210 139 b 167 167 179 139 167 151 l 167 403 l 403 403 l 403 431 l -14 431 l -14 403 l 28 403 z m -14 681 l 224 681 l 193 661 b 31 556 96 661 29 614 b 214 451 32 497 99 451 b 347 492 268 451 314 468 l 347 661 b 285 649 343 639 326 638 b 250 657 275 651 264 654 l 233 681 l 403 681 l 403 708 l 167 708 l 167 944 b 194 972 167 960 179 972 b 222 944 210 972 222 960 l 222 736 l 361 736 l 361 944 b 194 1111 361 1040 290 1111 b 28 944 99 1111 28 1040 l 28 708 l -14 708 z m 93 546 b 186 657 60 608 97 653 l 146 632 l 147 629 l 261 642 l 256 650 b 335 576 301 636 325 606 b 271 464 353 538 329 474 b 93 546 200 453 126 482 z m 124 1144 l 260 1144 l 332 1350 l 160 1350 z "},"":{"ha":389,"x_min":0,"x_max":0,"o":"m 28 167 b 194 0 28 71 99 0 b 361 167 290 0 361 71 l 361 375 l 222 375 l 222 167 b 194 139 222 151 210 139 b 167 167 179 139 167 151 l 167 403 l 403 403 l 403 431 l -14 431 l -14 403 l 28 403 z m -14 681 l 128 681 l 160 660 b 31 556 81 650 29 607 b 214 451 32 497 99 451 b 347 492 268 451 314 468 l 347 661 b 285 649 343 639 326 638 b 242 658 274 653 258 656 l 275 681 l 403 681 l 403 708 l 167 708 l 167 944 b 194 972 167 960 179 972 b 222 944 210 972 222 960 l 222 736 l 361 736 l 361 944 b 249 1103 361 1021 315 1082 l 324 1350 l 219 1350 l 200 1268 l 179 1350 l 75 1350 l 150 1106 b 28 944 78 1088 28 1025 l 28 708 l -14 708 z m 93 546 b 167 656 63 604 92 646 l 197 635 l 206 635 l 235 654 b 335 576 294 644 324 610 b 271 464 353 538 329 474 b 93 546 200 453 126 482 z m 154 681 l 244 681 l 201 672 z "},"":{"ha":389,"x_min":0,"x_max":0,"o":"m 28 167 b 143 7 28 89 74 28 l 117 -61 l 117 -117 b 143 -108 125 -111 135 -108 b 175 -157 161 -108 175 -124 b 143 -199 175 -186 161 -199 b 117 -181 135 -199 124 -192 l 117 -287 b 175 -307 135 -301 153 -307 b 300 -157 246 -307 300 -251 b 229 -24 300 -86 268 -39 l 240 6 b 361 167 313 25 361 88 l 361 375 l 222 375 l 222 167 b 194 139 222 151 210 139 b 167 167 179 139 167 151 l 167 403 l 168 403 l 172 401 b 197 399 179 400 188 399 b 242 403 215 399 231 400 l 403 403 l 403 431 l 265 431 b 201 444 258 440 238 444 l 201 451 l 214 451 b 347 492 268 451 314 468 l 347 661 b 285 649 343 639 326 638 b 193 661 264 656 232 661 b 31 556 96 661 29 614 b 197 451 32 500 92 456 l 197 442 b 226 431 211 442 222 440 l -14 431 l -14 403 l 28 403 z m -14 681 l 403 681 l 403 708 l 167 708 l 167 944 b 194 972 167 960 179 972 b 222 944 210 972 222 960 l 222 736 l 361 736 l 361 944 b 194 1111 361 1040 290 1111 b 28 944 99 1111 28 1040 l 28 708 l -14 708 z m 93 546 b 197 657 58 611 100 657 b 335 576 283 657 322 617 b 271 464 353 538 329 474 b 93 546 200 453 126 482 z "},"":{"ha":389,"x_min":0,"x_max":0,"o":"m 28 167 b 194 0 28 71 99 0 b 361 167 290 0 361 71 l 361 375 l 222 375 l 222 167 b 194 139 222 151 210 139 b 167 167 179 139 167 151 l 167 403 l 403 403 l 403 431 l -14 431 l -14 403 l 28 403 z m -14 681 l 178 681 l 140 656 b 31 556 72 643 29 603 b 214 451 32 497 99 451 b 347 492 268 451 314 468 l 347 661 b 285 649 343 639 326 638 b 264 654 279 650 271 653 l 224 681 l 403 681 l 403 708 l 167 708 l 167 944 b 194 972 167 960 179 972 b 222 944 210 972 222 960 l 222 736 l 361 736 l 361 944 b 194 1111 361 1040 290 1111 b 28 944 99 1111 28 1040 l 28 708 l -14 708 z m 75 1133 l 179 1133 l 199 1215 l 219 1133 l 324 1133 l 247 1381 l 150 1381 z m 93 546 b 122 644 69 590 82 626 l 121 643 l 122 640 l 201 656 l 274 643 b 335 576 308 628 326 601 b 271 464 353 538 329 474 b 93 546 200 453 126 482 z "},"":{"ha":389,"x_min":0,"x_max":0,"o":"m 28 167 b 194 0 28 71 99 0 b 361 167 290 0 361 71 l 361 375 l 222 375 l 222 167 b 194 139 222 151 210 139 b 167 167 179 139 167 151 l 167 403 l 403 403 l 403 431 l -14 431 l -14 403 l 28 403 z m -14 681 l 171 681 b 183 661 172 672 176 665 b 31 556 92 658 29 613 b 214 451 32 497 99 451 b 347 492 268 451 314 468 l 347 661 b 285 649 343 639 326 638 b 217 660 268 654 244 658 b 231 681 224 665 228 672 l 403 681 l 403 708 l 222 708 b 200 718 217 714 210 718 b 178 708 192 718 183 714 l 167 708 l 167 944 b 194 972 167 960 179 972 b 222 944 210 972 222 960 l 222 736 l 361 736 l 361 944 b 194 1111 361 1040 290 1111 b 28 944 99 1111 28 1040 l 28 708 l -14 708 z m 93 546 b 192 657 60 610 99 656 b 200 656 194 656 197 656 b 208 657 203 656 206 656 b 335 576 288 653 322 615 b 271 464 353 538 329 474 b 93 546 200 453 126 482 z m 106 1235 b 199 1125 106 1172 146 1125 b 293 1235 253 1125 293 1172 b 199 1346 293 1299 253 1346 b 106 1235 146 1346 106 1299 z "},"D":{"ha":389,"x_min":0,"x_max":0,"o":"m 28 0 l 194 0 b 361 167 290 0 361 71 l 361 403 l 403 403 l 403 431 l -14 431 l -14 403 l 28 403 z m -14 681 l 403 681 l 403 708 l 361 708 l 361 944 b 194 1111 361 1040 290 1111 l 28 1111 l 28 708 l -14 708 z m 8 457 l 181 457 b 354 557 317 457 354 501 b 181 656 354 611 317 656 l 8 656 b 69 596 68 653 69 643 l 69 517 b 8 457 69 469 69 460 z m 124 461 l 124 651 l 175 651 b 292 557 244 651 292 622 b 175 461 292 490 244 461 z m 167 139 l 167 403 l 222 403 l 222 167 b 194 139 222 151 210 139 z m 167 708 l 167 972 l 194 972 b 222 944 210 972 222 960 l 222 708 z "},"":{"ha":389,"x_min":0,"x_max":0,"o":"m 28 0 l 194 0 b 361 167 290 0 361 71 l 361 403 l 403 403 l 403 431 l -14 431 l -14 403 l 28 403 z m -14 681 l 403 681 l 403 708 l 361 708 l 361 944 b 194 1111 361 1040 290 1111 l 28 1111 l 28 708 l -14 708 z m 8 457 l 181 457 b 354 557 317 457 354 501 b 181 656 354 611 317 656 l 8 656 b 69 596 68 653 69 643 l 69 564 l 42 564 l 42 553 l 69 553 l 69 517 b 8 457 69 469 69 460 z m 124 461 l 124 553 l 214 553 l 214 564 l 124 564 l 124 651 l 175 651 b 292 557 244 651 292 622 b 175 461 292 490 244 461 z m 167 139 l 167 403 l 222 403 l 222 167 b 194 139 222 151 210 139 z m 167 708 l 167 972 l 194 972 b 222 944 210 972 222 960 l 222 708 z "},"":{"ha":389,"x_min":0,"x_max":0,"o":"m 28 0 l 194 0 b 361 167 290 0 361 71 l 361 403 l 403 403 l 403 431 l -14 431 l -14 403 l 28 403 z m -14 681 l 268 681 l 196 667 l 118 681 l 115 679 l 151 656 l 8 656 b 69 596 68 653 69 643 l 69 517 b 8 457 69 469 69 460 l 181 457 b 354 557 317 457 354 501 b 236 653 354 603 328 642 l 276 679 l 276 681 l 403 681 l 403 708 l 361 708 l 361 944 b 244 1104 361 1022 314 1083 l 318 1344 l 214 1344 l 194 1263 l 174 1344 l 69 1344 l 142 1111 l 28 1111 l 28 708 l -14 708 z m 124 461 l 124 651 l 158 651 l 192 629 l 200 629 l 225 646 b 292 557 265 633 292 606 b 175 461 292 490 244 461 z m 167 139 l 167 403 l 222 403 l 222 167 b 194 139 222 151 210 139 z m 167 708 l 167 972 l 194 972 b 222 944 210 972 222 960 l 222 708 z "},"":{"ha":389,"x_min":0,"x_max":0,"o":"m 28 0 l 142 0 l 71 -232 l 175 -232 l 194 -150 l 215 -232 l 319 -232 l 246 7 b 361 167 314 28 361 89 l 361 403 l 403 403 l 403 431 l -14 431 l -14 403 l 28 403 z m -14 681 l 403 681 l 403 708 l 361 708 l 361 944 b 194 1111 361 1040 290 1111 l 28 1111 l 28 708 l -14 708 z m 8 457 l 149 457 l 113 433 l 114 431 l 193 446 l 271 432 l 274 433 l 233 460 b 354 557 326 469 354 510 b 181 656 354 611 317 656 l 8 656 b 69 596 68 653 69 643 l 69 517 b 8 457 69 469 69 460 z m 124 461 l 124 651 l 175 651 b 292 557 244 651 292 622 b 222 467 292 507 265 478 l 197 483 l 189 483 l 156 461 z m 167 139 l 167 403 l 222 403 l 222 167 b 194 139 222 151 210 139 z m 167 708 l 167 972 l 194 972 b 222 944 210 972 222 960 l 222 708 z "},"":{"ha":389,"x_min":0,"x_max":0,"o":"m 28 0 l 194 0 b 361 167 290 0 361 71 l 361 403 l 403 403 l 403 431 l -14 431 l -14 403 l 28 403 z m -14 681 l 403 681 l 403 708 l 361 708 l 361 944 b 194 1111 361 1040 290 1111 l 28 1111 l 28 708 l -14 708 z m 8 457 l 181 457 b 354 557 317 457 354 501 b 181 656 354 611 317 656 l 8 656 b 69 596 68 653 69 643 l 69 564 l 42 564 l 42 553 l 69 553 l 69 517 b 8 457 69 469 69 460 z m 124 461 l 124 553 l 214 553 l 214 564 l 124 564 l 124 651 l 175 651 b 292 557 244 651 292 622 b 175 461 292 490 244 461 z m 167 139 l 167 403 l 222 403 l 222 167 b 194 139 222 151 210 139 z m 167 708 l 167 972 l 194 972 b 222 944 210 972 222 960 l 222 708 z "},"":{"ha":389,"x_min":0,"x_max":0,"o":"m 28 0 l 194 0 b 361 167 290 0 361 71 l 361 403 l 403 403 l 403 431 l 225 431 b 211 458 225 442 219 453 b 354 557 322 464 354 506 b 181 656 354 611 317 656 l 8 656 b 69 596 68 653 69 643 l 69 517 b 8 457 69 469 69 460 l 176 457 b 164 431 168 451 164 442 l -14 431 l -14 403 l 28 403 z m -14 681 l 403 681 l 403 708 l 361 708 l 361 944 b 194 1111 361 1040 290 1111 l 28 1111 l 28 708 l -14 708 z m 101 -117 b 196 -228 101 -181 142 -228 b 289 -117 249 -228 289 -181 b 196 -7 289 -54 249 -7 b 101 -117 142 -7 101 -54 z m 124 461 l 124 651 l 175 651 b 292 557 244 651 292 622 b 199 463 292 499 254 468 l 194 463 b 186 461 192 463 189 463 l 175 461 z m 167 139 l 167 403 l 182 403 b 194 400 185 401 190 400 b 207 403 199 400 203 401 l 222 403 l 222 167 b 194 139 222 151 210 139 z m 167 708 l 167 972 l 194 972 b 222 944 210 972 222 960 l 222 708 z "},"":{"ha":389,"x_min":0,"x_max":0,"o":"m 28 0 l 194 0 b 361 167 290 0 361 71 l 361 403 l 403 403 l 403 431 l -14 431 l -14 403 l 28 403 z m -14 681 l 403 681 l 403 708 l 361 708 l 361 944 b 194 1111 361 1040 290 1111 l 28 1111 l 28 708 l -14 708 z m 8 457 l 181 457 b 354 557 317 457 354 501 b 181 656 354 611 317 656 l 8 656 b 69 596 68 653 69 643 l 69 517 b 8 457 69 469 69 460 z m 58 -110 l 342 -110 l 342 -44 l 58 -44 z m 108 438 l 282 438 l 282 454 l 108 454 z m 124 461 l 124 651 l 175 651 b 292 557 244 651 292 622 b 175 461 292 490 244 461 z m 167 139 l 167 403 l 222 403 l 222 167 b 194 139 222 151 210 139 z m 167 708 l 167 972 l 194 972 b 222 944 210 972 222 960 l 222 708 z "},"":{"ha":389,"x_min":0,"x_max":0,"o":"m 28 0 l 194 0 b 361 167 290 0 361 71 l 361 403 l 403 403 l 403 431 l -14 431 l -14 403 l 28 403 z m -14 681 l 403 681 l 403 708 l 361 708 l 361 944 b 194 1111 361 1040 290 1111 l 28 1111 l 28 708 l -14 708 z m 8 457 l 181 457 b 354 557 317 457 354 501 b 181 656 354 611 317 656 l 8 656 b 69 596 68 653 69 643 l 69 564 l 42 564 l 42 553 l 69 553 l 69 517 b 8 457 69 469 69 460 z m 124 461 l 124 553 l 214 553 l 214 564 l 124 564 l 124 651 l 175 651 b 292 557 244 651 292 622 b 175 461 292 490 244 461 z m 167 139 l 167 403 l 222 403 l 222 167 b 194 139 222 151 210 139 z m 167 708 l 167 972 l 194 972 b 222 944 210 972 222 960 l 222 708 z "},"E":{"ha":264,"x_min":0,"x_max":0,"o":"m 28 0 l 250 0 l 250 139 l 167 139 l 167 403 l 276 403 l 276 431 l -12 431 l -12 403 l 28 403 z m -24 457 l 233 457 l 286 556 b 142 461 246 497 199 461 l 94 461 l 94 554 l 124 554 b 189 517 165 554 185 543 l 189 596 b 124 558 185 569 164 558 l 94 558 l 94 651 b 260 557 168 649 197 644 l 208 656 l -24 656 b 40 596 33 654 40 643 l 40 517 b -24 457 40 469 33 460 z m -12 681 l 276 681 l 276 708 l 167 708 l 167 972 l 250 972 l 250 1111 l 28 1111 l 28 708 l -12 708 z "},"":{"ha":264,"x_min":0,"x_max":0,"o":"m 28 0 l 250 0 l 250 139 l 167 139 l 167 403 l 276 403 l 276 431 l -12 431 l -12 403 l 28 403 z m -24 457 l 233 457 l 286 556 b 142 461 246 497 199 461 l 94 461 l 94 554 l 124 554 b 189 517 165 554 185 543 l 189 596 b 124 558 185 569 164 558 l 94 558 l 94 631 l 174 639 b 260 557 201 628 225 606 l 208 656 l 172 656 l 154 681 l 276 681 l 276 708 l 167 708 l 167 972 l 250 972 l 250 1111 l 28 1111 l 28 708 l -12 708 l -12 681 l 149 681 l 108 656 l -24 656 b 40 596 33 654 40 643 l 40 517 b -24 457 40 469 33 460 z m 46 1143 l 182 1143 l 254 1349 l 82 1349 z m 94 647 l 94 651 l 101 651 z "},"":{"ha":264,"x_min":0,"x_max":0,"o":"m 28 0 l 250 0 l 250 139 l 167 139 l 167 403 l 276 403 l 276 431 l -12 431 l -12 403 l 28 403 z m -24 457 l 233 457 l 286 556 b 142 461 246 497 199 461 l 94 461 l 94 554 l 124 554 b 189 517 165 554 185 543 l 189 596 b 124 558 185 569 164 558 l 94 558 l 94 650 l 119 633 l 128 633 l 149 647 b 260 557 188 639 215 619 l 208 656 l 161 656 l 200 681 l 276 681 l 276 708 l 167 708 l 167 972 l 250 972 l 250 1111 l 174 1111 l 246 1349 l 142 1349 l 122 1267 l 101 1349 l -3 1349 l 71 1111 l 28 1111 l 28 708 l -12 708 l -12 681 l 47 681 l 86 656 l -24 656 b 40 596 33 654 40 643 l 40 517 b -24 457 40 469 33 460 z m 69 681 l 174 681 l 124 671 z "},"":{"ha":264,"x_min":0,"x_max":0,"o":"m 28 0 l 61 0 l 39 -57 l 39 -112 b 65 -104 47 -107 57 -104 b 97 -153 83 -104 97 -119 b 65 -194 97 -182 83 -194 b 39 -176 57 -194 46 -187 l 39 -283 b 97 -303 57 -297 75 -303 b 222 -153 168 -303 222 -247 b 151 -19 222 -82 190 -35 l 158 0 l 250 0 l 250 139 l 167 139 l 167 403 l 276 403 l 276 431 l 190 431 b 124 449 186 443 165 449 l 124 457 l 233 457 l 286 556 b 142 461 246 497 199 461 l 94 461 l 94 554 l 124 554 b 189 517 165 554 185 543 l 189 596 b 124 558 185 569 164 558 l 94 558 l 94 651 b 260 557 168 649 197 644 l 208 656 l -24 656 b 40 596 33 654 40 643 l 40 517 b -24 457 40 469 33 460 l 119 457 l 119 446 b 150 431 135 446 147 444 l 79 431 b 68 431 75 433 71 432 l -12 431 l -12 403 l 28 403 z m -12 681 l 276 681 l 276 708 l 167 708 l 167 972 l 250 972 l 250 1111 l 28 1111 l 28 708 l -12 708 z "},"":{"ha":264,"x_min":0,"x_max":0,"o":"m 28 0 l 250 0 l 250 139 l 167 139 l 167 403 l 276 403 l 276 431 l -12 431 l -12 403 l 28 403 z m -24 457 l 233 457 l 286 556 b 142 461 246 497 199 461 l 94 461 l 94 554 l 124 554 b 189 517 165 554 185 543 l 189 596 b 124 558 185 569 164 558 l 94 558 l 94 649 l 107 651 b 260 557 171 647 201 639 l 208 656 l 182 656 l 143 681 l 276 681 l 276 708 l 167 708 l 167 972 l 250 972 l 250 1111 l 28 1111 l 28 708 l -12 708 l -12 681 l 103 681 l 64 656 l -24 656 b 40 596 33 654 40 643 l 40 517 b -24 457 40 469 33 460 z m -3 1132 l 101 1132 l 121 1214 l 142 1132 l 246 1132 l 169 1379 l 72 1379 z "},"":{"ha":264,"x_min":0,"x_max":0,"o":"m 28 0 l 250 0 l 250 139 l 167 139 l 167 403 l 276 403 l 276 431 l -12 431 l -12 403 l 28 403 z m -24 457 l 233 457 l 286 556 b 142 461 246 497 199 461 l 94 461 l 94 554 l 124 554 b 189 517 165 554 185 543 l 189 596 b 124 558 185 569 164 558 l 94 558 l 94 628 l 124 633 l 201 619 l 203 621 l 174 639 b 260 557 201 628 225 606 l 208 656 l 149 656 l 132 667 l 174 671 l 167 681 l 276 681 l 276 708 l 167 708 l 167 972 l 250 972 l 250 1111 l 242 1111 l 169 1336 l 72 1336 l -3 1097 l 28 1097 l 28 708 l -12 708 l -12 681 l 89 681 l 58 661 l 60 658 l 111 664 l 97 656 l -24 656 b 40 596 33 654 40 643 l 40 517 b -24 457 40 469 33 460 z m 46 1360 l 182 1360 l 254 1483 l 82 1483 z m 104 1111 l 121 1176 l 138 1111 z "},"":{"ha":264,"x_min":0,"x_max":0,"o":"m 28 0 l 250 0 l 250 139 l 167 139 l 167 403 l 276 403 l 276 431 l 161 431 b 147 457 161 442 156 451 l 233 457 l 286 556 b 142 461 246 497 199 461 l 139 461 b 131 463 136 463 133 463 b 121 461 128 463 124 463 l 94 461 l 94 554 l 124 554 b 189 517 165 554 185 543 l 189 596 b 124 558 185 569 164 558 l 94 558 l 94 649 l 107 651 b 260 557 171 647 201 639 l 208 656 l 182 656 l 143 681 l 276 681 l 276 708 l 167 708 l 167 972 l 250 972 l 250 1111 l 28 1111 l 28 708 l -12 708 l -12 681 l 103 681 l 64 656 l -24 656 b 40 596 33 654 40 643 l 40 517 b -24 457 40 469 33 460 l 113 457 b 100 431 104 451 100 442 l -12 431 l -12 403 l 28 403 z m -3 1132 l 101 1132 l 121 1214 l 142 1132 l 246 1132 l 169 1379 l 72 1379 z m 38 -117 b 132 -228 38 -181 78 -228 b 225 -117 185 -228 225 -181 b 132 -7 225 -54 185 -7 b 38 -117 78 -7 38 -54 z "},"":{"ha":264,"x_min":0,"x_max":0,"o":"m 28 0 l 250 0 l 250 139 l 167 139 l 167 403 l 276 403 l 276 431 l -12 431 l -12 403 l 28 403 z m -24 457 l 233 457 l 286 556 b 142 461 246 497 199 461 l 94 461 l 94 554 l 124 554 b 189 517 165 554 185 543 l 189 596 b 124 558 185 569 164 558 l 94 558 l 94 632 l 119 636 l 197 624 l 199 625 l 176 638 b 260 557 203 626 226 603 l 208 656 l 147 656 l 139 661 l 175 657 l 176 660 l 143 681 l 276 681 l 276 708 l 167 708 l 167 972 l 250 972 l 250 1111 l 228 1111 l 165 1294 l 68 1294 l -7 1071 l 28 1071 l 28 708 l -12 708 l -12 681 l 69 681 l 61 669 l 106 665 l 90 656 l -24 656 b 40 596 33 654 40 643 l 40 517 b -24 457 40 469 33 460 z m -14 1428 l 58 1306 l 194 1306 l 172 1428 z m 108 1111 l 117 1146 l 126 1111 z "},"":{"ha":264,"x_min":0,"x_max":0,"o":"m 28 0 l 250 0 l 250 139 l 167 139 l 167 403 l 276 403 l 276 431 l -12 431 l -12 403 l 28 403 z m -24 457 l 233 457 l 286 556 b 142 461 246 497 199 461 l 94 461 l 94 554 l 124 554 b 189 517 165 554 185 543 l 189 596 b 124 558 185 569 164 558 l 94 558 l 94 635 l 125 640 l 194 628 b 260 557 214 614 235 593 l 208 656 l 161 656 b 182 676 178 661 182 669 b 181 681 182 678 182 679 l 276 681 l 276 708 l 167 708 l 167 972 l 250 972 l 250 1111 l 28 1111 l 28 708 l -12 708 l -12 681 l 147 681 l 147 676 b 146 665 147 672 147 668 l 128 678 l 121 678 l 88 656 l -24 656 b 40 596 33 654 40 643 l 40 517 b -24 457 40 469 33 460 z m -1 1118 l 103 1118 l 122 1200 l 143 1118 l 247 1118 l 172 1363 b 215 1457 196 1386 215 1419 b 117 1556 215 1510 172 1556 b 58 1529 92 1556 69 1544 l 58 1417 b 82 1432 63 1424 71 1432 b 103 1403 96 1432 103 1419 b 92 1365 103 1388 99 1375 l 74 1365 z "},"":{"ha":264,"x_min":0,"x_max":0,"o":"m 28 0 l 250 0 l 250 139 l 167 139 l 167 403 l 276 403 l 276 431 l -12 431 l -12 403 l 28 403 z m -24 457 l 233 457 l 286 556 b 142 461 246 497 199 461 l 94 461 l 94 554 l 124 554 b 189 517 165 554 185 543 l 189 596 b 124 558 185 569 164 558 l 94 558 l 94 651 b 260 557 168 649 197 644 l 208 656 l -24 656 b 40 596 33 654 40 643 l 40 517 b -24 457 40 469 33 460 z m -14 1203 l 36 1203 l -4 1086 l 28 1086 l 28 708 l -12 708 l -12 681 l 79 681 l 42 660 l 43 657 l 122 671 l 200 658 l 201 660 l 164 681 l 276 681 l 276 708 l 193 708 b 214 750 207 718 214 733 l 210 750 b 185 726 210 733 200 726 b 167 731 178 726 172 728 l 167 972 l 250 972 l 250 1111 l 236 1111 l 203 1203 b 263 1419 236 1233 263 1306 l 176 1419 b 172 1351 176 1378 175 1357 b 161 1368 171 1346 167 1353 b 63 1419 139 1418 99 1438 b -14 1203 22 1399 -14 1332 z m 107 1111 l 119 1158 l 133 1111 z "},"":{"ha":264,"x_min":0,"x_max":0,"o":"m 28 0 l 250 0 l 250 139 l 167 139 l 167 403 l 276 403 l 276 431 l -12 431 l -12 403 l 28 403 z m -24 457 l 233 457 l 286 556 b 142 461 246 497 199 461 l 94 461 l 94 554 l 124 554 b 189 517 165 554 185 543 l 189 596 b 124 558 185 569 164 558 l 94 558 l 94 633 b 106 651 100 638 104 644 b 143 647 119 650 132 650 b 172 625 146 635 158 625 b 190 631 179 625 186 626 b 260 557 211 617 232 594 l 208 656 l 204 656 b 193 681 204 665 200 675 l 276 681 l 276 708 l 167 708 l 167 972 l 250 972 l 250 1111 l 28 1111 l 28 708 l -12 708 l -12 681 l 54 681 b 42 656 47 675 42 665 l -24 656 b 40 596 33 654 40 643 l 40 517 b -24 457 40 469 33 460 z m -10 1222 b 53 1129 -10 1165 14 1129 b 115 1222 90 1129 115 1165 b 53 1314 115 1278 90 1314 b -10 1222 14 1314 -10 1278 z m 93 681 l 153 681 b 142 656 146 675 142 665 l 106 656 b 93 681 106 665 100 675 z m 126 1222 b 189 1129 126 1165 151 1129 b 251 1222 228 1129 251 1165 b 189 1314 251 1278 228 1314 b 126 1222 151 1314 126 1278 z "},"":{"ha":264,"x_min":0,"x_max":0,"o":"m 28 0 l 250 0 l 250 139 l 167 139 l 167 403 l 276 403 l 276 431 l -12 431 l -12 403 l 28 403 z m -24 457 l 233 457 l 286 556 b 142 461 246 497 199 461 l 94 461 l 94 554 l 124 554 b 189 517 165 554 185 543 l 189 596 b 124 558 185 569 164 558 l 94 558 l 94 651 b 260 557 168 649 197 644 l 208 656 l 132 656 b 153 681 143 658 150 668 l 276 681 l 276 708 l 167 708 l 167 972 l 250 972 l 250 1111 l 28 1111 l 28 708 l -12 708 l -12 681 l 92 681 b 114 656 94 668 103 658 l -24 656 b 40 596 33 654 40 643 l 40 517 b -24 457 40 469 33 460 z m 28 1233 b 121 1124 28 1171 68 1124 b 215 1233 175 1124 215 1171 b 121 1344 215 1297 175 1344 b 28 1233 68 1344 28 1297 z "},"":{"ha":264,"x_min":0,"x_max":0,"o":"m 28 0 l 250 0 l 250 139 l 167 139 l 167 403 l 276 403 l 276 431 l 161 431 b 147 457 161 442 156 451 l 233 457 l 286 556 b 142 461 246 497 199 461 l 139 461 b 131 463 136 463 133 463 b 121 461 128 463 124 463 l 94 461 l 94 554 l 124 554 b 189 517 165 554 185 543 l 189 596 b 124 558 185 569 164 558 l 94 558 l 94 651 b 260 557 168 649 197 644 l 208 656 l -24 656 b 40 596 33 654 40 643 l 40 517 b -24 457 40 469 33 460 l 113 457 b 100 431 104 451 100 442 l -12 431 l -12 403 l 28 403 z m -12 681 l 276 681 l 276 708 l 167 708 l 167 972 l 250 972 l 250 1111 l 28 1111 l 28 708 l -12 708 z m 38 -117 b 132 -228 38 -181 78 -228 b 225 -117 185 -228 225 -181 b 132 -7 225 -54 185 -7 b 38 -117 78 -7 38 -54 z "},"":{"ha":264,"x_min":0,"x_max":0,"o":"m 28 0 l 250 0 l 250 139 l 167 139 l 167 403 l 276 403 l 276 431 l -12 431 l -12 403 l 28 403 z m -24 457 l 233 457 l 286 556 b 142 461 246 497 199 461 l 94 461 l 94 554 l 124 554 b 189 517 165 554 185 543 l 189 596 b 124 558 185 569 164 558 l 94 558 l 94 647 l 178 638 b 260 557 203 626 226 603 l 208 656 l 154 656 l 114 681 l 276 681 l 276 708 l 167 708 l 167 972 l 250 972 l 250 1111 l 28 1111 l 28 708 l -12 708 l -12 681 l 86 681 l 68 656 l -24 656 b 40 596 33 654 40 643 l 40 517 b -24 457 40 469 33 460 z m 4 1299 l 76 1144 l 213 1144 l 190 1299 z "},"":{"ha":264,"x_min":0,"x_max":0,"o":"m 28 0 l 250 0 l 250 139 l 167 139 l 167 403 l 276 403 l 276 431 l -12 431 l -12 403 l 28 403 z m -24 457 l 233 457 l 286 556 b 142 461 246 497 199 461 l 94 461 l 94 554 l 124 554 b 189 517 165 554 185 543 l 189 596 b 124 558 185 569 164 558 l 94 558 l 94 651 b 144 647 114 650 131 650 b 107 635 143 635 133 632 l 108 632 b 171 640 142 631 161 635 b 260 557 199 631 224 607 l 208 656 l 181 656 l 181 657 b 147 681 179 667 172 676 l 276 681 l 276 708 l 167 708 l 167 972 l 250 972 l 250 1111 l 28 1111 l 28 708 l -12 708 l -12 681 l 107 681 b 60 664 89 678 72 671 l 64 661 b 126 679 81 671 101 679 b 146 657 140 679 146 678 l 146 656 l -24 656 b 40 596 33 654 40 643 l 40 517 b -24 457 40 469 33 460 z m 40 1199 b 64 1211 44 1204 53 1211 b 85 1188 78 1211 85 1201 b 69 1154 85 1174 78 1161 l 103 1126 b 197 1231 146 1144 197 1182 b 99 1307 197 1272 154 1307 b 40 1286 74 1307 51 1299 z "},"":{"ha":264,"x_min":0,"x_max":0,"o":"m 28 0 l 250 0 l 250 139 l 167 139 l 167 403 l 276 403 l 276 431 l -12 431 l -12 403 l 28 403 z m -24 457 l 233 457 l 286 556 b 142 461 246 497 199 461 l 94 461 l 94 554 l 124 554 b 189 517 165 554 185 543 l 189 596 b 124 558 185 569 164 558 l 94 558 l 94 651 b 260 557 168 649 197 644 l 208 656 l -24 656 b 40 596 33 654 40 643 l 40 517 b -24 457 40 469 33 460 z m -14 1161 l 269 1161 l 269 1226 l -14 1226 z m -12 681 l 276 681 l 276 708 l 167 708 l 167 972 l 250 972 l 250 1111 l 28 1111 l 28 708 l -12 708 z m 36 663 l 210 663 l 210 679 l 36 679 z "},"":{"ha":264,"x_min":0,"x_max":0,"o":"m 28 0 l 83 0 b 50 -83 64 -24 50 -51 b 149 -182 50 -136 93 -182 b 207 -156 174 -182 196 -171 l 207 -43 b 183 -58 203 -50 194 -58 b 163 -29 169 -58 163 -46 b 169 0 163 -18 165 -8 l 250 0 l 250 139 l 167 139 l 167 403 l 276 403 l 276 431 l 163 431 b 161 440 161 433 161 436 b 165 457 161 447 163 451 l 233 457 l 286 556 b 175 465 254 510 218 476 l 185 471 l 185 472 b 146 461 167 469 154 465 l 142 461 l 94 461 l 94 554 l 124 554 b 189 517 165 554 185 543 l 189 596 b 124 558 185 569 164 558 l 94 558 l 94 651 b 260 557 168 649 197 644 l 208 656 l -24 656 b 40 596 33 654 40 643 l 40 517 b -24 457 40 469 33 460 l 138 457 b 128 440 131 451 128 446 b 131 431 128 436 129 433 l -12 431 l -12 403 l 28 403 z m -12 681 l 276 681 l 276 708 l 167 708 l 167 972 l 250 972 l 250 1111 l 28 1111 l 28 708 l -12 708 z "},"":{"ha":389,"x_min":0,"x_max":0,"o":"m 361 167 l 361 367 l 222 367 l 222 167 b 194 139 222 151 210 139 b 167 167 179 139 167 151 l 167 403 l 403 403 l 403 431 l -14 431 l -14 403 l 28 403 l 28 167 b 194 0 28 71 99 0 b 361 167 290 0 361 71 z m -14 681 l 403 681 l 403 708 l 167 708 l 167 944 b 194 972 167 960 179 972 b 222 944 210 972 222 960 l 222 750 l 361 750 l 361 944 b 194 1111 361 1040 290 1111 b 28 944 99 1111 28 1040 l 28 722 l 28 708 l -14 708 z m 35 510 b 224 456 35 475 121 456 b 356 499 338 456 360 478 b 321 519 353 513 338 519 b 290 497 304 519 290 508 b 321 476 290 485 304 476 b 343 482 329 476 338 478 b 232 461 333 471 307 461 b 128 510 168 461 128 474 b 253 560 128 556 161 560 l 261 560 l 261 564 b 139 610 175 564 139 565 b 221 650 139 640 167 650 b 319 619 288 650 317 635 b 292 633 315 628 304 633 b 263 611 276 633 263 622 b 292 589 263 599 276 589 b 329 606 304 589 322 593 b 211 657 338 622 319 657 b 60 610 122 657 60 636 b 196 563 60 588 96 568 b 35 510 88 557 35 538 z "},"":{"ha":264,"x_min":0,"x_max":0,"o":"m 236 0 l 236 403 l 276 403 l 276 431 l -12 431 l -12 403 l 97 403 l 97 139 l 14 139 l 14 0 z m -22 556 l 31 457 l 288 457 b 224 517 231 460 224 469 l 224 596 b 288 656 224 643 231 654 l 56 656 l 4 557 b 169 651 67 644 96 649 l 169 558 l 140 558 b 75 596 100 558 79 569 l 75 517 b 140 554 79 543 99 554 l 169 554 l 169 461 l 124 461 b -22 556 65 461 18 497 z m -12 681 l 276 681 l 276 708 l 236 708 l 236 1111 l 14 1111 l 14 972 l 97 972 l 97 708 l -12 708 z "},"":{"ha":264,"x_min":0,"x_max":0,"o":"m 14 0 l 250 0 l 250 139 l 158 139 l 199 564 l 200 564 l 160 972 l 250 972 l 250 1111 l 14 1111 l 14 1083 l 65 564 l 64 564 l 14 28 z "},"":{"ha":264,"x_min":0,"x_max":0,"o":"m 28 0 l 250 0 l 250 139 l 167 139 l 167 403 l 276 403 l 276 431 l -12 431 l -12 403 l 28 403 z m -24 457 l 233 457 l 286 556 b 142 461 246 497 199 461 l 94 461 l 94 554 l 124 554 b 189 517 165 554 185 543 l 189 596 b 124 558 185 569 164 558 l 94 558 l 94 646 b 151 624 110 636 125 624 b 188 633 165 624 178 626 b 260 557 210 619 231 597 l 208 656 l 207 656 b 211 676 210 663 211 669 l 207 676 b 196 656 207 665 203 658 l 167 656 b 115 681 150 661 136 675 l 276 681 l 276 708 l 167 708 l 167 972 l 250 972 l 250 1111 l 28 1111 l 28 708 l -12 708 l -12 681 l 78 681 b 47 656 65 676 54 668 l -24 656 b 40 596 33 654 40 643 l 40 517 b -24 457 40 469 33 460 z m -17 1129 l 69 1129 b 74 1200 69 1175 71 1194 b 88 1179 76 1204 82 1194 b 179 1115 113 1122 147 1103 b 260 1346 221 1132 260 1208 l 174 1346 b 169 1278 174 1304 172 1283 b 158 1294 168 1272 164 1279 b 60 1346 136 1344 96 1364 b -17 1129 19 1325 -17 1258 z "},"":{"ha":361,"x_min":0,"x_max":0,"o":"m 14 167 b 181 0 14 71 85 0 b 347 167 276 0 347 71 l 347 403 l 389 403 l 389 431 l -28 431 l -28 403 l 14 403 z m -28 681 l 389 681 l 389 708 l 257 708 l 347 1083 l 347 1111 l 14 1111 l 14 972 l 183 972 l 121 708 l -28 708 z m 33 457 l 35 457 b 186 454 35 528 49 454 b 329 506 283 454 329 472 b 179 557 329 542 263 554 l 317 654 l 317 656 l 44 656 l 44 653 l 243 653 l 106 556 b 258 503 224 556 258 528 b 186 457 258 478 249 457 b 36 526 113 457 36 479 l 33 526 z m 153 167 l 153 403 l 208 403 l 208 167 b 181 139 208 151 196 139 b 153 167 165 139 153 151 z "},"":{"ha":361,"x_min":0,"x_max":0,"o":"m 14 167 b 181 0 14 71 85 0 b 347 167 276 0 347 71 l 347 403 l 389 403 l 389 431 l -28 431 l -28 403 l 14 403 z m -28 681 l 249 681 l 176 667 l 99 681 l 96 679 l 132 656 l 44 656 l 44 653 l 136 653 l 172 629 l 181 629 l 217 653 l 243 653 l 106 556 b 258 503 224 556 258 528 b 186 457 258 478 249 457 b 36 526 113 457 36 479 l 33 526 l 33 457 l 35 457 b 186 454 35 528 49 454 b 329 506 283 454 329 472 b 179 557 329 542 263 554 l 317 654 l 317 656 l 221 656 l 257 679 l 257 681 l 389 681 l 389 708 l 257 708 l 347 1083 l 347 1111 l 228 1111 l 299 1344 l 194 1344 l 175 1263 l 154 1344 l 50 1344 l 122 1111 l 14 1111 l 14 972 l 183 972 l 121 708 l -28 708 z m 153 167 l 153 403 l 208 403 l 208 167 b 181 139 208 151 196 139 b 153 167 165 139 153 151 z "},"F":{"ha":264,"x_min":0,"x_max":0,"o":"m 28 0 l 167 0 l 167 403 l 286 403 l 286 431 l -22 431 l -22 403 l 28 403 z m -22 681 l 286 681 l 286 708 l 167 708 l 167 972 l 250 972 l 250 1111 l 28 1111 l 28 708 l -22 708 z m -14 457 l 189 457 b 103 528 114 460 103 471 l 103 554 l 146 554 b 207 517 186 554 203 544 l 207 593 b 146 558 203 569 185 558 l 103 558 l 103 651 b 276 557 192 649 226 631 l 225 656 l -14 656 b 50 596 43 654 50 643 l 50 517 b -14 457 50 467 43 458 z "},"G":{"ha":389,"x_min":0,"x_max":0,"o":"m 28 167 b 194 0 28 71 99 0 b 361 167 290 0 361 71 l 361 403 l 403 403 l 403 431 l -14 431 l -14 403 l 28 403 z m -14 681 l 403 681 l 403 708 l 167 708 l 167 944 b 194 972 167 960 179 972 b 222 944 210 972 222 960 l 222 736 l 361 736 l 361 944 b 194 1111 361 1040 290 1111 b 28 944 99 1111 28 1040 l 28 708 l -14 708 z m 40 556 b 208 451 40 499 113 451 b 347 492 257 451 317 469 l 347 518 b 401 558 347 549 353 557 l 336 558 l 336 661 b 276 651 335 640 322 638 b 208 661 258 657 233 661 b 40 556 108 661 40 614 z m 110 544 b 207 656 74 615 132 656 b 331 558 285 656 333 621 l 228 558 l 228 556 l 247 556 b 303 517 296 556 303 547 l 303 474 l 288 469 b 110 544 226 454 143 474 z m 167 167 l 167 403 l 222 403 l 222 167 b 194 139 222 151 210 139 b 167 167 179 139 167 151 z "},"":{"ha":389,"x_min":0,"x_max":0,"o":"m 28 167 b 194 0 28 71 99 0 b 361 167 290 0 361 71 l 361 403 l 403 403 l 403 431 l -14 431 l -14 403 l 28 403 z m -14 681 l 132 681 b 154 656 133 669 142 661 b 40 556 85 642 40 603 b 208 451 40 499 113 451 b 347 492 257 451 317 469 l 347 518 b 401 558 347 549 353 557 l 336 558 l 336 661 b 276 651 335 640 322 638 l 263 656 b 286 681 276 661 285 669 l 403 681 l 403 708 l 167 708 l 167 944 b 194 972 167 960 179 972 b 222 944 210 972 222 960 l 222 736 l 361 736 l 361 944 b 194 1111 361 1040 290 1111 b 28 944 99 1111 28 1040 l 28 708 l -14 708 z m 72 1333 b 208 1133 72 1222 133 1133 b 344 1333 283 1133 344 1222 l 219 1333 b 208 1276 219 1300 217 1276 b 197 1333 200 1276 197 1300 z m 110 544 b 167 651 81 603 114 639 b 208 647 179 649 193 647 b 250 651 224 647 239 649 b 331 558 303 640 333 608 l 228 558 l 228 556 l 247 556 b 303 517 296 556 303 547 l 303 474 l 288 469 b 110 544 226 454 143 474 z m 140 681 l 278 681 b 208 674 268 676 246 674 b 140 681 171 674 149 676 z m 167 167 l 167 403 l 222 403 l 222 167 b 194 139 222 151 210 139 b 167 167 179 139 167 151 z "},"":{"ha":389,"x_min":0,"x_max":0,"o":"m 28 167 b 194 0 28 71 99 0 b 361 167 290 0 361 71 l 361 403 l 403 403 l 403 431 l -14 431 l -14 403 l 28 403 z m -14 681 l 136 681 l 169 658 b 40 556 92 649 40 606 b 208 451 40 499 113 451 b 347 492 257 451 317 469 l 347 518 b 401 558 347 549 353 557 l 336 558 l 336 661 b 276 651 335 640 322 638 b 249 658 268 654 260 656 l 283 681 l 403 681 l 403 708 l 167 708 l 167 944 b 194 972 167 960 179 972 b 222 944 210 972 222 960 l 222 736 l 361 736 l 361 944 b 249 1103 361 1021 317 1082 l 257 1103 l 332 1350 l 228 1350 l 208 1268 l 188 1350 l 83 1350 l 158 1107 b 28 944 82 1092 28 1028 l 28 708 l -14 708 z m 110 544 b 178 653 79 606 118 644 l 206 635 l 214 635 l 242 653 b 331 558 299 644 333 611 l 228 558 l 228 556 l 247 556 b 303 517 296 556 303 547 l 303 474 l 288 469 b 110 544 226 454 143 474 z m 163 681 l 253 681 l 210 672 z m 167 167 l 167 403 l 222 403 l 222 167 b 194 139 222 151 210 139 b 167 167 179 139 167 151 z "},"":{"ha":389,"x_min":0,"x_max":0,"o":"m 28 167 b 194 0 28 71 99 0 b 361 167 290 0 361 71 l 361 403 l 403 403 l 403 431 l -14 431 l -14 403 l 28 403 z m -14 681 l 186 681 l 147 654 b 40 556 82 639 40 601 b 208 451 40 499 113 451 b 347 492 257 451 317 469 l 347 518 b 401 558 347 549 353 557 l 336 558 l 336 661 b 276 651 335 640 322 638 l 232 681 l 403 681 l 403 708 l 167 708 l 167 944 b 194 972 167 960 179 972 b 222 944 210 972 222 960 l 222 736 l 361 736 l 361 944 b 194 1111 361 1040 290 1111 b 28 944 99 1111 28 1040 l 28 708 l -14 708 z m 83 1133 l 188 1133 l 207 1215 l 228 1133 l 332 1133 l 256 1381 l 158 1381 z m 110 544 b 139 642 86 592 103 625 l 210 656 l 275 644 b 331 558 311 629 332 600 l 228 558 l 228 556 l 247 556 b 303 517 296 556 303 547 l 303 474 l 288 469 b 110 544 226 454 143 474 z m 167 167 l 167 403 l 222 403 l 222 167 b 194 139 222 151 210 139 b 167 167 179 139 167 151 z "},"":{"ha":389,"x_min":0,"x_max":0,"o":"m 28 167 b 194 0 28 71 99 0 b 361 167 290 0 361 71 l 361 403 l 403 403 l 403 431 l 239 431 b 210 440 232 436 221 440 b 181 431 197 440 188 436 l -14 431 l -14 403 l 28 403 z m -14 681 l 403 681 l 403 708 l 167 708 l 167 944 b 194 972 167 960 179 972 b 222 944 210 972 222 960 l 222 736 l 361 736 l 361 944 b 194 1111 361 1040 290 1111 b 28 944 99 1111 28 1040 l 28 708 l -14 708 z m 40 556 b 208 451 40 499 113 451 b 347 492 257 451 317 469 l 347 518 b 401 558 347 549 353 557 l 336 558 l 336 661 b 276 651 335 640 322 638 b 208 661 258 657 233 661 b 40 556 108 661 40 614 z m 110 544 b 207 656 74 615 132 656 b 331 558 285 656 333 621 l 228 558 l 228 556 l 247 556 b 303 517 296 556 303 547 l 303 474 l 288 469 b 110 544 226 454 143 474 z m 125 -236 l 229 -236 l 285 -14 l 125 -14 z m 167 167 l 167 403 l 174 403 b 210 385 179 392 193 385 l 222 386 b 182 368 217 376 204 371 l 183 367 b 222 378 199 368 213 372 l 222 167 b 194 139 222 151 210 139 b 167 167 179 139 167 151 z "},"":{"ha":389,"x_min":0,"x_max":0,"o":"m 28 167 b 194 0 28 71 99 0 b 361 167 290 0 361 71 l 361 403 l 403 403 l 403 431 l -14 431 l -14 403 l 28 403 z m -14 681 l 179 681 b 192 661 181 672 185 665 b 40 556 101 656 40 611 b 208 451 40 499 113 451 b 347 492 257 451 317 469 l 347 518 b 401 558 347 549 353 557 l 336 558 l 336 661 b 276 651 335 640 322 638 b 225 661 263 656 244 660 b 239 681 232 665 236 672 l 403 681 l 403 708 l 231 708 b 208 718 225 714 218 718 b 186 708 200 718 192 714 l 167 708 l 167 944 b 194 972 167 960 179 972 b 222 944 210 972 222 960 l 222 736 l 361 736 l 361 944 b 194 1111 361 1040 290 1111 b 28 944 99 1111 28 1040 l 28 708 l -14 708 z m 110 544 b 207 656 74 615 132 656 b 331 558 285 656 333 621 l 228 558 l 228 556 l 247 556 b 303 517 296 556 303 547 l 303 474 l 288 469 b 110 544 226 454 143 474 z m 114 1235 b 207 1125 114 1172 154 1125 b 301 1235 261 1125 301 1172 b 207 1346 301 1299 261 1346 b 114 1235 154 1346 114 1299 z m 167 167 l 167 403 l 222 403 l 222 167 b 194 139 222 151 210 139 b 167 167 179 139 167 151 z "},"":{"ha":389,"x_min":0,"x_max":0,"o":"m 28 167 b 194 0 28 71 99 0 b 361 167 290 0 361 71 l 361 403 l 403 403 l 403 431 l -14 431 l -14 403 l 28 403 z m -14 681 l 122 681 l 122 664 l 296 664 l 296 681 l 403 681 l 403 708 l 167 708 l 167 944 b 194 972 167 960 179 972 b 222 944 210 972 222 960 l 222 736 l 361 736 l 361 944 b 194 1111 361 1040 290 1111 b 28 944 99 1111 28 1040 l 28 708 l -14 708 z m 40 556 b 208 451 40 499 113 451 b 347 492 257 451 317 469 l 347 518 b 401 558 347 549 353 557 l 336 558 l 336 661 b 276 651 335 640 322 638 b 208 661 258 657 233 661 b 40 556 108 661 40 614 z m 72 1163 l 356 1163 l 356 1228 l 72 1228 z m 110 544 b 207 656 74 615 132 656 b 331 558 285 656 333 621 l 228 558 l 228 556 l 247 556 b 303 517 296 556 303 547 l 303 474 l 288 469 b 110 544 226 454 143 474 z m 167 167 l 167 403 l 222 403 l 222 167 b 194 139 222 151 210 139 b 167 167 179 139 167 151 z "},"":{"ha":389,"x_min":0,"x_max":0,"o":"m 28 167 b 194 0 28 71 99 0 b 361 167 290 0 361 71 l 361 403 l 403 403 l 403 431 l -14 431 l -14 403 l 28 403 z m -14 681 l 403 681 l 403 708 l 167 708 l 167 944 b 194 972 167 960 179 972 b 222 944 210 972 222 960 l 222 736 l 361 736 l 361 944 b 194 1111 361 1040 290 1111 b 28 944 99 1111 28 1040 l 28 708 l -14 708 z m 40 556 b 208 451 40 499 113 451 b 347 492 257 451 317 469 l 347 514 l 385 514 l 385 525 l 347 525 b 401 558 349 550 357 557 l 336 558 l 336 661 b 276 651 335 640 322 638 b 208 661 258 657 233 661 b 40 556 108 661 40 614 z m 110 544 b 207 656 74 615 132 656 b 331 558 285 656 333 621 l 228 558 l 228 556 l 247 556 b 303 525 292 556 301 549 l 232 525 l 232 514 l 303 514 l 303 474 l 288 469 b 110 544 226 454 143 474 z m 167 167 l 167 403 l 222 403 l 222 167 b 194 139 222 151 210 139 b 167 167 179 139 167 151 z "},"H":{"ha":389,"x_min":0,"x_max":0,"o":"m 28 0 l 167 0 l 167 403 l 222 403 l 222 0 l 361 0 l 361 403 l 403 403 l 403 431 l -14 431 l -14 403 l 28 403 z m -14 681 l 403 681 l 403 708 l 361 708 l 361 1111 l 222 1111 l 222 708 l 167 708 l 167 1111 l 28 1111 l 28 708 l -14 708 z m -1 457 l 390 457 b 332 507 338 463 332 467 l 332 606 b 390 656 332 649 338 651 l -1 656 b 58 606 51 651 58 649 l 58 507 b -1 457 58 468 51 463 z m 110 507 l 110 554 l 278 554 l 278 507 b 197 460 278 468 260 460 b 110 507 129 460 110 469 z m 110 558 l 110 606 b 197 653 110 646 135 653 b 278 606 261 653 278 644 l 278 558 z "},"":{"ha":389,"x_min":0,"x_max":0,"o":"m 28 0 l 167 0 l 167 403 l 222 403 l 222 0 l 361 0 l 361 403 l 403 403 l 403 431 l -14 431 l -14 403 l 28 403 z m -14 681 l 403 681 l 403 708 l 361 708 l 361 1111 l 222 1111 l 222 708 l 167 708 l 167 1111 l 28 1111 l 28 708 l -14 708 z m -1 457 l 390 457 b 332 507 338 463 332 467 l 332 606 b 390 656 332 649 338 651 l -1 656 b 58 606 51 651 58 649 l 58 507 b -1 457 58 468 51 463 z m 110 507 l 110 554 l 278 554 l 278 507 b 197 460 278 468 260 460 b 110 507 129 460 110 469 z m 110 558 l 110 596 l 278 596 l 278 558 z m 110 607 b 197 653 110 646 136 653 b 278 607 260 653 278 644 z "},"":{"ha":389,"x_min":0,"x_max":0,"o":"m 28 0 l 167 0 l 167 403 l 222 403 l 222 0 l 361 0 l 361 403 l 403 403 l 403 431 l 253 431 b 275 457 265 436 274 444 l 390 457 b 332 507 338 463 332 467 l 332 606 b 390 656 332 649 338 651 l -1 656 b 58 606 51 651 58 649 l 58 507 b -1 457 58 468 51 463 l 121 457 b 143 431 122 444 131 436 l -14 431 l -14 403 l 28 403 z m -14 681 l 403 681 l 403 708 l 361 708 l 361 1111 l 222 1111 l 222 708 l 167 708 l 167 1111 l 28 1111 l 28 708 l -14 708 z m 57 -24 b 193 -224 57 -135 118 -224 b 329 -24 268 -224 329 -135 l 204 -24 b 193 -81 204 -57 201 -81 b 182 -24 185 -81 182 -57 z m 110 507 l 110 554 l 278 554 l 278 507 b 197 460 278 468 260 460 b 110 507 129 460 110 469 z m 110 558 l 110 606 b 197 653 110 646 135 653 b 278 606 261 653 278 644 l 278 558 z m 126 457 l 269 457 b 197 449 263 453 239 449 b 126 457 156 449 133 453 z "},"":{"ha":389,"x_min":0,"x_max":0,"o":"m 28 0 l 167 0 l 167 403 l 222 403 l 222 0 l 361 0 l 361 403 l 403 403 l 403 431 l -14 431 l -14 403 l 28 403 z m -14 681 l 181 681 l 143 656 l -1 656 b 58 606 51 651 58 649 l 58 507 b -1 457 58 468 51 463 l 390 457 b 332 507 338 463 332 467 l 332 606 b 390 656 332 649 338 651 l 247 656 l 210 681 l 403 681 l 403 708 l 361 708 l 361 1111 l 222 1111 l 222 708 l 167 708 l 167 1111 l 28 1111 l 28 708 l -14 708 z m 69 1128 l 174 1128 l 193 1210 l 214 1128 l 318 1128 l 242 1375 l 144 1375 z m 110 507 l 110 554 l 278 554 l 278 507 b 197 460 278 468 260 460 b 110 507 129 460 110 469 z m 110 558 l 110 606 b 118 635 110 618 113 628 l 196 650 l 269 636 b 278 606 275 629 278 619 l 278 558 z "},"":{"ha":389,"x_min":0,"x_max":0,"o":"m 28 0 l 167 0 l 167 403 l 182 403 b 194 400 185 401 190 400 b 207 403 199 400 203 401 l 222 403 l 222 0 l 361 0 l 361 403 l 403 403 l 403 431 l 225 431 b 211 457 225 442 219 451 l 390 457 b 332 507 338 463 332 467 l 332 606 b 390 656 332 649 338 651 l -1 656 b 58 606 51 651 58 649 l 58 507 b -1 457 58 468 51 463 l 176 457 b 164 431 168 451 164 442 l -14 431 l -14 403 l 28 403 z m -14 681 l 403 681 l 403 708 l 361 708 l 361 1111 l 222 1111 l 222 708 l 167 708 l 167 1111 l 28 1111 l 28 708 l -14 708 z m 101 -117 b 196 -228 101 -181 142 -228 b 289 -117 249 -228 289 -181 b 196 -7 289 -54 249 -7 b 101 -117 142 -7 101 -54 z m 110 507 l 110 554 l 278 554 l 278 507 b 207 460 278 469 261 461 b 194 463 203 461 199 463 b 182 460 190 463 186 461 b 110 507 126 461 110 472 z m 110 558 l 110 606 b 197 653 110 646 135 653 b 278 606 261 653 278 644 l 278 558 z "},"I":{"ha":194,"x_min":0,"x_max":0,"o":"m 28 0 l 167 0 l 167 403 l 221 403 l 221 431 l -28 431 l -28 403 l 28 403 z m -28 681 l 221 681 l 221 708 l 167 708 l 167 1111 l 28 1111 l 28 708 l -28 708 z m 3 457 l 192 457 b 124 507 131 461 124 464 l 124 606 b 192 656 124 647 129 651 l 3 656 b 69 606 64 653 69 646 l 69 507 b 3 457 69 464 64 461 z "},"":{"ha":194,"x_min":0,"x_max":0,"o":"m 28 0 l 167 0 l 167 14 b 264 167 225 39 264 96 l 264 403 l 306 403 l 306 431 l -111 431 l -111 403 l -69 403 l -69 167 b 28 14 -69 96 -31 39 z m -111 681 l 306 681 l 306 708 l 264 708 l 264 1111 l 28 1111 l 28 708 l -111 708 z m -56 457 b 25 468 -54 478 -42 482 l 50 463 b 3 457 40 460 25 458 l 94 457 b 151 457 115 456 135 456 l 192 457 b 165 460 182 457 174 458 b 228 518 207 467 229 486 l 228 606 b 299 656 228 646 231 651 l 3 656 b 69 606 64 653 69 646 l 69 507 b 60 468 69 486 68 474 l 31 472 b -56 560 -35 485 -51 536 z m 124 507 l 124 606 b 147 650 124 633 126 644 b 174 606 172 644 174 633 l 174 513 b 136 467 174 488 161 472 b 124 507 125 474 124 485 z "},"":{"ha":194,"x_min":0,"x_max":0,"o":"m 28 0 l 167 0 l 167 403 l 221 403 l 221 431 l -28 431 l -28 403 l 28 403 z m -28 681 l 124 681 l 83 656 l 3 656 b 61 642 36 654 53 651 l 43 631 l 44 628 l 68 631 b 69 606 69 624 69 615 l 69 507 b 3 457 69 464 64 461 l 192 457 b 124 507 131 461 124 464 l 124 606 b 128 638 124 619 124 631 l 158 640 l 150 651 b 192 656 161 653 174 654 l 147 656 l 129 681 l 221 681 l 221 708 l 167 708 l 167 1111 l 28 1111 l 28 708 l -28 708 z m 21 1143 l 157 1143 l 229 1349 l 57 1349 z "},"":{"ha":194,"x_min":0,"x_max":0,"o":"m 28 0 l 167 0 l 167 403 l 221 403 l 221 431 l -28 431 l -28 403 l 28 403 z m -28 681 l 22 681 l 61 656 l 3 656 b 69 606 64 653 69 646 l 69 507 b 3 457 69 464 64 461 l 192 457 b 124 507 131 461 124 464 l 124 606 b 192 656 124 647 129 651 l 136 656 l 175 681 l 221 681 l 221 708 l 167 708 l 167 1111 l 149 1111 l 221 1349 l 117 1349 l 97 1267 l 76 1349 l -28 1349 l 46 1111 l 28 1111 l 28 708 l -28 708 z m 44 681 l 149 681 l 99 671 z "},"":{"ha":194,"x_min":0,"x_max":0,"o":"m 28 0 l 167 0 l 167 403 l 221 403 l 221 431 l -28 431 l -28 403 l 28 403 z m -28 681 l 78 681 l 39 656 l 3 656 b 35 653 17 656 26 654 l 18 642 l 19 639 l 57 646 b 69 606 68 639 69 628 l 69 507 b 3 457 69 464 64 461 l 192 457 b 124 507 131 461 124 464 l 124 606 b 139 647 124 629 125 640 l 176 640 l 178 642 l 161 653 l 192 656 l 157 656 l 118 681 l 221 681 l 221 708 l 167 708 l 167 1111 l 28 1111 l 28 708 l -28 708 z m -28 1132 l 76 1132 l 96 1214 l 117 1132 l 221 1132 l 144 1379 l 47 1379 z "}}}
